<?xml version="1.0" encoding="UTF-8" standalone="no"?>
<svg width="50px" height="50px" viewBox="0 0 50 50" version="1.1" xmlns="http://www.w3.org/2000/svg" xmlns:xlink="http://www.w3.org/1999/xlink">
    <!-- Generator: Sketch 41 (35326) - http://www.bohemiancoding.com/sketch -->
    <title>ei-sc-instagram</title>
    <desc>Created with Sketch.</desc>
    <defs></defs>
    <g id="Page-1" stroke="none" stroke-width="1" fill="none" fill-rule="evenodd">
        <g id="ei-sc-instagram" fill="#000000">
            <g id="Page-1" transform="translate(12.000000, 12.000000)">
                <path d="M12.999943,0 C9.46936092,0 9.02660647,0.0148724467 7.64004997,0.0782370474 C6.2563426,0.1414307 5.31134391,0.361155431 4.48447006,0.682480056 C3.6295608,1.01468835 2.90462874,1.45920926 2.181919,2.181919 C1.45920926,2.90462874 1.01468835,3.62967476 0.682480056,4.48452704 C0.361041466,5.31145788 0.141316735,6.25645656 0.0781800649,7.64016393 C0.0148724467,9.02672043 0,9.46936092 0,12.999943 C0,16.5306391 0.0148724467,16.9732796 0.0781800649,18.3598361 C0.141316735,19.7435434 0.361041466,20.6885421 0.682480056,21.515473 C1.01468835,22.3703252 1.45920926,23.0953713 2.181919,23.818081 C2.90462874,24.5407907 3.6295608,24.9853117 4.48447006,25.3175199 C5.31134391,25.6388446 6.2563426,25.8585693 7.64004997,25.921763 C9.02660647,25.9850136 9.46936092,26 12.999943,26 C16.5305251,26 16.9732226,25.9850136 18.3598361,25.921763 C19.7435434,25.8585693 20.6885421,25.6388446 21.515359,25.3175199 C22.3703252,24.9853117 23.0952573,24.5407907 23.817967,23.818081 C24.5406768,23.0953713 24.9851977,22.3703252 25.317406,21.515473 C25.6388446,20.6885421 25.8585693,19.7435434 25.921649,18.3598361 C25.9850136,16.9732796 25.999886,16.5306391 25.999886,12.999943 C25.999886,9.46936092 25.9850136,9.02672043 25.921649,7.64016393 C25.8585693,6.25645656 25.6388446,5.31145788 25.317406,4.48452704 C24.9851977,3.62967476 24.5406768,2.90462874 23.817967,2.181919 C23.0952573,1.45920926 22.3703252,1.01468835 21.515359,0.682480056 C20.6885421,0.361155431 19.7435434,0.1414307 18.3598361,0.0782370474 C16.9732226,0.0148724467 16.5305251,0 12.999943,0 M12.999943,2.34226791 C16.4710923,2.34226791 16.8821645,2.35554484 18.2530508,2.4180547 C19.5204567,2.475892 20.208863,2.68775313 20.6669457,2.86570965 C21.273753,3.10156045 21.7068774,3.3832822 22.1617121,3.83817393 C22.6166608,4.29312264 22.8983826,4.72613308 23.1341764,5.3329403 C23.3121329,5.79102306 23.523994,6.4794293 23.5818313,7.74683528 C23.6443412,9.11772157 23.6576181,9.52879372 23.6576181,12.999943 C23.6576181,16.4712063 23.6443412,16.8822784 23.5818313,18.2530508 C23.523994,19.5205707 23.3121329,20.2089769 23.1341764,20.6670597 C22.8983826,21.2738099 22.6166608,21.7068774 22.1617121,22.1618261 C21.7068774,22.6167178 21.273753,22.8984396 20.6669457,23.1342334 C20.208863,23.3122469 19.5204567,23.524108 18.2530508,23.5818313 C16.8823924,23.6444552 16.4713772,23.6576181 12.999943,23.6576181 C9.52850881,23.6576181 9.11749364,23.6444552 7.74683528,23.5818313 C6.47937232,23.524108 5.79102306,23.3122469 5.3329403,23.1342334 C4.72613308,22.8984396 4.29300868,22.6167178 3.83817393,22.1618261 C3.3832822,21.7068774 3.10156045,21.2738099 2.86570965,20.6670597 C2.68775313,20.2089769 2.475892,19.5205707 2.4180547,18.2530508 C2.35554484,16.8822784 2.34226791,16.4712063 2.34226791,12.999943 C2.34226791,9.52879372 2.35554484,9.11772157 2.4180547,7.74683528 C2.475892,6.4794293 2.68775313,5.79102306 2.86570965,5.3329403 C3.10156045,4.72613308 3.3832822,4.29312264 3.83817393,3.83817393 C4.29300868,3.3832822 4.72613308,3.10156045 5.3329403,2.86570965 C5.79102306,2.68775313 6.47937232,2.475892 7.74683528,2.4180547 C9.11772157,2.35554484 9.52879372,2.34226791 12.999943,2.34226791" id="Fill-1"></path>
                <path d="M13,6 C9.13402247,6 6,9.13402247 6,13 C6,16.866097 9.13402247,20 13,20 C16.8659775,20 20,16.866097 20,13 C20,9.13402247 16.8659775,6 13,6 M13,17.5 C10.5146949,17.5 8.5,15.4853051 8.5,13 C8.5,10.5146949 10.5146949,8.5 13,8.5 C15.4853051,8.5 17.5,10.5146949 17.5,13 C17.5,15.4853051 15.4853051,17.5 13,17.5" id="Fill-4"></path>
                <path d="M21.7,6.10000002 C21.7,6.98360306 20.9837199,7.70000005 20.1,7.70000005 C19.216397,7.70000005 18.5,6.98360306 18.5,6.10000002 C18.5,5.21633854 19.216397,4.5 20.1,4.5 C20.9837199,4.5 21.7,5.21633854 21.7,6.10000002" id="Fill-6"></path>
            </g>
        </g>
    </g>
</svg>