<svg xmlns="http://www.w3.org/2000/svg" viewBox="0 0 472 108" enable-background="new 0 0 472 108"><g><path fill="#E2CBB5" d="M465 99l-6-6v-3c0-6.8-5.3-12.4-12-12.9V73h3c7.2 0 13-5.8 13-13V47c0-1.1-.9-2-2-2s-2 .9-2 2c0-1.1-.9-2-2-2s-2 .9-2 2c0-1.1-.9-2-2-2s-2 .9-2 2v11c0 1.7-1.3 3-3 3h-1V47h-25c-2.8 0-5-2.2-5-5s2.2-5 5-5h25v-2c2.2 0 4-1.8 4-4s-1.8-4-4-4v-7c0-7-3.9-11-11-11h-12c-7.1 0-11 4-11 11v7c-2.2 0-4 1.8-4 4s1.8 4 4 4v26h-1c-1.7 0-3-1.3-3-3V47c0-1.1-.9-2-2-2s-2 .9-2 2c0-1.1-.9-2-2-2s-2 .9-2 2c0-1.1-.9-2-2-2s-2 .9-2 2v13c0 7.2 5.8 13 13 13h3v9c0 1.7-1.3 3-3 3h-7v18l6-6h3c5.4 0 10-3.3 12-8h20c1.7 0 3 1.3 3 3v7h18z"/><path fill="#BF6C35" d="M436 9h-12c-7.1 0-11 4-11 11v1l2-2 3 3 3-3 3 3 3-3 3 3 3-3 3 3 3-3 3 3 3-3 2 2v-1c0-7-3.9-11-11-11z"/><circle fill="#fff" cx="424" cy="29" r="4"/><circle fill="#fff" cx="436" cy="29" r="4"/><circle fill="#9FA628" cx="424" cy="29" r="2"/><circle fill="#9FA628" cx="436" cy="29" r="2"/><g fill="#663F4C"><path d="M424 33.9c-2.7 0-4.9-2.2-4.9-4.9s2.2-4.9 4.9-4.9 4.9 2.2 4.9 4.9-2.2 4.9-4.9 4.9zm0-8c-1.7 0-3.1 1.4-3.1 3.1s1.4 3.1 3.1 3.1 3.1-1.4 3.1-3.1-1.4-3.1-3.1-3.1zM436 33.9c-2.7 0-4.9-2.2-4.9-4.9s2.2-4.9 4.9-4.9 4.9 2.2 4.9 4.9-2.2 4.9-4.9 4.9zm0-8c-1.7 0-3.1 1.4-3.1 3.1s1.4 3.1 3.1 3.1 3.1-1.4 3.1-3.1-1.4-3.1-3.1-3.1zM467.4 100l-7.4-7.4V90c0-7-5.2-12.9-12-13.8V74h2c7.7 0 14-6.3 14-14V47c0-1.7-1.3-3-3-3-.8 0-1.5.3-2 .8-.5-.5-1.2-.8-2-.8s-1.5.3-2 .8c-.5-.5-1.2-.8-2-.8-1.7 0-3 1.3-3 3v11c0 1.1-.9 2-2 2V46h-5v-.5c0-.8-.7-1.5-1.5-1.5s-1.5.7-1.5 1.5v.5h-3v-.5c0-.8-.7-1.5-1.5-1.5s-1.5.7-1.5 1.5v.5h-3v-.5c0-.8-.7-1.5-1.5-1.5s-1.5.7-1.5 1.5v.5h-3v-.5c0-.8-.7-1.5-1.5-1.5s-1.5.7-1.5 1.5v.5c-2.2 0-4-1.8-4-4s1.8-4 4-4h3v.5c0 .8.7 1.5 1.5 1.5s1.5-.7 1.5-1.5V38h3v.5c0 .8.7 1.5 1.5 1.5s1.5-.7 1.5-1.5V38h3v.5c0 .8.7 1.5 1.5 1.5s1.5-.7 1.5-1.5V38h3v.5c0 .8.7 1.5 1.5 1.5s1.5-.7 1.5-1.5V38h2v-2.1c2.3-.5 4-2.5 4-4.9s-1.7-4.4-4-4.9V20c0-7.6-4.4-12-12-12h-12c-7.6 0-12 4.4-12 12v6.1c-2.3.5-4 2.5-4 4.9s1.7 4.4 4 4.9V60c-1.1 0-2-.9-2-2V47c0-1.7-1.3-3-3-3-.8 0-1.5.3-2 .8-.5-.5-1.2-.8-2-.8s-1.5.3-2 .8c-.5-.5-1.2-.8-2-.8-1.7 0-3 1.3-3 3v13c0 7.7 6.3 14 14 14h2v8c0 1.1-.9 2-2 2h-8v21.4l7.4-7.4h2.6c5.4 0 10.3-3.1 12.6-8H444c1.1 0 2 .9 2 2v8h21.4zM448 62c2.2 0 4-1.8 4-4V47c0-.6.4-1 1-1s1 .4 1 1 .4 1 1 1 1-.4 1-1 .4-1 1-1 1 .4 1 1 .4 1 1 1 1-.4 1-1 .4-1 1-1 1 .4 1 1v13c0 6.6-5.4 12-12 12h-2V62zm0-33.8c1.2.4 2 1.5 2 2.8s-.8 2.4-2 2.8v-5.6zM410 31c0-1.3.8-2.4 2-2.8v5.7c-1.2-.5-2-1.6-2-2.9zm34 57h-20.7l-.3.6c-1.9 4.5-6.2 7.4-11.1 7.4h-3.4l-4.6 4.6V86h6c2.2 0 4-1.8 4-4V72h-4c-6.6 0-12-5.4-12-12V47c0-.6.4-1 1-1s1 .4 1 1 .4 1 1 1 1-.4 1-1 .4-1 1-1 1 .4 1 1 .4 1 1 1 1-.4 1-1 .4-1 1-1 1 .4 1 1v11c0 2.2 1.8 4 4 4h2V20c0-6.4 3.6-10 10-10h12c6.4 0 10 3.6 10 10v16h-24c-3.3 0-6 2.7-6 6s2.7 6 6 6h24v30l.9.1c6.2.5 11.1 5.7 11.1 12v3.4l4.6 4.6H448v-6c0-2.3-1.8-4.1-4-4.1z"/></g></g><g><path fill="#9FA628" d="M28 47c-2.8 0-5-2.2-5-5s2.2-5 5-5h25V20c0-7-3.9-11-11-11H30c-7.1 0-11 4-11 11v62c0 1.7-1.3 3-3 3H9v18l6-6h3c5.4 0 10-3.3 12-8h20c1.7 0 3 1.3 3 3v7h18l-6-6v-3c0-6.8-5.3-12.4-12-12.9V75h24l-5-4 6-2-6-2 5-4H53v-4h24l-5-4 6-2-6-2 5-4H28z"/><g fill="#fff"><circle cx="30" cy="29" r="4"/><circle cx="42" cy="29" r="4"/></g><g fill="#BF6C35"><circle cx="30" cy="29" r="2"/><circle cx="42" cy="29" r="2"/></g><g fill="#E2CBB5"><path d="M19 78V68l-9 5zM19 68V58l-9 5zM19 58V48l-9 5zM10 43l9 5V38z"/></g><g fill="#663F4C"><path d="M53 46l-2-4-2 4h-2l-2-4-2 4h-2l-2-4-2 4h-2l-2-4-2 4h-2l-2-4-1.5 3.1c-.9-.8-1.5-1.9-1.5-3.1 0-1.9 1.3-3.5 3.1-3.9L29 42l2-4h2l2 4 2-4h2l2 4 2-4h2l2 4 2-4h5V20c0-3.4-.9-6.1-2.5-8.1l2.6-2.6c.9.4 1.8.7 2.9.7.6 0 1-.4 1-1s-.4-1-1-1c-1.9 0-3-1.1-3-3 0-.6-.4-1-1-1s-1 .4-1 1c0 1.1.3 2 .8 2.8l-2.6 2.6C48.1 8.9 45.4 8 42 8H30c-3.4 0-6.1.9-8.1 2.5l-2.6-2.6c.4-.9.7-1.8.7-2.9 0-.6-.4-1-1-1s-1 .4-1 1c0 1.9-1.1 3-3 3-.6 0-1 .4-1 1s.4 1 1 1c1.1 0 2-.3 2.8-.8l2.6 2.6c-1.6 2-2.5 4.7-2.5 8.1v17.4L7.9 43l9 5-9 5 9 5-9 5 9 5-9 5L18 78.6V82c0 1.1-.9 2-2 2H8v21.4l7.4-7.4H18c5.4 0 10.3-3.1 12.6-8H50c1.1 0 2 .9 2 2v8h21.4L66 92.6V90c0-7-5.2-12.9-12-13.8V76h25.9l-5.8-4.6 7.1-2.4-7.1-2.4 5.8-4.6H54v-2h25.9l-5.8-4.6 7.1-2.4-7.1-2.4 5.8-4.6H53zm1 2h20.1l-4.2 3.4 4.9 1.6-4.9 1.6 4.2 3.4H54V48zm-36-8.3v6.6L12.1 43l5.9-3.3zm0 10v6.6L12.1 53l5.9-3.3zm0 10v6.6L12.1 63l5.9-3.3zM12.1 73l5.9-3.3v6.6L12.1 73zM20 20c0-6.4 3.6-10 10-10h12c6.4 0 10 3.6 10 10v16H28c-3.3 0-6 2.7-6 6s2.7 6 6 6h24v16h22.1l-4.2 3.4 4.9 1.6-4.9 1.6 4.2 3.4H52v4l.9.1C59.1 78.5 64 83.8 64 90v3.4l4.6 4.6H54v-6c0-2.2-1.8-4-4-4H29.3l-.3.6c-1.8 4.5-6.1 7.4-11 7.4h-3.4l-4.6 4.6V86h6c2.2 0 4-1.8 4-4V20zM30 33.9c2.7 0 4.9-2.2 4.9-4.9s-2.2-4.9-4.9-4.9-4.9 2.2-4.9 4.9 2.2 4.9 4.9 4.9zm0-8c1.7 0 3.1 1.4 3.1 3.1s-1.4 3.1-3.1 3.1-3.1-1.4-3.1-3.1 1.4-3.1 3.1-3.1zM42 33.9c2.7 0 4.9-2.2 4.9-4.9s-2.2-4.9-4.9-4.9-4.9 2.2-4.9 4.9 2.2 4.9 4.9 4.9zm0-8c1.7 0 3.1 1.4 3.1 3.1s-1.4 3.1-3.1 3.1-3.1-1.4-3.1-3.1 1.4-3.1 3.1-3.1z"/></g></g><g fill="#583345"><path d="M142 36h8v48h-8zM172 84v-7h-12V36h-8v48zM126 84c7.7 0 14-6.3 14-14V36h-8v35c0 3.3-2.7 6-6 6h-2V36h-8v48h10zM238 36c-7.7 0-14 6.3-14 14v34h8V67h8v17h8V36h-10zm-6 24V49c0-3.3 2.7-6 6-6h2v17h-8zM274 50c0-7.7-6.3-14-14-14h-10v48h8V67h2c3.3 0 6 2.7 6 6v11h8V74c0-4.5-2.2-8.2-5.5-10.5 3.4-2.3 5.5-6 5.5-10.5v-3zm-8 4c0 3.3-2.7 6-6 6h-2V43h2c3.3 0 6 2.7 6 6v5zM322 36c-7.7 0-14 6.3-14 14v34h8V68h8v16h8V36h-10zm-6 25V49c0-3.3 2.7-6 6-6h2v18h-8zM296 36h-20v7h6v41h8V43h6zM298 36h8v48h-8zM206 49c0-3.3 2.7-6 6-6h2v41h8V36h-10c-3.9 0-7.5 2.1-10 5.2-2.5-3.1-6.1-5.2-10-5.2h-10v48h8V43h2c3.3 0 6 2.7 6 6v35h8V49zM350 84h8V36h-8v5.6c-3-3.5-7.2-5.6-12-5.6h-4v48h8V44.7c4.1 1.7 8 6.5 8 11.3v28zM92 36v34c0 7.7 6.3 14 14 14h8v-7h-8c-3.3 0-6-2.7-6-6V59h12v-7h-12v-9h14v-7H92zM384 52v-4c0-9-4.3-13-12-13s-12 5.3-12 13c0 15 16 15.1 16 24v1c0 3-1 5-4 5s-4-2-4-5v-5h-8v4c0 9.1 4.3 13 12 13s12-5.3 12-13c0-14.9-16-15-16-24v-1c0-3 1-5 4-5s4 2 4 5v5h8z"/></g><g fill="#583345"><path d="M181.2 20.3c-2.3 0-4-.8-5-1.8l1.5-1.7c.9.8 2 1.3 3.4 1.3 1.2 0 2.1-.6 2.1-1.5s-.5-1.3-2.2-1.8c-2.9-.9-4-2-4-3.9 0-2.3 2.1-3.6 4.7-3.6 1.9 0 3.4.6 4.4 1.6l-1.4 1.6c-.8-.7-1.8-1-2.8-1-1.1 0-1.9.4-1.9 1.2 0 .8.6 1.1 2.5 1.7 2.4.8 3.8 1.7 3.8 4-.1 2.3-2 3.9-5.1 3.9zM190.9 19.3v4.4l-2.9.3V10.4h2.6l.1 1.1c.8-1 1.7-1.4 2.6-1.4 2.5 0 3.5 2 3.5 5.1 0 3-1.4 5.1-3.7 5.1-.8 0-1.6-.3-2.2-1zm3-4.1c0-2.4-.5-3-1.5-3-.6 0-1.1.4-1.5 1.1v4c.4.6.8.8 1.4.8 1 .1 1.6-.7 1.6-2.9zM207.7 15.2c0 3.2-1.7 5.1-4.7 5.1-2.9 0-4.7-1.9-4.7-5.1 0-3 1.7-5.1 4.7-5.1s4.7 2 4.7 5.1zm-6.4 0c0 2.1.5 3 1.7 3s1.7-.9 1.7-3-.5-3-1.7-3-1.7.9-1.7 3zM209.6 20v-9.6h2.5l.2 1.1c.8-1 1.8-1.4 3-1.4 1.7 0 2.6 1 2.6 2.9v7H215v-6.2c0-1.2-.2-1.5-.9-1.5-.6 0-1.1.4-1.7 1.2V20h-2.8zM225.8 17.4c0-.6-.4-.8-2.3-1.4-1.7-.5-3-1.3-3-3s1.5-3 4.2-3c1.6 0 3 .5 3.8 1.1l-1.2 1.7c-.7-.5-1.6-.7-2.6-.7s-1.4.2-1.4.7c0 .5.4.7 2.3 1.2s3.1 1.2 3.1 3c0 2.1-2.1 3.2-4.5 3.2-1.9 0-3.3-.5-4.3-1.4l1.4-1.6c.7.6 1.7.9 2.8.9 1 .2 1.7-.1 1.7-.7zM240.1 15.2c0 3.2-1.7 5.1-4.7 5.1-2.9 0-4.7-1.9-4.7-5.1 0-3 1.7-5.1 4.7-5.1s4.7 2 4.7 5.1zm-6.4 0c0 2.1.5 3 1.7 3s1.7-.9 1.7-3-.5-3-1.7-3-1.7.9-1.7 3zM249.4 20h-7.3v-2h2v-5.6h-2v-2h4.5l.2 1.8c.4-1.3 1.5-2.1 2.6-2.1.5 0 .8.1 1.2.2l-.5 2.8c-.4-.1-.7-.1-1.1-.1-1.2 0-1.9 1-2.2 2.2V18h2.4v2zM255.3 16.1c.2 1.5 1.1 2.2 2.3 2.2.8 0 1.6-.3 2.4-.9l1.2 1.6c-.9.7-2.3 1.3-3.8 1.3-3.3 0-5-2.1-5-5.1 0-2.8 1.7-5.1 4.6-5.1 2.8 0 4.5 1.8 4.5 4.9 0 .3 0 .7-.1 1h-6.1zm0-1.8h3.5c0-1.3-.5-2.3-1.7-2.3-1 0-1.7.7-1.8 2.3zM269.1 11V6.3l2.9.3V20h-2.6l-.1-1c-.5.7-1.4 1.3-2.6 1.3-2.4 0-3.5-2-3.5-5.1 0-3 1.5-5.1 3.8-5.1.8 0 1.5.3 2.1.9zm-3 4.2c0 2.4.6 3 1.5 3 .6 0 1.1-.4 1.5-1.1V13c-.4-.5-.8-.8-1.4-.8-1 0-1.6.9-1.6 3zM287 11.4c.6-.8 1.5-1.3 2.4-1.3 2.5 0 3.5 2 3.5 5.1 0 3-1.3 5.1-3.8 5.1-1 0-1.8-.4-2.4-1.2l-.1.9H284V6.6l2.9-.3v5.1zm3 3.8c0-2.4-.6-3-1.5-3-.6 0-1.1.4-1.5 1.1v4c.4.6.8.9 1.4.9 1 0 1.6-.8 1.6-3zM294.2 10.4h3L299 18h.1l2-7.6h3l-3.2 9.6c-.8 2.6-2.5 3.9-5.4 4l-.3-2c1.9-.2 2.6-.8 3.1-2h-1l-3.1-9.6z"/></g></svg>