<svg xmlns="http://www.w3.org/2000/svg" viewBox="0 0 200 200" enable-background="new 0 0 200 200"><linearGradient id="a" gradientUnits="userSpaceOnUse" x1="100" y1="140.93" x2="100" y2="29.07"><stop offset="0"/><stop offset="1" stop-opacity=".7"/></linearGradient><path fill="url(#a)" d="M150.7 69.3l-30-30c-.3-.3-.8-.4-1.1-.2-.4.2-.5.6-.4 1L127 72l-6.2-12.4-.3-.3-40-30c-.3-.2-.7-.2-1-.1-.3.2-.5.5-.5.8v19.8l-8.1 16.3V50c0-.4-.3-.8-.7-.9-.4-.1-.8 0-1 .4l-20 30c-.1.2-.2.3-.2.5v30.3l10 30c.1.4.6.7 1 .6.5-.1.8-.5.8-.9v-29.3l27.2-9.1-9 18c-.2.3-.1.7.1 1 .2.3.6.4.9.4l58.9-9.8V140c0 .5.3.8.8.9h.2c.4 0 .8-.3.9-.6l10-30V70c.1-.2 0-.5-.1-.7zm-29-26.3l27.2 27.2-9.1 18.2-8.9-8.9-9.2-36.5zM90.1 98.5l-18-27.1 36.1 9-18.1 18.1zm-9.2-65.1L105.3 74 80.9 49.6V33.4zm29 44.7L83.2 33.6l35.6 26.7-8.9 17.8zM80.3 51.6L107 78.3l-35.6-8.9 8.9-17.8zM69.1 69.9l-9.2 36.8L51 80.1 69 53v16.9zm-18.2 39.9V85.7l8.1 24.4v24.1l-8.1-24.4zm10.4-1.2l9.1-36.3 18.1 27.2-27.2 9.1zm29.4-8l19.9-19.9s0-.1.1-.1v-.2l9.2-18.3 8.8 17.7-46.1 36.9 8.1-16.1zm-7.3 17.9L130 81.3l9.1 9.1v18.8l-55.7 9.3zm57.5 15.8V90.2l8.1-16.3v35.9l-8.1 24.5z"/><path d="M120.4 161.7l11.7-35.2-23.4 23.5 11.7 11.7zm-.8-3.4l-8.3-8.3 16.6-16.6-8.3 24.9zM79.6 161.7L91.3 150l-23.4-23.4 11.7 35.1zm.8-3.4l-8.3-24.8L88.7 150l-8.3 8.3z"/></svg>