<?xml version="1.0" encoding="utf-8"?>
<!-- Generator: Adobe Illustrator 18.1.0, SVG Export Plug-In . SVG Version: 6.00 Build 0)  -->
<!DOCTYPE svg PUBLIC "-//W3C//DTD SVG 1.1//EN" "http://www.w3.org/Graphics/SVG/1.1/DTD/svg11.dtd">
<svg version="1.1" id="EM-Sponsor-Badge" xmlns="http://www.w3.org/2000/svg" xmlns:xlink="http://www.w3.org/1999/xlink" x="0px"
	 y="0px" viewBox="0 0 472 108" enable-background="new 0 0 472 108" xml:space="preserve">
<g id="Human">
	<path fill="#E2CBB5" d="M465,99l-6-6v-3c0-6.8-5.3-12.4-12-12.9V73h3c7.2,0,13-5.8,13-13V47c0-1.1-0.9-2-2-2s-2,0.9-2,2
		c0-1.1-0.9-2-2-2s-2,0.9-2,2c0-1.1-0.9-2-2-2s-2,0.9-2,2v11c0,1.7-1.3,3-3,3h-1V47h-25c-2.8,0-5-2.2-5-5s2.2-5,5-5h25v-2
		c2.2,0,4-1.8,4-4c0-2.2-1.8-4-4-4v-7c0-7-3.9-11-11-11h-12c-7.1,0-11,4-11,11v7c-2.2,0-4,1.8-4,4c0,2.2,1.8,4,4,4v26h-1
		c-1.7,0-3-1.3-3-3V47c0-1.1-0.9-2-2-2s-2,0.9-2,2c0-1.1-0.9-2-2-2s-2,0.9-2,2c0-1.1-0.9-2-2-2s-2,0.9-2,2v13c0,7.2,5.8,13,13,13h3
		v8v1c0,1.7-1.3,3-3,3h-7v18l6-6h3c5.4,0,10-3.3,12-8h19h1c1.7,0,3,1.3,3,3v7H465z"/>
	<path fill="#BF6C35" d="M436,9h-12c-7.1,0-11,4-11,11v1l2-2l3,3l3-3l3,3l3-3l3,3l3-3l3,3l3-3l3,3l3-3l2,2v-1C447,13,443.1,9,436,9z
		"/>
	<circle fill="#FFFFFF" cx="424" cy="29" r="4"/>
	<circle fill="#FFFFFF" cx="436" cy="29" r="4"/>
	<circle fill="#9FA628" cx="424" cy="29" r="2"/>
	<circle fill="#9FA628" cx="436" cy="29" r="2"/>
	<g>
		<path fill="#663F4C" d="M424,33.9c-2.7,0-4.9-2.2-4.9-4.9s2.2-4.9,4.9-4.9s4.9,2.2,4.9,4.9S426.7,33.9,424,33.9z M424,25.9
			c-1.7,0-3.1,1.4-3.1,3.1s1.4,3.1,3.1,3.1s3.1-1.4,3.1-3.1S425.7,25.9,424,25.9z"/>
		<path fill="#663F4C" d="M436,33.9c-2.7,0-4.9-2.2-4.9-4.9s2.2-4.9,4.9-4.9s4.9,2.2,4.9,4.9S438.7,33.9,436,33.9z M436,25.9
			c-1.7,0-3.1,1.4-3.1,3.1s1.4,3.1,3.1,3.1s3.1-1.4,3.1-3.1S437.7,25.9,436,25.9z"/>
		<path fill="#663F4C" d="M467.4,100l-7.4-7.4V90c0-7-5.2-12.9-12-13.8V74h2c7.7,0,14-6.3,14-14V47c0-1.7-1.3-3-3-3
			c-0.8,0-1.5,0.3-2,0.8c-0.5-0.5-1.2-0.8-2-0.8s-1.5,0.3-2,0.8c-0.5-0.5-1.2-0.8-2-0.8c-1.7,0-3,1.3-3,3v11c0,1.1-0.9,2-2,2V46h-5
			v-0.5c0-0.8-0.7-1.5-1.5-1.5s-1.5,0.7-1.5,1.5V46h-3v-0.5c0-0.8-0.7-1.5-1.5-1.5s-1.5,0.7-1.5,1.5V46h-3v-0.5
			c0-0.8-0.7-1.5-1.5-1.5s-1.5,0.7-1.5,1.5V46h-3v-0.5c0-0.8-0.7-1.5-1.5-1.5s-1.5,0.7-1.5,1.5V46c-2.2,0-4-1.8-4-4s1.8-4,4-4h3v0.5
			c0,0.8,0.7,1.5,1.5,1.5s1.5-0.7,1.5-1.5V38h3v0.5c0,0.8,0.7,1.5,1.5,1.5s1.5-0.7,1.5-1.5V38h3v0.5c0,0.8,0.7,1.5,1.5,1.5
			s1.5-0.7,1.5-1.5V38h3v0.5c0,0.8,0.7,1.5,1.5,1.5s1.5-0.7,1.5-1.5V38h2v-2.1c2.3-0.5,4-2.5,4-4.9s-1.7-4.4-4-4.9V20
			c0-7.6-4.4-12-12-12h-12c-7.6,0-12,4.4-12,12v6.1c-2.3,0.5-4,2.5-4,4.9s1.7,4.4,4,4.9V60c-1.1,0-2-0.9-2-2V47c0-1.7-1.3-3-3-3
			c-0.8,0-1.5,0.3-2,0.8c-0.5-0.5-1.2-0.8-2-0.8s-1.5,0.3-2,0.8c-0.5-0.5-1.2-0.8-2-0.8c-1.7,0-3,1.3-3,3v13c0,7.7,6.3,14,14,14h2v8
			c0,1.1-0.9,2-2,2h-8v21.4l7.4-7.4h2.6c5.4,0,10.3-3.1,12.6-8H444c1.1,0,2,0.9,2,2v8H467.4z M448,62c2.2,0,4-1.8,4-4V47
			c0-0.6,0.4-1,1-1s1,0.4,1,1c0,0.6,0.4,1,1,1s1-0.4,1-1c0-0.6,0.4-1,1-1s1,0.4,1,1c0,0.6,0.4,1,1,1s1-0.4,1-1c0-0.6,0.4-1,1-1
			s1,0.4,1,1v13c0,6.6-5.4,12-12,12h-2V62z M448,28.2c1.2,0.4,2,1.5,2,2.8s-0.8,2.4-2,2.8V28.2z M410,31c0-1.3,0.8-2.4,2-2.8v5.7
			C410.8,33.4,410,32.3,410,31z M444,88h-20.7l-0.3,0.6c-1.9,4.5-6.2,7.4-11.1,7.4h-3.4l-4.6,4.6V86h6c2.2,0,4-1.8,4-4V72h-4
			c-6.6,0-12-5.4-12-12V47c0-0.6,0.4-1,1-1s1,0.4,1,1c0,0.6,0.4,1,1,1s1-0.4,1-1c0-0.6,0.4-1,1-1s1,0.4,1,1c0,0.6,0.4,1,1,1
			s1-0.4,1-1c0-0.6,0.4-1,1-1s1,0.4,1,1v11c0,2.2,1.8,4,4,4h2V20c0-6.4,3.6-10,10-10h12c6.4,0,10,3.6,10,10v16h-24c-3.3,0-6,2.7-6,6
			s2.7,6,6,6h24v30l0.9,0.1c6.2,0.5,11.1,5.7,11.1,12v3.4l4.6,4.6H448v-6C448,89.8,446.2,88,444,88z"/>
	</g>
</g>
<g id="Martian">
	<path fill="#9FA628" d="M28,47c-2.8,0-5-2.2-5-5s2.2-5,5-5h25V20c0-7-3.9-11-11-11H30c-7.1,0-11,4-11,11v62c0,1.7-1.3,3-3,3H9v18
		l6-6h3c5.4,0,10-3.3,12-8h20c1.7,0,3,1.3,3,3v7h18l-6-6v-3c0-6.8-5.3-12.4-12-12.9V75h24l-5-4l6-2l-6-2l5-4H53v-4h24l-5-4l6-2l-6-2
		l5-4H28z"/>
	<g>
		<circle fill="#FFFFFF" cx="30" cy="29" r="4"/>
		<circle fill="#FFFFFF" cx="42" cy="29" r="4"/>
	</g>
	<g>
		<circle fill="#BF6C35" cx="30" cy="29" r="2"/>
		<circle fill="#BF6C35" cx="42" cy="29" r="2"/>
	</g>
	<g>
		<polygon fill="#E2CBB5" points="19,78 19,68 10,73 		"/>
		<polygon fill="#E2CBB5" points="19,68 19,58 10,63 		"/>
		<polygon fill="#E2CBB5" points="19,58 19,48 10,53 		"/>
		<polygon fill="#E2CBB5" points="10,43 19,48 19,38 		"/>
	</g>
	<g>
		<path fill="#663F4C" d="M53,46l-2-4l-2,4h-2l-2-4l-2,4h-2l-2-4l-2,4h-2l-2-4l-2,4h-2l-2-4l-1.5,3.1C24.6,44.3,24,43.2,24,42
			c0-1.9,1.3-3.5,3.1-3.9L29,42l2-4h2l2,4l2-4h2l2,4l2-4h2l2,4l2-4h5V20c0-3.4-0.9-6.1-2.5-8.1l2.6-2.6C55,9.7,55.9,10,57,10
			c0.6,0,1-0.4,1-1s-0.4-1-1-1c-1.9,0-3-1.1-3-3c0-0.6-0.4-1-1-1s-1,0.4-1,1c0,1.1,0.3,2,0.8,2.8l-2.6,2.6C48.1,8.9,45.4,8,42,8H30
			c-3.4,0-6.1,0.9-8.1,2.5l-2.6-2.6C19.7,7,20,6.1,20,5c0-0.6-0.4-1-1-1s-1,0.4-1,1c0,1.9-1.1,3-3,3c-0.6,0-1,0.4-1,1s0.4,1,1,1
			c1.1,0,2-0.3,2.8-0.8l2.6,2.6c-1.6,2-2.5,4.7-2.5,8.1v17.4L7.9,43l9,5l-9,5l9,5l-9,5l9,5l-9,5L18,78.6V82c0,1.1-0.9,2-2,2H8v21.4
			l7.4-7.4H18c5.4,0,10.3-3.1,12.6-8H50c1.1,0,2,0.9,2,2v8h21.4L66,92.6V90c0-7-5.2-12.9-12-13.8V76h25.9l-5.8-4.6l7.1-2.4l-7.1-2.4
			l5.8-4.6H54v-2h25.9l-5.8-4.6l7.1-2.4l-7.1-2.4l5.8-4.6H53z M54,48h20.1l-4.2,3.4l4.9,1.6l-4.9,1.6l4.2,3.4H54V48z M18,39.7v6.6
			L12.1,43L18,39.7z M18,49.7v6.6L12.1,53L18,49.7z M18,59.7v6.6L12.1,63L18,59.7z M12.1,73l5.9-3.3v6.6L12.1,73z M20,20
			c0-6.4,3.6-10,10-10h12c6.4,0,10,3.6,10,10v16H28c-3.3,0-6,2.7-6,6s2.7,6,6,6h24v16h22.1l-4.2,3.4l4.9,1.6l-4.9,1.6l4.2,3.4H52v4
			l0.9,0.1C59.1,78.5,64,83.8,64,90v3.4l4.6,4.6H54v-6c0-2.2-1.8-4-4-4H29.3l-0.3,0.6C27.2,93.1,22.9,96,18,96h-3.4l-4.6,4.6V86h6
			c2.2,0,4-1.8,4-4V20z"/>
		<path fill="#663F4C" d="M30,33.9c2.7,0,4.9-2.2,4.9-4.9s-2.2-4.9-4.9-4.9s-4.9,2.2-4.9,4.9S27.3,33.9,30,33.9z M30,25.9
			c1.7,0,3.1,1.4,3.1,3.1s-1.4,3.1-3.1,3.1s-3.1-1.4-3.1-3.1S28.3,25.9,30,25.9z"/>
		<path fill="#663F4C" d="M42,33.9c2.7,0,4.9-2.2,4.9-4.9s-2.2-4.9-4.9-4.9s-4.9,2.2-4.9,4.9S39.3,33.9,42,33.9z M42,25.9
			c1.7,0,3.1,1.4,3.1,3.1s-1.4,3.1-3.1,3.1s-3.1-1.4-3.1-3.1S40.3,25.9,42,25.9z"/>
	</g>
</g>
<g id="Evil-Martians">
	<rect x="142" y="36" fill="#583345" width="8" height="48"/>
	<polygon fill="#583345" points="172,84 172,77 160,77 160,36 152,36 152,84 	"/>
	<path fill="#583345" d="M126,84c7.7,0,14-6.3,14-14V36h-8v35c0,3.3-2.7,6-6,6h-2V36h-8v48H126z"/>
	<path fill="#583345" d="M238,36c-7.7,0-14,6.3-14,14v34h8V67h8v17h8V36H238z M232,60V49c0-3.3,2.7-6,6-6h2v17H232z"/>
	<path fill="#583345" d="M274,50c0-7.7-6.3-14-14-14h-10v48h8V67h2c3.3,0,6,2.7,6,6v11h8V74c0-4.5-2.2-8.2-5.5-10.5
		c3.4-2.3,5.5-6,5.5-10.5V50z M266,54c0,3.3-2.7,6-6,6h-2V43h2c3.3,0,6,2.7,6,6V54z"/>
	<path fill="#583345" d="M322,36c-7.7,0-14,6.3-14,14v34h8V68h8v16h8V36H322z M316,61V49c0-3.3,2.7-6,6-6h2v18H316z"/>
	<polygon fill="#583345" points="296,36 276,36 276,43 282,43 282,84 290,84 290,43 296,43 	"/>
	<rect x="298" y="36" fill="#583345" width="8" height="48"/>
	<path fill="#583345" d="M206,49c0-3.3,2.7-6,6-6h2v41h8V36h-10c-3.9,0-7.5,2.1-10,5.2c-2.5-3.1-6.1-5.2-10-5.2h-10v48h8V43h2
		c3.3,0,6,2.7,6,6v35h8V49z"/>
	<path fill="#583345" d="M350,84h8V36h-8v5.6c-3-3.5-7.2-5.6-12-5.6h-4v48h8V44.7c4.1,1.7,8,6.5,8,11.3V84z"/>
	<path fill="#583345" d="M92,36v34c0,7.7,6.3,14,14,14h8v-7h-8c-3.3,0-6-2.7-6-6V59h12v-7h-12v-9h14v-7H92z"/>
	<path fill="#583345" d="M384,52v-4c0-9-4.3-13-12-13s-12,5.3-12,13c0,15,16,15.1,16,24v1c0,3-1,5-4,5c-3,0-4-2-4-5v-5h-8v4
		c0,9.1,4.3,13,12,13s12-5.3,12-13c0-14.9-16-15-16-24v-1c0-3,1-5,4-5c3,0,4,2,4,5v5H384z"/>
</g>
<g id="Sponcored-by">
	<path fill="#583345" d="M181.2,20.3c-2.3,0-4-0.8-5-1.8l1.5-1.7c0.9,0.8,2,1.3,3.4,1.3c1.2,0,2.1-0.6,2.1-1.5
		c0-0.9-0.5-1.3-2.2-1.8c-2.9-0.9-4-2-4-3.9c0-2.3,2.1-3.6,4.7-3.6c1.9,0,3.4,0.6,4.4,1.6l-1.4,1.6c-0.8-0.7-1.8-1-2.8-1
		c-1.1,0-1.9,0.4-1.9,1.2c0,0.8,0.6,1.1,2.5,1.7c2.4,0.8,3.8,1.7,3.8,4C186.2,18.7,184.3,20.3,181.2,20.3z"/>
	<path fill="#583345" d="M190.9,19.3v4.4L188,24V10.4h2.6l0.1,1.1c0.8-1,1.7-1.4,2.6-1.4c2.5,0,3.5,2,3.5,5.1c0,3-1.4,5.1-3.7,5.1
		C192.3,20.3,191.5,20,190.9,19.3z M193.9,15.2c0-2.4-0.5-3-1.5-3c-0.6,0-1.1,0.4-1.5,1.1v4c0.4,0.6,0.8,0.8,1.4,0.8
		C193.3,18.2,193.9,17.4,193.9,15.2z"/>
	<path fill="#583345" d="M207.7,15.2c0,3.2-1.7,5.1-4.7,5.1c-2.9,0-4.7-1.9-4.7-5.1c0-3,1.7-5.1,4.7-5.1
		C206,10.1,207.7,12.1,207.7,15.2z M201.3,15.2c0,2.1,0.5,3,1.7,3s1.7-0.9,1.7-3c0-2.1-0.5-3-1.7-3S201.3,13.1,201.3,15.2z"/>
	<path fill="#583345" d="M209.6,20v-9.6h2.5l0.2,1.1c0.8-1,1.8-1.4,3-1.4c1.7,0,2.6,1,2.6,2.9v7h-2.9v-6.2c0-1.2-0.2-1.5-0.9-1.5
		c-0.6,0-1.1,0.4-1.7,1.2V20H209.6z"/>
	<path fill="#583345" d="M225.8,17.4c0-0.6-0.4-0.8-2.3-1.4c-1.7-0.5-3-1.3-3-3c0-1.7,1.5-3,4.2-3c1.6,0,3,0.5,3.8,1.1l-1.2,1.7
		c-0.7-0.5-1.6-0.7-2.6-0.7s-1.4,0.2-1.4,0.7c0,0.5,0.4,0.7,2.3,1.2c1.9,0.5,3.1,1.2,3.1,3c0,2.1-2.1,3.2-4.5,3.2
		c-1.9,0-3.3-0.5-4.3-1.4l1.4-1.6c0.7,0.6,1.7,0.9,2.8,0.9C225.1,18.3,225.8,18,225.8,17.4z"/>
	<path fill="#583345" d="M240.1,15.2c0,3.2-1.7,5.1-4.7,5.1c-2.9,0-4.7-1.9-4.7-5.1c0-3,1.7-5.1,4.7-5.1
		C238.4,10.1,240.1,12.1,240.1,15.2z M233.7,15.2c0,2.1,0.5,3,1.7,3s1.7-0.9,1.7-3c0-2.1-0.5-3-1.7-3S233.7,13.1,233.7,15.2z"/>
	<path fill="#583345" d="M249.4,20h-7.3v-2h2v-5.6h-2v-2h4.5l0.2,1.8c0.4-1.3,1.5-2.1,2.6-2.1c0.5,0,0.8,0.1,1.2,0.2l-0.5,2.8
		c-0.4-0.1-0.7-0.1-1.1-0.1c-1.2,0-1.9,1-2.2,2.2V18h2.4V20z"/>
	<path fill="#583345" d="M255.3,16.1c0.2,1.5,1.1,2.2,2.3,2.2c0.8,0,1.6-0.3,2.4-0.9l1.2,1.6c-0.9,0.7-2.3,1.3-3.8,1.3
		c-3.3,0-5-2.1-5-5.1c0-2.8,1.7-5.1,4.6-5.1c2.8,0,4.5,1.8,4.5,4.9c0,0.3,0,0.7-0.1,1H255.3z M255.3,14.3h3.5c0-1.3-0.5-2.3-1.7-2.3
		C256.1,12,255.4,12.7,255.3,14.3z"/>
	<path fill="#583345" d="M269.1,11V6.3l2.9,0.3V20h-2.6l-0.1-1c-0.5,0.7-1.4,1.3-2.6,1.3c-2.4,0-3.5-2-3.5-5.1c0-3,1.5-5.1,3.8-5.1
		C267.8,10.1,268.5,10.4,269.1,11z M266.1,15.2c0,2.4,0.6,3,1.5,3c0.6,0,1.1-0.4,1.5-1.1V13c-0.4-0.5-0.8-0.8-1.4-0.8
		C266.7,12.2,266.1,13.1,266.1,15.2z"/>
	<path fill="#583345" d="M287,11.4c0.6-0.8,1.5-1.3,2.4-1.3c2.5,0,3.5,2,3.5,5.1c0,3-1.3,5.1-3.8,5.1c-1,0-1.8-0.4-2.4-1.2l-0.1,0.9
		h-2.6V6.6l2.9-0.3V11.4z M290,15.2c0-2.4-0.6-3-1.5-3c-0.6,0-1.1,0.4-1.5,1.1v4c0.4,0.6,0.8,0.9,1.4,0.9
		C289.4,18.2,290,17.4,290,15.2z"/>
	<path fill="#583345" d="M294.2,10.4h3L299,18h0.1l2-7.6h3l-3.2,9.6c-0.8,2.6-2.5,3.9-5.4,4l-0.3-2c1.9-0.2,2.6-0.8,3.1-2h-1
		L294.2,10.4z"/>
</g>
</svg>
