<?xml version="1.0" encoding="utf-8"?>
<!-- Generator: Adobe Illustrator 18.1.0, SVG Export Plug-In . SVG Version: 6.00 Build 0)  -->
<!DOCTYPE svg PUBLIC "-//W3C//DTD SVG 1.1//EN" "http://www.w3.org/Graphics/SVG/1.1/DTD/svg11.dtd">
<svg version="1.1" id="Layer_1" xmlns="http://www.w3.org/2000/svg" xmlns:xlink="http://www.w3.org/1999/xlink" x="0px" y="0px"
	 viewBox="0 0 200 200" enable-background="new 0 0 200 200" xml:space="preserve">
<linearGradient id="SVGID_1_" gradientUnits="userSpaceOnUse" x1="99.9998" y1="140.9297" x2="99.9998" y2="29.0703">
	<stop  offset="0" style="stop-color:#000000"/>
	<stop  offset="1" style="stop-color:#000000;stop-opacity:0.7"/>
</linearGradient>
<path fill="url(#SVGID_1_)" d="M150.7,69.3l-30-30c-0.3-0.3-0.8-0.4-1.1-0.2c-0.4,0.2-0.5,0.6-0.4,1L127,72l-6.2-12.4
	c-0.1-0.1-0.2-0.2-0.3-0.3l-40-30c-0.3-0.2-0.7-0.2-1-0.1c-0.3,0.2-0.5,0.5-0.5,0.8v19.8l-8.1,16.3V50c0-0.4-0.3-0.8-0.7-0.9
	c-0.4-0.1-0.8,0-1,0.4l-20,30c-0.1,0.2-0.2,0.3-0.2,0.5v30c0,0.1,0,0.2,0,0.3l10,30c0.1,0.4,0.6,0.7,1,0.6c0.5-0.1,0.8-0.5,0.8-0.9
	v-29.3l27.2-9.1l-9,18c-0.2,0.3-0.1,0.7,0.1,1c0.2,0.3,0.6,0.4,0.9,0.4l58.9-9.8V140c0,0.5,0.3,0.8,0.8,0.9c0.1,0,0.1,0,0.2,0
	c0.4,0,0.8-0.3,0.9-0.6l10-30c0-0.1,0-0.2,0-0.3V70C150.9,69.8,150.8,69.5,150.7,69.3z M121.7,43l27.2,27.2l-9.1,18.2l-8.9-8.9
	L121.7,43z M90.1,98.5l-18-27.1l36.1,9L90.1,98.5z M80.9,33.4L105.3,74L80.9,49.6V33.4z M109.9,78.1L83.2,33.6l35.6,26.7L109.9,78.1
	z M80.3,51.6L107,78.3l-35.6-8.9L80.3,51.6z M69.1,69.9l-9.2,36.8L51,80.1l18-27.1V69.9z M50.9,109.8V85.7l8.1,24.4v24.1L50.9,109.8
	z M61.3,108.6l9.1-36.3l18.1,27.2L61.3,108.6z M90.7,100.6l19.9-19.9c0,0,0-0.1,0.1-0.1c0,0,0,0,0,0c0,0,0-0.1,0-0.1c0,0,0,0,0-0.1
	l9.2-18.3l8.8,17.7l-46.1,36.9L90.7,100.6z M83.4,118.5l46.6-37.2l9.1,9.1v18.8L83.4,118.5z M140.9,134.3V110V90.2l8.1-16.3v35.9
	L140.9,134.3z"/>
<path d="M120.4,161.7l11.7-35.2L108.7,150L120.4,161.7z M119.6,158.3l-8.3-8.3l16.6-16.6L119.6,158.3z"/>
<path d="M79.6,161.7L91.3,150l-23.4-23.4L79.6,161.7z M80.4,158.3l-8.3-24.8L88.7,150L80.4,158.3z"/>
</svg>
