<?xml version="1.0" encoding="utf-8"?>
<!-- Generator: Adobe Illustrator 18.1.0, SVG Export Plug-In . SVG Version: 6.00 Build 0)  -->
<!DOCTYPE svg PUBLIC "-//W3C//DTD SVG 1.1//EN" "http://www.w3.org/Graphics/SVG/1.1/DTD/svg11.dtd">
<svg version="1.1" xmlns="http://www.w3.org/2000/svg" xmlns:xlink="http://www.w3.org/1999/xlink" x="0px" y="0px"
	 viewBox="0 0 50 50" enable-background="new 0 0 50 50" xml:space="preserve">
<g id="Grids" display="none">
	<g display="inline">
		<g id="Grid_4x4_85_">
			<rect x="-4" y="-4" opacity="0.2" fill="#FF00FF" width="4" height="4"/>
		</g>
		<g id="Grid_4x4_84_">
			<rect x="4" y="-4" opacity="0.2" fill="#FF00FF" width="4" height="4"/>
			<rect x="12" y="-4" opacity="0.2" fill="#FF00FF" width="4" height="4"/>
			<rect x="20" y="-4" opacity="0.2" fill="#FF00FF" width="4" height="4"/>
			<rect x="30" y="-4" opacity="0.2" fill="#FF00FF" width="4" height="4"/>
			<rect x="38" y="-4" opacity="0.2" fill="#FF00FF" width="4" height="4"/>
			<rect x="46" y="-4" opacity="0.2" fill="#FF00FF" width="4" height="4"/>
		</g>
		<g id="Grid_4x4_83_">
		</g>
	</g>
	<g display="inline">
		<g id="Grid_4x4_77_">
			<rect x="-4" y="4" opacity="0.2" fill="#FF00FF" width="4" height="4"/>
			<rect x="-4" y="12" opacity="0.2" fill="#FF00FF" width="4" height="4"/>
			<rect x="-4" y="20" opacity="0.2" fill="#FF00FF" width="4" height="4"/>
			<rect x="-4" y="30" opacity="0.2" fill="#FF00FF" width="4" height="4"/>
			<rect x="-4" y="38" opacity="0.2" fill="#FF00FF" width="4" height="4"/>
			<rect x="-4" y="46" opacity="0.2" fill="#FF00FF" width="4" height="4"/>
		</g>
		<g id="Grid_4x4_76_">
			<rect opacity="0.2" fill="#FF00FF" width="4" height="4"/>
			<rect x="4" y="4" opacity="0.2" fill="#FF00FF" width="4" height="4"/>
			<rect x="8" opacity="0.2" fill="#FF00FF" width="4" height="4"/>
			<rect x="12" y="4" opacity="0.2" fill="#FF00FF" width="4" height="4"/>
			<rect x="16" opacity="0.2" fill="#FF00FF" width="4" height="4"/>
			<rect x="20" y="4" opacity="0.2" fill="#FF00FF" width="4" height="4"/>
			<rect x="26" opacity="0.2" fill="#FF00FF" width="4" height="4"/>
			<rect x="30" y="4" opacity="0.2" fill="#FF00FF" width="4" height="4"/>
			<rect y="8" opacity="0.2" fill="#FF00FF" width="4" height="4"/>
			<rect x="4" y="12" opacity="0.2" fill="#FF00FF" width="4" height="4"/>
			<rect x="20" y="14" opacity="0.2" fill="#FF00FF" width="4" height="2"/>
			<rect x="30" y="14" opacity="0.2" fill="#FF00FF" width="4" height="2"/>
			<rect y="16" opacity="0.2" fill="#FF00FF" width="4" height="4"/>
			<rect x="4" y="20" opacity="0.2" fill="#FF00FF" width="4" height="4"/>
			<rect x="14" y="20" opacity="0.2" fill="#FF00FF" width="2" height="4"/>
			<rect x="16" y="16" opacity="0.2" fill="#FF00FF" width="4" height="4"/>
			<rect x="20" y="20" opacity="0.2" fill="#FF00FF" width="4" height="4"/>
			<rect x="26" y="16" opacity="0.2" fill="#FF00FF" width="4" height="4"/>
			<rect x="30" y="20" opacity="0.2" fill="#FF00FF" width="4" height="4"/>
			<rect y="26" opacity="0.2" fill="#FF00FF" width="4" height="4"/>
			<rect x="4" y="30" opacity="0.2" fill="#FF00FF" width="4" height="4"/>
			<rect x="14" y="30" opacity="0.2" fill="#FF00FF" width="2" height="4"/>
			<rect x="16" y="26" opacity="0.2" fill="#FF00FF" width="4" height="4"/>
			<rect x="20" y="30" opacity="0.2" fill="#FF00FF" width="4" height="4"/>
			<rect x="26" y="26" opacity="0.2" fill="#FF00FF" width="4" height="4"/>
			<rect x="34" opacity="0.2" fill="#FF00FF" width="4" height="4"/>
			<rect x="34" y="16" opacity="0.2" fill="#FF00FF" width="2" height="4"/>
			<rect x="34" y="26" opacity="0.2" fill="#FF00FF" width="2" height="4"/>
			<rect y="34" opacity="0.2" fill="#FF00FF" width="4" height="4"/>
			<rect x="16" y="34" opacity="0.2" fill="#FF00FF" width="4" height="2"/>
			<rect x="26" y="34" opacity="0.2" fill="#FF00FF" width="4" height="2"/>
			<rect x="30" y="30" opacity="0.2" fill="#FF00FF" width="4" height="4"/>
			<rect x="38" y="4" opacity="0.2" fill="#FF00FF" width="4" height="4"/>
			<rect x="42" opacity="0.2" fill="#FF00FF" width="4" height="4"/>
			<rect x="46" y="4" opacity="0.2" fill="#FF00FF" width="4" height="4"/>
			<rect x="42" y="8" opacity="0.2" fill="#FF00FF" width="4" height="4"/>
			<rect x="46" y="12" opacity="0.2" fill="#FF00FF" width="4" height="4"/>
			<rect x="42" y="16" opacity="0.2" fill="#FF00FF" width="4" height="4"/>
			<rect x="46" y="20" opacity="0.2" fill="#FF00FF" width="4" height="4"/>
			<rect x="42" y="26" opacity="0.2" fill="#FF00FF" width="4" height="4"/>
			<rect x="42" y="34" opacity="0.2" fill="#FF00FF" width="4" height="4"/>
			<rect x="46" y="30" opacity="0.2" fill="#FF00FF" width="4" height="4"/>
			<rect x="4" y="38" opacity="0.2" fill="#FF00FF" width="4" height="4"/>
			<rect y="42" opacity="0.2" fill="#FF00FF" width="4" height="4"/>
			<rect x="4" y="46" opacity="0.2" fill="#FF00FF" width="4" height="4"/>
			<rect x="8" y="42" opacity="0.2" fill="#FF00FF" width="4" height="4"/>
			<rect x="12" y="46" opacity="0.2" fill="#FF00FF" width="4" height="4"/>
			<rect x="16" y="42" opacity="0.2" fill="#FF00FF" width="4" height="4"/>
			<rect x="20" y="46" opacity="0.2" fill="#FF00FF" width="4" height="4"/>
			<rect x="26" y="42" opacity="0.2" fill="#FF00FF" width="4" height="4"/>
			<rect x="34" y="42" opacity="0.2" fill="#FF00FF" width="4" height="4"/>
			<rect x="30" y="46" opacity="0.2" fill="#FF00FF" width="4" height="4"/>
			<rect x="46" y="38" opacity="0.2" fill="#FF00FF" width="4" height="4"/>
			<rect x="38" y="46" opacity="0.2" fill="#FF00FF" width="4" height="4"/>
			<rect x="42" y="42" opacity="0.2" fill="#FF00FF" width="4" height="4"/>
			<rect x="26" y="6" opacity="0.2" fill="#FF00FF" width="2" height="2"/>
			<rect x="22" y="42" opacity="0.2" fill="#FF00FF" width="2" height="2"/>
			<rect x="6" y="26" opacity="0.2" fill="#FF00FF" width="2" height="2"/>
			<rect x="42" y="22" opacity="0.2" fill="#FF00FF" width="2" height="2"/>
			<rect x="26" y="22" opacity="0.2" fill="#FF00FF" width="2" height="2"/>
			<rect x="14" y="14" opacity="0.2" fill="#FF00FF" width="2" height="2"/>
			<rect x="34" y="34" opacity="0.2" fill="#FF00FF" width="2" height="2"/>
			<rect x="22" y="26" opacity="0.2" fill="#FF00FF" width="2" height="2"/>
			<rect x="46" y="46" opacity="0.2" fill="#FF00FF" width="4" height="4"/>
			<path opacity="0.2" fill="#FF00FF" d="M40,40H10V10h30V40z M12,38h26V12H12V38z"/>
		</g>
		<g id="Grid_4x4_75_">
			<rect x="50" opacity="0.2" fill="#FF00FF" width="4" height="4"/>
			<rect x="50" y="8" opacity="0.2" fill="#FF00FF" width="4" height="4"/>
			<rect x="50" y="16" opacity="0.2" fill="#FF00FF" width="4" height="4"/>
			<rect x="50" y="26" opacity="0.2" fill="#FF00FF" width="4" height="4"/>
			<rect x="50" y="34" opacity="0.2" fill="#FF00FF" width="4" height="4"/>
			<rect x="50" y="42" opacity="0.2" fill="#FF00FF" width="4" height="4"/>
		</g>
	</g>
	<g display="inline">
		<g id="Grid_4x4_69_">
		</g>
		<g id="Grid_4x4_68_">
			<rect y="50" opacity="0.2" fill="#FF00FF" width="4" height="4"/>
			<rect x="8" y="50" opacity="0.2" fill="#FF00FF" width="4" height="4"/>
			<rect x="16" y="50" opacity="0.2" fill="#FF00FF" width="4" height="4"/>
			<rect x="26" y="50" opacity="0.2" fill="#FF00FF" width="4" height="4"/>
			<rect x="34" y="50" opacity="0.2" fill="#FF00FF" width="4" height="4"/>
			<rect x="42" y="50" opacity="0.2" fill="#FF00FF" width="4" height="4"/>
		</g>
		<g id="Grid_4x4_67_">
			<rect x="50" y="50" opacity="0.2" fill="#FF00FF" width="4" height="4"/>
		</g>
	</g>
</g>
<g id="Icons">
	<g>
		<path d="M25,33.9c-4.9,0-8.9-4-8.9-8.9s4-8.9,8.9-8.9s8.9,4,8.9,8.9S29.9,33.9,25,33.9z M25,17.9c-3.9,0-7.1,3.2-7.1,7.1
			s3.2,7.1,7.1,7.1s7.1-3.2,7.1-7.1S28.9,17.9,25,17.9z"/>
		<path d="M27.7,43.9h-5.3l-1.5-4.6c-1-0.3-2-0.7-2.9-1.2l-4.4,2.2l-3.8-3.8l2.2-4.4c-0.5-0.9-0.9-1.9-1.2-2.9l-4.6-1.5v-5.3
			l4.6-1.5c0.3-1,0.7-2,1.2-2.9l-2.2-4.4l3.8-3.8l4.4,2.2c0.9-0.5,1.9-0.9,2.9-1.2l1.5-4.6h5.3l1.5,4.6c1,0.3,2,0.7,2.9,1.2l4.4-2.2
			l3.8,3.8l-2.2,4.4c0.5,0.9,0.9,1.9,1.2,2.9l4.6,1.5v5.3l-4.6,1.5c-0.3,1-0.7,2-1.2,2.9l2.2,4.4l-3.8,3.8l-4.4-2.2
			c-0.9,0.5-1.9,0.9-2.9,1.2L27.7,43.9z M23.7,42.1h2.7l1.4-4.3l0.5-0.1c1.2-0.3,2.3-0.8,3.4-1.4l0.4-0.3l4.1,2l1.9-1.9l-2-4.1
			l0.3-0.4c0.6-1.1,1.1-2.2,1.4-3.4l0.1-0.5l4.3-1.4v-2.7l-4.3-1.4l-0.1-0.5c-0.3-1.2-0.8-2.3-1.4-3.4L36,17.9l2-4.1L36.1,12l-4.1,2
			l-0.4-0.3c-1.1-0.6-2.2-1.1-3.4-1.4l-0.5-0.1l-1.4-4.3h-2.7l-1.4,4.3l-0.5,0.1c-1.2,0.3-2.3,0.8-3.4,1.4L17.9,14l-4.1-2L12,13.9
			l2,4.1l-0.3,0.4c-0.6,1.1-1.1,2.2-1.4,3.4l-0.1,0.5l-4.3,1.4v2.7l4.3,1.4l0.1,0.5c0.3,1.2,0.8,2.3,1.4,3.4l0.3,0.4l-2,4.1l1.9,1.9
			l4.1-2l0.4,0.3c1.1,0.6,2.2,1.1,3.4,1.4l0.5,0.1L23.7,42.1z"/>
	</g>
</g>
<g id="Guides">
</g>
</svg>
