<svg xmlns="http://www.w3.org/2000/svg" viewBox="0 0 50 50"><path d="M35 34H13c-.3 0-.6-.2-.8-.4s-.2-.6-.1-.9l1.9-4.8L12.1 10H6V8h7c.5 0 .9.4 1 .9l2 19c0 .2 0 .3-.1.5L14.5 32H36l-1 2z"/><path d="M15.2 29l-.4-2L38 22.2V14H14v-2h25c.6 0 1 .4 1 1v10c0 .5-.3.9-.8 1l-24 5z"/><path d="M36 40c-2.2 0-4-1.8-4-4s1.8-4 4-4 4 1.8 4 4-1.8 4-4 4zm0-6c-1.1 0-2 .9-2 2s.9 2 2 2 2-.9 2-2-.9-2-2-2z"/><path d="M12 40c-2.2 0-4-1.8-4-4s1.8-4 4-4 4 1.8 4 4-1.8 4-4 4zm0-6c-1.1 0-2 .9-2 2s.9 2 2 2 2-.9 2-2-.9-2-2-2z"/></svg>