<?xml version="1.0" encoding="utf-8"?>
<!-- Generator: Adobe Illustrator 18.1.1, SVG Export Plug-In . SVG Version: 6.00 Build 0)  -->
<!DOCTYPE svg PUBLIC "-//W3C//DTD SVG 1.1//EN" "http://www.w3.org/Graphics/SVG/1.1/DTD/svg11.dtd">
<svg version="1.1" id="Layer_1" xmlns="http://www.w3.org/2000/svg" xmlns:xlink="http://www.w3.org/1999/xlink" x="0px" y="0px"
	 viewBox="0 0 50 50" enable-background="new 0 0 50 50" xml:space="preserve">
<path d="M39,38H11c-1.7,0-3-1.3-3-3V17c0-1.7,1.3-3,3-3h6c0.2,0,0.5-0.2,0.6-0.3l1.1-2.2c0.4-0.8,1.4-1.4,2.3-1.4h8
	c0.9,0,1.9,0.6,2.3,1.4l1.1,2.2c0.1,0.2,0.4,0.3,0.6,0.3h6c1.7,0,3,1.3,3,3v18C42,36.7,40.7,38,39,38z M11,16c-0.6,0-1,0.4-1,1v18
	c0,0.6,0.4,1,1,1h28c0.6,0,1-0.4,1-1V17c0-0.6-0.4-1-1-1h-6c-0.9,0-1.9-0.6-2.3-1.4l-1.1-2.2C29.5,12.2,29.2,12,29,12h-8
	c-0.2,0-0.5,0.2-0.6,0.3l-1.1,2.2C18.9,15.4,17.9,16,17,16H11z"/>
<path d="M25,34c-5,0-9-4-9-9s4-9,9-9s9,4,9,9S30,34,25,34z M25,18c-3.9,0-7,3.1-7,7s3.1,7,7,7s7-3.1,7-7S28.9,18,25,18z"/>
<circle cx="35" cy="18" r="1"/>
<rect x="12" y="12" width="4" height="1"/>
<path d="M25,21v-1c-2.8,0-5,2.2-5,5h1C21,22.8,22.8,21,25,21z"/>
</svg>
