<svg xmlns="http://www.w3.org/2000/svg" viewBox="0 0 50 50"><path d="M25 34c-5 0-9-4-9-9s4-9 9-9 9 4 9 9-4 9-9 9zm0-16c-3.9 0-7 3.1-7 7s3.1 7 7 7 7-3.1 7-7-3.1-7-7-7z"/><path d="M27.7 44h-5.4l-1.5-4.6c-1-.3-2-.7-2.9-1.2l-4.4 2.2-3.8-3.8 2.2-4.4c-.5-.9-.9-1.9-1.2-2.9L6 27.7v-5.4l4.6-1.5c.3-1 .7-2 1.2-2.9l-2.2-4.4 3.8-3.8 4.4 2.2c.9-.5 1.9-.9 2.9-1.2L22.3 6h5.4l1.5 4.6c1 .3 2 .7 2.9 1.2l4.4-2.2 3.8 3.8-2.2 4.4c.5.9.9 1.9 1.2 2.9l4.6 1.5v5.4l-4.6 1.5c-.3 1-.7 2-1.2 2.9l2.2 4.4-3.8 3.8-4.4-2.2c-.9.5-1.9.9-2.9 1.2L27.7 44zm-4-2h2.6l1.4-4.3.5-.1c1.2-.3 2.3-.8 3.4-1.4l.5-.3 4 2 1.8-1.8-2-4 .3-.5c.6-1 1.1-2.2 1.4-3.4l.1-.5 4.3-1.4v-2.6l-4.3-1.4-.1-.5c-.3-1.2-.8-2.3-1.4-3.4l-.3-.5 2-4-1.8-1.8-4 2-.5-.3c-1.1-.6-2.2-1.1-3.4-1.4l-.5-.1L26.3 8h-2.6l-1.4 4.3-.5.1c-1.2.3-2.3.8-3.4 1.4l-.5.3-4-2-1.8 1.8 2 4-.3.5c-.6 1-1.1 2.2-1.4 3.4l-.1.5L8 23.7v2.6l4.3 1.4.1.5c.3 1.2.8 2.3 1.4 3.4l.3.5-2 4 1.8 1.8 4-2 .5.3c1.1.6 2.2 1.1 3.4 1.4l.5.1 1.4 4.3z"/></svg>