<svg width="50" height="50" viewBox="0 0 50 50" xmlns="http://www.w3.org/2000/svg"><title>ei-sc-instagram</title><g fill-rule="evenodd"><path d="M25 12c-3.53 0-3.973.015-5.36.078-1.384.063-2.329.283-3.156.604a6.372 6.372 0 0 0-2.302 1.5 6.372 6.372 0 0 0-1.5 2.303c-.321.826-.54 1.771-.604 3.155C12.015 21.027 12 21.47 12 25c0 3.53.015 3.973.078 5.36.063 1.384.283 2.329.604 3.155.333.855.777 1.58 1.5 2.303a6.372 6.372 0 0 0 2.302 1.5c.827.32 1.772.54 3.156.604 1.387.063 1.83.078 5.36.078 3.53 0 3.973-.015 5.36-.078 1.384-.063 2.329-.283 3.155-.604a6.371 6.371 0 0 0 2.303-1.5 6.372 6.372 0 0 0 1.5-2.303c.32-.826.54-1.771.604-3.155.063-1.387.078-1.83.078-5.36 0-3.53-.015-3.973-.078-5.36-.063-1.384-.283-2.329-.605-3.155a6.372 6.372 0 0 0-1.499-2.303 6.371 6.371 0 0 0-2.303-1.5c-.826-.32-1.771-.54-3.155-.604C28.973 12.015 28.53 12 25 12m0 2.342c3.471 0 3.882.014 5.253.076 1.267.058 1.956.27 2.414.448.607.236 1.04.517 1.495.972.455.455.736.888.972 1.495.178.458.39 1.146.448 2.414.062 1.37.076 1.782.076 5.253s-.014 3.882-.076 5.253c-.058 1.268-.27 1.956-.448 2.414a4.028 4.028 0 0 1-.972 1.495 4.027 4.027 0 0 1-1.495.972c-.458.178-1.147.39-2.414.448-1.37.062-1.782.076-5.253.076s-3.883-.014-5.253-.076c-1.268-.058-1.956-.27-2.414-.448a4.027 4.027 0 0 1-1.495-.972 4.03 4.03 0 0 1-.972-1.495c-.178-.458-.39-1.146-.448-2.414-.062-1.37-.076-1.782-.076-5.253s.014-3.882.076-5.253c.058-1.268.27-1.956.448-2.414.236-.607.517-1.04.972-1.495a4.028 4.028 0 0 1 1.495-.972c.458-.178 1.146-.39 2.414-.448 1.37-.062 1.782-.076 5.253-.076"/><path d="M25 18a7 7 0 1 0 0 14 7 7 0 0 0 0-14m0 11.5a4.5 4.5 0 1 1 0-9 4.5 4.5 0 0 1 0 9m8.7-11.4a1.6 1.6 0 1 1-3.2 0 1.6 1.6 0 0 1 3.2 0"/></g></svg>