<?xml version="1.0" encoding="utf-8"?>
<!-- Generator: Adobe Illustrator 18.1.1, SVG Export Plug-In . SVG Version: 6.00 Build 0)  -->
<!DOCTYPE svg PUBLIC "-//W3C//DTD SVG 1.1//EN" "http://www.w3.org/Graphics/SVG/1.1/DTD/svg11.dtd">
<svg version="1.1" id="Layer_1" xmlns="http://www.w3.org/2000/svg" xmlns:xlink="http://www.w3.org/1999/xlink" x="0px" y="0px"
	 viewBox="0 0 50 50" enable-background="new 0 0 50 50" xml:space="preserve">
<path d="M38,19.6c-0.1,2.7-2,6.4-5.6,11.1c-3.8,4.9-7,7.4-9.6,7.4c-1.6,0-3-1.5-4.1-4.5c-0.7-2.7-1.5-5.5-2.2-8.2
	c-0.8-3-1.7-4.5-2.7-4.5c-0.2,0-0.9,0.4-2.2,1.3l-1.3-1.7c1.4-1.2,2.7-2.4,4-3.6c1.8-1.6,3.2-2.4,4.1-2.5c2.2-0.2,3.5,1.3,4,4.4
	c0.5,3.4,0.9,5.5,1.1,6.4c0.6,2.8,1.3,4.2,2.1,4.2c0.6,0,1.5-0.9,2.6-2.8c1.2-1.8,1.8-3.2,1.9-4.2c0.2-1.6-0.5-2.4-1.9-2.4
	c-0.7,0-1.3,0.2-2,0.5c1.4-4.5,4-6.6,7.8-6.5C36.8,14.1,38.2,15.9,38,19.6z"/>
</svg>
