<?xml version="1.0" encoding="utf-8"?>
<!-- Generator: Adobe Illustrator 18.1.1, SVG Export Plug-In . SVG Version: 6.00 Build 0)  -->
<!DOCTYPE svg PUBLIC "-//W3C//DTD SVG 1.1//EN" "http://www.w3.org/Graphics/SVG/1.1/DTD/svg11.dtd">
<svg version="1.1" id="Layer_1" xmlns="http://www.w3.org/2000/svg" xmlns:xlink="http://www.w3.org/1999/xlink" x="0px" y="0px"
	 viewBox="0 0 50 50" enable-background="new 0 0 50 50" xml:space="preserve">
<path d="M40,24c-0.1,0-0.1,0-0.2,0c-0.9-4.6-5-8-9.8-8c-3.1,0-5.9,1.4-7.7,3.7C22.1,20,22,20.3,22,20.9L21.6,30l0.4,5.5
	c0,0.3,0.3,0.5,0.5,0.5H40c3.3,0,6-2.7,6-6S43.3,24,40,24z"/>
<path d="M18.9,20c-0.3,0-0.5,0.2-0.5,0.5l-0.8,9c0,0.3,0,0.7,0,1l0.8,5c0,0.3,0.3,0.5,0.6,0.5h0.2c0.3,0,0.5-0.2,0.6-0.5l0.8-5
	c0-0.3,0.1-0.7,0-1l-0.8-9c0-0.3-0.3-0.5-0.5-0.5H18.9z"/>
<path d="M14.9,21c-0.3,0-0.5,0.2-0.5,0.5l-0.8,8c0,0.3,0,0.7,0,1l0.8,5c0,0.3,0.3,0.5,0.6,0.5h0.2c0.3,0,0.5-0.2,0.6-0.5l0.8-5
	c0-0.3,0.1-0.7,0-1l-0.8-8c0-0.3-0.3-0.5-0.5-0.5H14.9z"/>
<path d="M11,24c-0.3,0-0.5,0.2-0.6,0.5l-0.8,5c0,0.3,0,0.7,0,1l0.8,5c0,0.3,0.3,0.5,0.6,0.5l0,0c0.3,0,0.5-0.2,0.6-0.5l0.8-5
	c0-0.3,0-0.7,0-1l-0.8-5C11.5,24.2,11.3,24,11,24L11,24z"/>
<path d="M7,23c-0.3,0-0.5,0.2-0.6,0.5l-0.9,6c0,0.3,0,0.7,0,1l0.8,5C6.5,35.8,6.7,36,7,36l0,0c0.3,0,0.5-0.2,0.6-0.5l0.8-5
	c0-0.3,0.1-0.7,0-1l-0.9-6C7.5,23.2,7.3,23,7,23L7,23z"/>
<path d="M3.3,26c-0.3,0-0.5,0.2-0.6,0.5l-0.6,3c-0.1,0.3-0.1,0.7,0,1l0.6,4C2.8,34.8,3,35,3.3,35l0,0c0.3,0,0.5-0.2,0.6-0.5l0.6-4
	c0-0.3,0-0.7,0-1l-0.6-3C3.8,26.2,3.6,26,3.3,26L3.3,26z"/>
</svg>
