<?xml version="1.0" encoding="utf-8"?>
<!-- Generator: Adobe Illustrator 18.1.1, SVG Export Plug-In . SVG Version: 6.00 Build 0)  -->
<!DOCTYPE svg PUBLIC "-//W3C//DTD SVG 1.1//EN" "http://www.w3.org/Graphics/SVG/1.1/DTD/svg11.dtd">
<svg version="1.1" id="Layer_1" xmlns="http://www.w3.org/2000/svg" xmlns:xlink="http://www.w3.org/1999/xlink" x="0px" y="0px"
	 viewBox="0 0 50 50" enable-background="new 0 0 50 50" xml:space="preserve">
<path d="M38,27.3c0.1-0.8,0.2-1.6,0.2-2.4c0-1.8-0.3-3.5-1-5.1c-0.7-1.6-1.6-3-2.8-4.2c-1.2-1.2-2.6-2.2-4.2-2.8
	c-1.6-0.7-3.4-1-5.1-1c-0.8,0-1.7,0.1-2.5,0.2c0,0,0,0,0,0c-1.1-0.6-2.4-0.9-3.7-0.9c-2.1,0-4.1,0.8-5.5,2.3
	c-1.5,1.5-2.3,3.4-2.3,5.5c0,1.3,0.3,2.6,1,3.8c-0.1,0.7-0.2,1.5-0.2,2.3c0,1.8,0.3,3.5,1,5.1c0.7,1.6,1.6,3,2.8,4.2
	c1.2,1.2,2.6,2.2,4.2,2.8c1.6,0.7,3.4,1,5.1,1c0.8,0,1.6-0.1,2.3-0.2c1.2,0.7,2.5,1,3.9,1c2.1,0,4.1-0.8,5.5-2.3
	c1.5-1.5,2.3-3.4,2.3-5.5C39,29.8,38.7,28.5,38,27.3z M25.1,33c-4.7,0-6.8-2.3-6.8-4c0-0.9,0.7-1.5,1.6-1.5c2,0,1.5,2.9,5.2,2.9
	c1.9,0,3-1,3-2.1c0-0.6-0.3-1.4-1.6-1.7l-4.2-1c-3.4-0.8-4-2.7-4-4.4c0-3.6,3.3-4.9,6.5-4.9c2.9,0,6.3,1.6,6.3,3.7
	c0,0.9-0.8,1.4-1.7,1.4c-1.7,0-1.4-2.4-4.9-2.4c-1.7,0-2.7,0.8-2.7,1.9c0,1.1,1.4,1.5,2.5,1.7l3.1,0.7c3.4,0.8,4.2,2.7,4.2,4.6
	C31.7,30.8,29.5,33,25.1,33z"/>
</svg>
