<?xml version="1.0" encoding="utf-8"?>
<!-- Generator: Adobe Illustrator 18.1.1, SVG Export Plug-In . SVG Version: 6.00 Build 0)  -->
<!DOCTYPE svg PUBLIC "-//W3C//DTD SVG 1.1//EN" "http://www.w3.org/Graphics/SVG/1.1/DTD/svg11.dtd">
<svg version="1.1" id="Layer_1" xmlns="http://www.w3.org/2000/svg" xmlns:xlink="http://www.w3.org/1999/xlink" x="0px" y="0px"
	 viewBox="0 0 50 50" enable-background="new 0 0 50 50" xml:space="preserve">
<g id="youtube">
	<g>
		<path d="M39.7,18.6c0,0-0.3-2.1-1.2-3c-1.1-1.2-2.4-1.2-3-1.3C31.3,14,25,14,25,14h0c0,0-6.3,0-10.5,0.3c-0.6,0.1-1.9,0.1-3,1.3
			c-0.9,0.9-1.2,3-1.2,3S10,21,10,23.4v2.2c0,2.4,0.3,4.9,0.3,4.9s0.3,2.1,1.2,3c1.1,1.2,2.6,1.2,3.3,1.3C17.2,34.9,25,35,25,35
			s6.3,0,10.5-0.3c0.6-0.1,1.9-0.1,3-1.3c0.9-0.9,1.2-3,1.2-3S40,28,40,25.6v-2.2C40,21,39.7,18.6,39.7,18.6z M21.9,28.4l0-8.4
			l8.1,4.2L21.9,28.4z"/>
	</g>
</g>
</svg>
