<svg xmlns="http://www.w3.org/2000/svg" viewBox="0 0 50 50"><path d="M25 18c-.6 0-1-.4-1-1V9c0-.6.4-1 1-1s1 .4 1 1v8c0 .6-.4 1-1 1z"/><path opacity=".3" d="M25 42c-.6 0-1-.4-1-1v-8c0-.6.4-1 1-1s1 .4 1 1v8c0 .6-.4 1-1 1z"/><path opacity=".3" d="M29 19c-.2 0-.3 0-.5-.1-.4-.3-.6-.8-.3-1.3l4-6.9c.3-.4.8-.6 1.3-.3.4.3.6.8.3 1.3l-4 6.9c-.2.2-.5.4-.8.4z"/><path opacity=".3" d="M17 39.8c-.2 0-.3 0-.5-.1-.4-.3-.6-.8-.3-1.3l4-6.9c.3-.4.8-.6 1.3-.3.4.3.6.8.3 1.3l-4 6.9c-.2.2-.5.4-.8.4z"/><path opacity=".93" d="M21 19c-.3 0-.6-.2-.8-.5l-4-6.9c-.3-.4-.1-1 .3-1.3.4-.3 1-.1 1.3.3l4 6.9c.3.4.1 1-.3 1.3-.2.2-.3.2-.5.2z"/><path opacity=".3" d="M33 39.8c-.3 0-.6-.2-.8-.5l-4-6.9c-.3-.4-.1-1 .3-1.3.4-.3 1-.1 1.3.3l4 6.9c.3.4.1 1-.3 1.3-.2.1-.3.2-.5.2z"/><path opacity=".65" d="M17 26H9c-.6 0-1-.4-1-1s.4-1 1-1h8c.6 0 1 .4 1 1s-.4 1-1 1z"/><path opacity=".3" d="M41 26h-8c-.6 0-1-.4-1-1s.4-1 1-1h8c.6 0 1 .4 1 1s-.4 1-1 1z"/><path opacity=".86" d="M18.1 21.9c-.2 0-.3 0-.5-.1l-6.9-4c-.4-.3-.6-.8-.3-1.3.3-.4.8-.6 1.3-.3l6.9 4c.4.3.6.8.3 1.3-.2.3-.5.4-.8.4z"/><path opacity=".3" d="M38.9 33.9c-.2 0-.3 0-.5-.1l-6.9-4c-.4-.3-.6-.8-.3-1.3.3-.4.8-.6 1.3-.3l6.9 4c.4.3.6.8.3 1.3-.2.3-.5.4-.8.4z"/><path opacity=".44" d="M11.1 33.9c-.3 0-.6-.2-.8-.5-.3-.4-.1-1 .3-1.3l6.9-4c.4-.3 1-.1 1.3.3.3.4.1 1-.3 1.3l-6.9 4c-.1.2-.3.2-.5.2z"/><path opacity=".3" d="M31.9 21.9c-.3 0-.6-.2-.8-.5-.3-.4-.1-1 .3-1.3l6.9-4c.4-.3 1-.1 1.3.3.3.4.1 1-.3 1.3l-6.9 4c-.2.2-.3.2-.5.2z"/></svg>