<svg xmlns="http://www.w3.org/2000/svg" viewBox="0 0 50 50"><path d="M22 40.1c-.9 0-1.7-.3-2.3-.9l-8.9-8.9c-1.2-1.2-1.2-3.3 0-4.5l11.9-11.9c1-1 3-1.8 4.5-1.8h7.6c1.8 0 3.2 1.4 3.2 3.2v7.6c0 1.5-.8 3.4-1.8 4.5L24.3 39.2c-.6.6-1.4.9-2.3.9zM27.2 14c-1 0-2.4.6-3 1.3L12.3 27.2c-.5.5-.5 1.2 0 1.7l8.9 8.9c.5.4 1.2.4 1.7 0l11.9-11.9c.7-.7 1.3-2.1 1.3-3v-7.6c0-.7-.5-1.2-1.2-1.2h-7.7z"/><path d="M30 24c-2.2 0-4-1.8-4-4s1.8-4 4-4 4 1.8 4 4-1.8 4-4 4zm0-6c-1.1 0-2 .9-2 2s.9 2 2 2 2-.9 2-2-.9-2-2-2z"/></svg>