<svg xmlns="http://www.w3.org/2000/svg" viewBox="0 0 50 50"><path d="M25.1 42c-9.4 0-17-7.6-17-17s7.6-17 17-17 17 7.6 17 17-7.7 17-17 17zm0-32c-8.3 0-15 6.7-15 15s6.7 15 15 15 15-6.7 15-15-6.8-15-15-15z"/><path d="M15.3 37.3l-1.8-.8c.5-1.2 2.1-1.9 3.8-2.7 1.7-.8 3.8-1.7 3.8-2.8v-1.5c-.6-.5-1.6-1.6-1.8-3.2-.5-.5-1.3-1.4-1.3-2.6 0-.7.3-1.3.5-1.7-.2-.8-.4-2.3-.4-3.5 0-3.9 2.7-6.5 7-6.5 1.2 0 2.7.3 3.5 1.2 1.9.4 3.5 2.6 3.5 5.3 0 1.7-.3 3.1-.5 3.8.2.3.4.8.4 1.4 0 1.3-.7 2.2-1.3 2.6-.2 1.6-1.1 2.6-1.7 3.1V31c0 .9 1.8 1.6 3.4 2.2 1.9.7 3.9 1.5 4.6 3.1l-1.9.7c-.3-.8-1.9-1.4-3.4-1.9-2.2-.8-4.7-1.7-4.7-4v-2.6l.5-.3s1.2-.8 1.2-2.4v-.7l.6-.3c.1 0 .6-.3.6-1.1 0-.2-.2-.5-.3-.6l-.4-.4.2-.5s.5-1.6.5-3.6c0-1.9-1.1-3.3-2-3.3h-.6l-.3-.5c0-.4-.7-.8-1.9-.8-3.1 0-5 1.7-5 4.5 0 1.3.5 3.5.5 3.5l.1.5-.4.5c-.1 0-.3.3-.3.7 0 .5.6 1.1.9 1.3l.4.3v.5c0 1.5 1.3 2.3 1.3 2.4l.5.3v2.6c0 2.4-2.6 3.6-5 4.6-1.1.4-2.6 1.1-2.8 1.6z"/></svg>