<?xml version="1.0" encoding="utf-8"?>
<!-- Generator: Adobe Illustrator 19.2.0, SVG Export Plug-In . SVG Version: 6.00 Build 0)  -->
<!DOCTYPE svg PUBLIC "-//W3C//DTD SVG 1.1//EN" "http://www.w3.org/Graphics/SVG/1.1/DTD/svg11.dtd">
<svg version="1.1" id="Evil_Icons" xmlns="http://www.w3.org/2000/svg" xmlns:xlink="http://www.w3.org/1999/xlink" x="0px" y="0px"
	 viewBox="0 0 440 790" enable-background="new 0 0 440 790" xml:space="preserve">
<g id="Icon_Search">
	<path fill="#FF6666" d="M43,255.9c-7.1,0-12.9-5.8-12.9-12.9s5.8-12.9,12.9-12.9s12.9,5.8,12.9,12.9S50.1,255.9,43,255.9z
		 M43,231.9c-6.1,0-11.1,5-11.1,11.1s5,11.1,11.1,11.1s11.1-5,11.1-11.1S49.1,231.9,43,231.9z"/>
	
		<rect x="55.5" y="250.1" transform="matrix(0.7071 -0.7071 0.7071 0.7071 -164.8244 115.0786)" fill="#FF6666" width="2" height="12.7"/>
</g>
<g id="Icon_Envelope">
	<path fill="#FF6666" d="M111.7,235.7l-1.3-1.3l-12.5,12.5c-1.6,1.6-4.2,1.6-5.8,0l-12.5-12.5l-1.3,1.3l9.3,9.3l-9.3,9.3l1.3,1.3
		l9.3-9.3l1.8,1.8c1.1,1.1,2.6,1.7,4.2,1.7s3.1-0.6,4.2-1.7l1.8-1.8l9.3,9.3l1.3-1.3l-9.3-9.3L111.7,235.7z"/>
	<path fill="#FF6666" d="M109,258H81c-1.7,0-3-1.3-3-3v-20c0-1.7,1.3-3,3-3h28c1.7,0,3,1.3,3,3v20C112,256.7,110.7,258,109,258z
		 M81,234c-0.6,0-1,0.4-1,1v20c0,0.6,0.4,1,1,1h28c0.6,0,1-0.4,1-1v-20c0-0.6-0.4-1-1-1H81z"/>
</g>
<path id="Icon_Star" fill="#FF6666" d="M155.8,260.5c-0.2,0-0.4-0.1-0.5-0.2l-10.3-7.5l-10.3,7.5c-0.3,0.2-0.8,0.2-1.1,0
	c-0.3-0.2-0.5-0.7-0.3-1l3.9-12.1l-10.3-7.5c-0.3-0.2-0.5-0.7-0.3-1c0.1-0.4,0.5-0.6,0.9-0.6h12.7l3.9-12.1c0.1-0.4,0.5-0.6,0.9-0.6
	s0.8,0.3,0.9,0.6l3.9,12.1h12.7c0.4,0,0.8,0.3,0.9,0.6c0.1,0.4,0,0.8-0.3,1l-10.3,7.5l3.9,12.1c0.1,0.4,0,0.8-0.3,1
	C156.2,260.5,156,260.5,155.8,260.5z M145,250.8c0.2,0,0.4,0.1,0.5,0.2l8.5,6.2l-3.3-10c-0.1-0.4,0-0.8,0.3-1l8.5-6.2h-10.5
	c-0.4,0-0.8-0.3-0.9-0.6l-3.3-10l-3.3,10c-0.1,0.4-0.5,0.6-0.9,0.6h-10.5l8.5,6.2c0.3,0.2,0.5,0.7,0.3,1l-3.3,10l8.5-6.2
	C144.6,250.9,144.8,250.8,145,250.8z"/>
<path id="Icon_Heart" fill="#FF6666" d="M195,259.6l-0.6-0.5c-12.9-10.5-16.3-14.2-16.3-20.1c0-4.9,4-8.9,8.9-8.9
	c4.1,0,6.4,2.3,8,4.1c1.6-1.8,3.9-4.1,8-4.1c4.9,0,8.9,4,8.9,8.9c0,6-3.5,9.7-16.3,20.1L195,259.6z M187,231.9
	c-3.9,0-7.1,3.2-7.1,7.1c0,5.1,3.2,8.6,15.1,18.2c11.8-9.7,15.1-13.1,15.1-18.2c0-3.9-3.2-7.1-7.1-7.1c-3.6,0-5.4,2.1-6.9,3.8
	L195,237l-1.1-1.2C192.4,234.1,190.6,231.9,187,231.9z"/>
<g id="Icon_Trash">
	<rect x="240" y="238" fill="#FF6666" width="2" height="16"/>
	<rect x="244" y="238" fill="#FF6666" width="2" height="16"/>
	<rect x="248" y="238" fill="#FF6666" width="2" height="16"/>
	<rect x="232" y="232" fill="#FF6666" width="26" height="2"/>
	<path fill="#FF6666" d="M249.9,233h-1.9v-2c0-0.6-0.5-1.1-1.1-1.1h-4c-0.6,0-1.1,0.5-1.1,1.1v2h-1.9v-2c0-1.6,1.3-2.9,2.9-2.9h4
		c1.6,0,2.9,1.3,2.9,2.9V233z"/>
	<path fill="#FF6666" d="M251,260h-12c-1.6,0-3-1.3-3.2-2.9l-1.8-24l2-0.2l1.8,24c0,0.6,0.6,1.1,1.2,1.1h12c0.6,0,1.1-0.5,1.2-1.1
		l1.8-24l2,0.2l-1.8,24C254,258.7,252.6,260,251,260z"/>
</g>
<g id="Icon_Image">
	<path fill="#FF6666" d="M309,258h-28c-1.7,0-3-1.3-3-3v-20c0-1.7,1.3-3,3-3h28c1.7,0,3,1.3,3,3v20C312,256.7,310.7,258,309,258z
		 M281,234c-0.6,0-1,0.4-1,1v20c0,0.6,0.4,1,1,1h28c0.6,0,1-0.4,1-1v-20c0-0.6-0.4-1-1-1H281z"/>
	<path fill="#FF6666" d="M300,243.9c-2.2,0-3.9-1.8-3.9-3.9s1.8-3.9,3.9-3.9s3.9,1.8,3.9,3.9S302.2,243.9,300,243.9z M300,237.9
		c-1.1,0-2.1,0.9-2.1,2.1s0.9,2.1,2.1,2.1s2.1-0.9,2.1-2.1S301.1,237.9,300,237.9z"/>
	<polygon fill="#FF6666" points="305.4,257.7 289,242.3 279.6,251 278.4,249.6 289,239.7 306.6,256.3 	"/>
	<polygon fill="#FF6666" points="310.4,252.6 305,248.2 300.4,251.9 299.2,250.5 305,245.8 311.6,251.2 	"/>
</g>
<g id="Navicon">
	<rect x="330" y="232" fill="#FF6666" width="30" height="4"/>
	<rect x="330" y="242" fill="#FF6666" width="30" height="4"/>
	<rect x="330" y="252" fill="#FF6666" width="30" height="4"/>
</g>
<g id="Icon_Close">
	
		<rect x="376.6" y="244.1" transform="matrix(0.7074 -0.7068 0.7068 0.7074 -57.5877 350.8979)" fill="#FF6666" width="36.8" height="1.9"/>
	
		<rect x="394.1" y="226.6" transform="matrix(0.7071 -0.7071 0.7071 0.7071 -57.5483 351.066)" fill="#FF6666" width="1.9" height="36.8"/>
</g>
<g id="Icon_Plus">
	<path fill="#FF6666" d="M45,311.9c-9.3,0-16.9-7.6-16.9-16.9s7.6-16.9,16.9-16.9s16.9,7.6,16.9,16.9S54.3,311.9,45,311.9z
		 M45,279.9c-8.3,0-15.1,6.8-15.1,15.1s6.8,15.1,15.1,15.1s15.1-6.8,15.1-15.1S53.3,279.9,45,279.9z"/>
	<rect x="36" y="294" fill="#FF6666" width="18" height="2"/>
	<rect x="44" y="286" fill="#FF6666" width="2" height="18"/>
</g>
<g id="Icon_Minus">
	<path fill="#FF6666" d="M95,311.9c-9.3,0-16.9-7.6-16.9-16.9s7.6-16.9,16.9-16.9s16.9,7.6,16.9,16.9S104.3,311.9,95,311.9z
		 M95,279.9c-8.3,0-15.1,6.8-15.1,15.1s6.8,15.1,15.1,15.1s15.1-6.8,15.1-15.1S103.3,279.9,95,279.9z"/>
	<rect x="86" y="294" fill="#FF6666" width="18" height="2"/>
</g>
<g id="Icon_Play">
	<path fill="#FF6666" d="M145,311.9c-9.3,0-16.9-7.6-16.9-16.9s7.6-16.9,16.9-16.9s16.9,7.6,16.9,16.9S154.3,311.9,145,311.9z
		 M145,279.9c-8.3,0-15.1,6.8-15.1,15.1s6.8,15.1,15.1,15.1s15.1-6.8,15.1-15.1S153.3,279.9,145,279.9z"/>
	<path fill="#FF6666" d="M140,303.7v-17.5l15,8.7L140,303.7z M142,289.7v10.5l9-5.3L142,289.7z"/>
</g>
<g id="Icon_Question">
	<path fill="#FF6666" d="M195,311.9c-9.3,0-16.9-7.6-16.9-16.9s7.6-16.9,16.9-16.9s16.9,7.6,16.9,16.9S204.3,311.9,195,311.9z
		 M195,279.9c-8.3,0-15.1,6.8-15.1,15.1s6.8,15.1,15.1,15.1s15.1-6.8,15.1-15.1S203.3,279.9,195,279.9z"/>
	<g>
		<path fill="#FF6666" d="M189.8,289.6c0.3-0.8,0.6-1.4,1.2-1.9c0.5-0.5,1.1-0.9,1.9-1.2s1.6-0.4,2.5-0.4c0.7,0,1.4,0.1,2,0.3
			c0.6,0.2,1.2,0.5,1.7,0.9s0.9,0.9,1.1,1.5c0.3,0.6,0.4,1.3,0.4,2c0,1-0.2,1.8-0.6,2.5s-1,1.3-1.6,2c-0.5,0.5-1,1-1.3,1.3
			c-0.3,0.3-0.6,0.6-0.7,0.9c-0.2,0.3-0.3,0.7-0.3,1.1c-0.1,0.4-0.1,0.7-0.1,1.5h-1.6c0-0.8,0-1.1,0.1-1.7c0.1-0.5,0.3-1,0.5-1.5
			c0.2-0.4,0.5-0.8,0.9-1.2c0.4-0.4,0.9-0.8,1.4-1.4c0.5-0.5,0.9-1,1.2-1.5s0.5-1.2,0.5-1.8c0-0.5-0.1-1-0.3-1.4
			c-0.2-0.4-0.5-0.8-0.8-1.1c-0.3-0.3-0.7-0.5-1.2-0.7c-0.5-0.2-0.9-0.3-1.4-0.3c-0.7,0-1.3,0.1-1.8,0.4c-0.5,0.2-1,0.6-1.3,1
			c-0.3,0.4-0.6,0.9-0.8,1.5s-0.3,1-0.2,1.7h-1.6C189.4,291.1,189.5,290.4,189.8,289.6z M196,302v2h-2v-2H196z"/>
	</g>
</g>
<g id="Icon_Exclamation">
	<path fill="#FF6666" d="M245,311.9c-9.3,0-16.9-7.6-16.9-16.9s7.6-16.9,16.9-16.9s16.9,7.6,16.9,16.9S254.3,311.9,245,311.9z
		 M245,279.9c-8.3,0-15.1,6.8-15.1,15.1s6.8,15.1,15.1,15.1s15.1-6.8,15.1-15.1S253.3,279.9,245,279.9z"/>
	<rect x="244" y="302" fill="#FF6666" width="2" height="2"/>
	<polygon fill="#FF6666" points="245.6,300 244.4,300 244,292 244,286 246,286 246,292 	"/>
</g>
<g id="Icon_User">
	<path fill="#FF6666" d="M295.1,311.9c-9.3,0-16.9-7.6-16.9-16.9s7.6-16.9,16.9-16.9S312,285.7,312,295S304.4,311.9,295.1,311.9z
		 M295.1,279.9c-8.3,0-15.1,6.8-15.1,15.1s6.8,15.1,15.1,15.1s15.1-6.8,15.1-15.1S303.4,279.9,295.1,279.9z"/>
	<path fill="#FF6666" d="M285.2,307.2l-1.7-0.7c0.5-1.2,2-1.9,3.8-2.7c1.7-0.8,3.8-1.7,3.8-2.8v-1.5c-0.6-0.5-1.6-1.6-1.8-3.2
		c-0.5-0.5-1.3-1.4-1.3-2.6c0-0.7,0.3-1.3,0.5-1.6c-0.1-0.8-0.4-2.3-0.4-3.5c0-3.9,2.7-6.4,6.9-6.4c1.2,0,2.7,0.3,3.5,1.2
		c1.9,0.3,3.4,2.6,3.4,5.2c0,1.7-0.3,3.1-0.5,3.8c0.2,0.3,0.4,0.8,0.4,1.4c0,1.3-0.7,2.2-1.3,2.6c-0.2,1.6-1.1,2.7-1.7,3.2v1.5
		c0,1,1.7,1.6,3.4,2.2c1.9,0.7,3.9,1.4,4.5,3.1l-1.7,0.7c-0.3-0.8-2-1.4-3.4-2c-2.2-0.8-4.6-1.7-4.6-4v-2.5l0.4-0.3
		c0,0,1.3-0.8,1.3-2.5v-0.6l0.6-0.2c0.1,0,0.7-0.3,0.7-1.2c0-0.3-0.2-0.6-0.3-0.6l-0.3-0.4l0.2-0.5c0,0,0.5-1.6,0.5-3.6
		c0-1.8-1-3.4-2.1-3.4h-0.5l-0.3-0.5c-0.2-0.3-1-0.7-2.2-0.7c-3.2,0-5.1,1.7-5.1,4.6c0,1.4,0.5,3.5,0.5,3.6l0.1,0.5l-0.4,0.4l0,0
		c0,0-0.3,0.3-0.3,0.7c0,0.5,0.6,1.2,0.9,1.4l0.4,0.3l0,0.5c0,1.5,1.3,2.4,1.4,2.4l0.4,0.3l0,2.5c0,2.3-2.6,3.5-4.9,4.5
		C286.9,306,285.4,306.7,285.2,307.2z"/>
</g>
<g id="Icon_Check">
	<path fill="#FF6666" d="M345,311.9c-9.3,0-16.9-7.6-16.9-16.9s7.6-16.9,16.9-16.9s16.9,7.6,16.9,16.9S354.3,311.9,345,311.9z
		 M345,279.9c-8.3,0-15.1,6.8-15.1,15.1s6.8,15.1,15.1,15.1s15.1-6.8,15.1-15.1S353.3,279.9,345,279.9z"/>
	<polygon fill="#FF6666" points="343,302.3 334.3,293.7 335.7,292.3 343,299.7 354.3,288.3 355.7,289.6 	"/>
</g>
<g id="Icon_Close_O">
	<path fill="#FF6666" d="M395,311.9c-9.3,0-16.9-7.6-16.9-16.9s7.6-16.9,16.9-16.9s16.9,7.6,16.9,16.9S404.3,311.9,395,311.9z
		 M395,279.9c-8.3,0-15.1,6.8-15.1,15.1s6.8,15.1,15.1,15.1s15.1-6.8,15.1-15.1S403.3,279.9,395,279.9z"/>
	
		<rect x="383.7" y="294.1" transform="matrix(0.7074 -0.7068 0.7068 0.7074 -92.9299 365.5295)" fill="#FF6666" width="22.6" height="1.9"/>
	
		<rect x="394.1" y="283.7" transform="matrix(0.7071 -0.7071 0.7071 0.7071 -92.9037 365.7107)" fill="#FF6666" width="1.9" height="22.6"/>
</g>
<g id="Icon_Arrow_Left">
	<path fill="#FF6666" d="M45,361.9c-9.3,0-16.9-7.6-16.9-16.9s7.6-16.9,16.9-16.9s16.9,7.6,16.9,16.9S54.3,361.9,45,361.9z
		 M45,329.9c-8.3,0-15.1,6.8-15.1,15.1s6.8,15.1,15.1,15.1s15.1-6.8,15.1-15.1S53.3,329.9,45,329.9z"/>
	<polygon fill="#FF6666" points="45.3,354.7 35.7,345 45.3,335.3 46.7,336.7 38.3,345 46.7,353.3 	"/>
	<rect x="37" y="344" fill="#FF6666" width="17" height="2"/>
</g>
<g id="Icon_Arrow_Right">
	<path fill="#FF6666" d="M95,361.9c-9.3,0-16.9-7.6-16.9-16.9s7.6-16.9,16.9-16.9s16.9,7.6,16.9,16.9S104.3,361.9,95,361.9z
		 M95,329.9c-8.3,0-15.1,6.8-15.1,15.1s6.8,15.1,15.1,15.1s15.1-6.8,15.1-15.1S103.3,329.9,95,329.9z"/>
	<polygon fill="#FF6666" points="94.7,354.7 93.3,353.3 101.7,345 93.3,336.7 94.7,335.3 104.3,345 	"/>
	<rect x="86" y="344" fill="#FF6666" width="17" height="2"/>
</g>
<g id="Icon_Arrow_Up">
	<path fill="#FF6666" d="M145,361.9c-9.3,0-16.9-7.6-16.9-16.9s7.6-16.9,16.9-16.9s16.9,7.6,16.9,16.9S154.3,361.9,145,361.9z
		 M145,329.9c-8.3,0-15.1,6.8-15.1,15.1s6.8,15.1,15.1,15.1s15.1-6.8,15.1-15.1S153.3,329.9,145,329.9z"/>
	<polygon fill="#FF6666" points="153.3,346.7 145,338.3 136.7,346.7 135.3,345.3 145,335.7 154.7,345.3 	"/>
	<rect x="144" y="337" fill="#FF6666" width="2" height="17"/>
</g>
<g id="Icon_Arrow_Down">
	<path fill="#FF6666" d="M195,361.9c-9.3,0-16.9-7.6-16.9-16.9s7.6-16.9,16.9-16.9s16.9,7.6,16.9,16.9S204.3,361.9,195,361.9z
		 M195,329.9c-8.3,0-15.1,6.8-15.1,15.1s6.8,15.1,15.1,15.1s15.1-6.8,15.1-15.1S203.3,329.9,195,329.9z"/>
	<polygon fill="#FF6666" points="195,354.3 185.3,344.7 186.7,343.3 195,351.7 203.3,343.3 204.7,344.7 	"/>
	<rect x="194" y="336" fill="#FF6666" width="2" height="17"/>
</g>
<polygon id="Icon_Chevron_Left" fill="#FF6666" points="247.3,354.7 237.6,345 247.3,335.3 248.7,336.7 240.4,345 248.7,353.3 "/>
<polygon id="Icon_Chevron_Right" fill="#FF6666" points="292.7,354.7 291.3,353.3 299.6,345 291.3,336.7 292.7,335.3 302.4,345 "/>
<polygon id="Icon_Chevron_Up" fill="#FF6666" points="353.3,348.7 345,340.4 336.7,348.7 335.3,347.3 345,337.6 354.7,347.3 "/>
<polygon id="Icon_Chevron_Down" fill="#FF6666" points="395,352.4 385.3,342.7 386.7,341.3 395,349.6 403.3,341.3 404.7,342.7 "/>
<g id="Icon_Link">
	<path fill="#FF6666" d="M44,400.2c0,0.2,0.1,0.5,0.1,0.8c0,1.4-0.5,2.6-1.5,3.6l-2,2c-1,1-2.2,1.5-3.6,1.5c-2.8,0-5.1-2.3-5.1-5.1
		c0-1.4,0.5-2.6,1.5-3.6l2-2c1-1,2.2-1.5,3.6-1.5c0.3,0,0.5,0,0.8,0.1l1.5-1.5c-0.7-0.3-1.5-0.4-2.3-0.4c-1.9,0-3.6,0.7-4.9,2l-2,2
		c-1.3,1.3-2,3-2,4.9c0,3.8,3.1,6.9,6.9,6.9c1.9,0,3.6-0.7,4.9-2l2-2c1.3-1.3,2-3,2-4.9c0-0.8-0.1-1.6-0.4-2.3L44,400.2z"/>
	<path fill="#FF6666" d="M53,380.1c-1.9,0-3.6,0.7-4.9,2l-2,2c-1.3,1.3-2,3-2,4.9c0,0.8,0.1,1.6,0.4,2.3l1.5-1.5
		c0-0.2-0.1-0.5-0.1-0.8c0-1.4,0.5-2.6,1.5-3.6l2-2c1-1,2.2-1.5,3.6-1.5c2.8,0,5.1,2.3,5.1,5.1c0,1.4-0.5,2.6-1.5,3.6l-2,2
		c-1,1-2.2,1.5-3.6,1.5c-0.3,0-0.5,0-0.8-0.1l-1.5,1.5c0.7,0.3,1.5,0.4,2.3,0.4c1.9,0,3.6-0.7,4.9-2l2-2c1.3-1.3,2-3,2-4.9
		C59.9,383.2,56.8,380.1,53,380.1z"/>
	<path fill="#FF6666" d="M40,401c-0.3,0-0.5-0.1-0.7-0.3c-0.4-0.4-0.4-1,0-1.4l10-10c0.4-0.4,1-0.4,1.4,0s0.4,1,0,1.4l-10,10
		C40.5,400.9,40.3,401,40,401z"/>
</g>
<g id="Icon_Tag">
	<path fill="#FF6666" d="M92,410.1c-0.9,0-1.7-0.3-2.3-0.9l-8.9-8.9c-1.2-1.2-1.2-3.3,0-4.5l11.9-11.9c1-1,3-1.8,4.5-1.8h7.6
		c1.8,0,3.2,1.4,3.2,3.2v7.6c0,1.5-0.8,3.4-1.8,4.5l-11.9,11.9C93.7,409.8,92.9,410.1,92,410.1z M97.2,384c-1,0-2.4,0.6-3,1.3
		l-11.9,11.9c-0.5,0.5-0.5,1.2,0,1.7l8.9,8.9c0.5,0.4,1.2,0.4,1.7,0l11.9-11.9c0.7-0.7,1.3-2.1,1.3-3v-7.6c0-0.7-0.5-1.2-1.2-1.2
		H97.2z"/>
	<path fill="#FF6666" d="M100,393.9c-2.2,0-3.9-1.8-3.9-3.9s1.8-3.9,3.9-3.9s3.9,1.8,3.9,3.9S102.2,393.9,100,393.9z M100,387.9
		c-1.1,0-2.1,0.9-2.1,2.1s0.9,2.1,2.1,2.1s2.1-0.9,2.1-2.1S101.1,387.9,100,387.9z"/>
</g>
<path id="Icon_Paperclip" fill="#FF6666" d="M133.8,409.5c-1.6,0-3.1-0.6-4.2-1.7s-1.7-2.6-1.7-4.2c0-1.6,0.6-3.1,1.7-4.2l17-17
	c3.1-3.1,8.1-3.1,11.2,0c1.5,1.5,2.3,3.5,2.3,5.6s-0.8,4.1-2.3,5.6l-12.7,12.7l-1.3-1.3l12.7-12.7c2.4-2.4,2.4-6.2,0-8.6
	c-2.4-2.4-6.2-2.4-8.6,0l-17,17c-0.8,0.8-1.2,1.8-1.2,2.9c0,1.1,0.4,2.1,1.2,2.9c1.6,1.6,4.2,1.6,5.8,0l12.7-12.7
	c0.8-0.8,0.8-2.1,0-2.9c-0.8-0.8-2.1-0.8-2.9,0l-8.5,8.5l-1.3-1.3l8.5-8.5c1.5-1.5,4-1.5,5.6,0c1.5,1.5,1.5,4,0,5.6L138,407.7
	C136.9,408.9,135.4,409.5,133.8,409.5z"/>
<g id="Icon_Pencil">
	<path fill="#FF6666" d="M179.7,410.3l2.4-9.8l14.8-14.8l7.3,7.3l-14.8,14.8L179.7,410.3z M183.8,401.5l-1.6,6.2l6.2-1.6l13.2-13.2
		l-4.7-4.7L183.8,401.5z"/>
	<path fill="#FF6666" d="M187.9,407.3c-0.6-2.5-2.6-4.5-5.1-5.1l0.5-1.8c3.2,0.8,5.7,3.3,6.5,6.5L187.9,407.3z"/>
	
		<rect x="184.3" y="395.6" transform="matrix(0.7071 -0.7071 0.7071 0.7071 -223.693 252.9573)" fill="#FF6666" width="18.4" height="1.9"/>
	<path fill="#FF6666" d="M181,409l2.9-0.7c-0.3-1.1-1.1-1.9-2.2-2.2L181,409z"/>
	<path fill="#FF6666" d="M205,392.3l-7.3-7.3l2.9-2.9l0.5,0.1c3.5,0.5,6.3,3.3,6.8,6.8l0.1,0.5L205,392.3z M200.3,385l4.7,4.7
		l0.9-0.9c-0.5-2.3-2.3-4.2-4.7-4.7L200.3,385z"/>
</g>
<g id="Icon_Location">
	<path fill="#FF6666" d="M245,412.4l-0.7-0.8c-0.5-0.6-12.2-14.4-12.2-22.6c0-7.1,5.8-12.9,12.9-12.9s12.9,5.8,12.9,12.9
		c0,8.2-11.7,22-12.2,22.6L245,412.4z M245,377.9c-6.1,0-11.1,5-11.1,11.1c0,6.5,8.5,17.4,11.1,20.5c2.5-3.1,11.1-14.1,11.1-20.5
		C256.1,382.9,251.1,377.9,245,377.9z"/>
	<path fill="#FF6666" d="M245,393.9c-2.7,0-4.9-2.2-4.9-4.9s2.2-4.9,4.9-4.9s4.9,2.2,4.9,4.9S247.7,393.9,245,393.9z M245,385.9
		c-1.7,0-3.1,1.4-3.1,3.1s1.4,3.1,3.1,3.1s3.1-1.4,3.1-3.1S246.7,385.9,245,385.9z"/>
</g>
<g id="Icon_Share_Google">
	<g>
		<path fill="#FF6666" d="M285,399.9c-2.7,0-4.9-2.2-4.9-4.9s2.2-4.9,4.9-4.9s4.9,2.2,4.9,4.9S287.7,399.9,285,399.9z M285,391.9
			c-1.7,0-3.1,1.4-3.1,3.1s1.4,3.1,3.1,3.1s3.1-1.4,3.1-3.1S286.7,391.9,285,391.9z"/>
		<path fill="#FF6666" d="M305,389.9c-2.7,0-4.9-2.2-4.9-4.9s2.2-4.9,4.9-4.9s4.9,2.2,4.9,4.9S307.7,389.9,305,389.9z M305,381.9
			c-1.7,0-3.1,1.4-3.1,3.1s1.4,3.1,3.1,3.1s3.1-1.4,3.1-3.1S306.7,381.9,305,381.9z"/>
		<path fill="#FF6666" d="M305,409.9c-2.7,0-4.9-2.2-4.9-4.9s2.2-4.9,4.9-4.9s4.9,2.2,4.9,4.9S307.7,409.9,305,409.9z M305,401.9
			c-1.7,0-3.1,1.4-3.1,3.1s1.4,3.1,3.1,3.1s3.1-1.4,3.1-3.1S306.7,401.9,305,401.9z"/>
	</g>
	
		<rect x="294" y="392.8" transform="matrix(0.4472 -0.8944 0.8944 0.4472 -194.6989 484.9706)" fill="#FF6666" width="2" height="14.4"/>
	
		<rect x="287.8" y="389" transform="matrix(0.8944 -0.4472 0.4472 0.8944 -143.2693 173.1014)" fill="#FF6666" width="14.4" height="2"/>
</g>
<g id="Icon_Share_Apple">
	<polygon fill="#FF6666" points="350.3,383.7 345,378.3 339.7,383.7 338.3,382.3 345,375.7 351.7,382.3 	"/>
	<rect x="344" y="377" fill="#FF6666" width="2" height="21"/>
	<path fill="#FF6666" d="M355,410h-20c-1.7,0-3-1.3-3-3v-18c0-1.7,1.3-3,3-3h7v2h-7c-0.6,0-1,0.4-1,1v18c0,0.6,0.4,1,1,1h20
		c0.6,0,1-0.4,1-1v-18c0-0.6-0.4-1-1-1h-7v-2h7c1.7,0,3,1.3,3,3v18C358,408.7,356.7,410,355,410z"/>
</g>
<g id="Icon_External_Link">
	
		<rect x="390.9" y="387.6" transform="matrix(0.7074 -0.7068 0.7068 0.7074 -157.1177 397.485)" fill="#FF6666" width="21.2" height="1.9"/>
	<polygon fill="#FF6666" points="410,390 408,390 408,382 400,382 400,380 410,380 	"/>
	<path fill="#FF6666" d="M405,408h-20c-1.7,0-3-1.3-3-3v-20c0-1.7,1.3-3,3-3h11v2h-11c-0.6,0-1,0.4-1,1v20c0,0.6,0.4,1,1,1h20
		c0.6,0,1-0.4,1-1v-11h2v11C408,406.7,406.7,408,405,408z"/>
</g>
<g id="Icon_Refresh">
	<path fill="#FF6666" d="M45,457.9c-7.1,0-12.9-5.8-12.9-12.9c0-3.2,1.1-6.2,3.2-8.6l1.4,1.2c-1.8,2-2.8,4.6-2.8,7.3
		c0,6.1,5,11.1,11.1,11.1c1.6,0,3.2-0.3,4.6-1l0.8,1.7C48.7,457.5,46.9,457.9,45,457.9z"/>
	<path fill="#FF6666" d="M54.6,453.6l-1.4-1.2c1.8-2,2.8-4.7,2.8-7.4c0-6.1-5-11.1-11.1-11.1c-1.6,0-3.2,0.3-4.6,1l-0.8-1.7
		c1.7-0.8,3.5-1.2,5.4-1.2c7.1,0,12.9,5.8,12.9,12.9C57.9,448.2,56.8,451.2,54.6,453.6z"/>
	<polygon fill="#FF6666" points="38,444 36,444 36,438 30,438 30,436 38,436 	"/>
	<polygon fill="#FF6666" points="60,454 52,454 52,446 54,446 54,452 60,452 	"/>
</g>
<g id="Icon_Undo">
	<path fill="#FF6666" d="M95,457.9c-5,0-9.7-3-11.8-7.5l1.7-0.8c1.8,3.9,5.8,6.5,10.1,6.5c6.1,0,11.1-5,11.1-11.1s-5-11.1-11.1-11.1
		c-4.6,0-8.5,2.8-10.1,7.4l-1.8-0.6c1.9-5.2,6.5-8.6,11.9-8.6c7.1,0,12.9,5.8,12.9,12.9S102.1,457.9,95,457.9z"/>
	<polygon fill="#FF6666" points="90,442 82,442 82,434 84,434 84,440 90,440 	"/>
</g>
<g id="Icon_Redo">
	<path fill="#FF6666" d="M145,457.9c-7.1,0-12.9-5.8-12.9-12.9s5.8-12.9,12.9-12.9c5.4,0,10,3.4,11.9,8.6l-1.8,0.6
		c-1.6-4.6-5.5-7.4-10.1-7.4c-6.1,0-11.1,5-11.1,11.1s5,11.1,11.1,11.1c4.3,0,8.3-2.5,10.1-6.5l1.7,0.8
		C154.7,455,150,457.9,145,457.9z"/>
	<polygon fill="#FF6666" points="158,442 150,442 150,440 156,440 156,434 158,434 	"/>
</g>
<g id="Icon_Retweet">
	<path fill="#FF6666" d="M208,455h-2v-18c0-0.6-0.4-1-1-1h-17v-2h17c1.7,0,3,1.3,3,3V455z"/>
	<polygon fill="#FF6666" points="207,456.4 200.3,448.6 201.7,447.4 207,453.6 212.3,447.4 213.7,448.6 	"/>
	<path fill="#FF6666" d="M202,456h-17c-1.7,0-3-1.3-3-3v-18h2v18c0,0.6,0.4,1,1,1h17V456z"/>
	<polygon fill="#FF6666" points="188.3,442.6 183,436.4 177.7,442.6 176.3,441.4 183,433.6 189.7,441.4 	"/>
</g>
<g id="Icon_Gear">
	<path fill="#FF6666" d="M245,453.9c-4.9,0-8.9-4-8.9-8.9s4-8.9,8.9-8.9s8.9,4,8.9,8.9S249.9,453.9,245,453.9z M245,437.9
		c-3.9,0-7.1,3.2-7.1,7.1s3.2,7.1,7.1,7.1s7.1-3.2,7.1-7.1S248.9,437.9,245,437.9z"/>
	<path fill="#FF6666" d="M247.7,463.9h-5.3l-1.5-4.6c-1-0.3-2-0.7-2.9-1.2l-4.4,2.2l-3.8-3.8l2.2-4.4c-0.5-0.9-0.9-1.9-1.2-2.9
		l-4.6-1.5v-5.3l4.6-1.5c0.3-1,0.7-2,1.2-2.9l-2.2-4.4l3.8-3.8l4.4,2.2c0.9-0.5,1.9-0.9,2.9-1.2l1.5-4.6h5.3l1.5,4.6
		c1,0.3,2,0.7,2.9,1.2l4.4-2.2l3.8,3.8l-2.2,4.4c0.5,0.9,0.9,1.9,1.2,2.9l4.6,1.5v5.3l-4.6,1.5c-0.3,1-0.7,2-1.2,2.9l2.2,4.4
		l-3.8,3.8l-4.4-2.2c-0.9,0.5-1.9,0.9-2.9,1.2L247.7,463.9z M243.7,462.1h2.7l1.4-4.3l0.5-0.1c1.2-0.3,2.3-0.8,3.4-1.4l0.4-0.3
		l4.1,2l1.9-1.9l-2-4.1l0.3-0.4c0.6-1.1,1.1-2.2,1.4-3.4l0.1-0.5l4.3-1.4v-2.7l-4.3-1.4l-0.1-0.5c-0.3-1.2-0.8-2.3-1.4-3.4l-0.3-0.4
		l2-4.1l-1.9-1.9l-4.1,2l-0.4-0.3c-1.1-0.6-2.2-1.1-3.4-1.4l-0.5-0.1l-1.4-4.3h-2.7l-1.4,4.3l-0.5,0.1c-1.2,0.3-2.3,0.8-3.4,1.4
		l-0.4,0.3l-4.1-2l-1.9,1.9l2,4.1l-0.3,0.4c-0.6,1.1-1.1,2.2-1.4,3.4l-0.1,0.5l-4.3,1.4v2.7l4.3,1.4l0.1,0.5
		c0.3,1.2,0.8,2.3,1.4,3.4l0.3,0.4l-2,4.1l1.9,1.9l4.1-2l0.4,0.3c1.1,0.6,2.2,1.1,3.4,1.4l0.5,0.1L243.7,462.1z"/>
</g>
<g id="Icon_Lock">
	<path fill="#FF6666" d="M303.9,443h-1.9v-4c0-3.9-3.2-7.1-7.1-7.1s-7.1,3.2-7.1,7.1v4h-1.9v-4c0-4.9,4-8.9,8.9-8.9s8.9,4,8.9,8.9
		V443z"/>
	<path fill="#FF6666" d="M303,460h-16c-1.7,0-3-1.3-3-3v-12c0-1.7,1.3-3,3-3h16c1.7,0,3,1.3,3,3v12C306,458.7,304.7,460,303,460z
		 M287,444c-0.6,0-1,0.4-1,1v12c0,0.6,0.4,1,1,1h16c0.6,0,1-0.4,1-1v-12c0-0.6-0.4-1-1-1H287z"/>
	<circle fill="#FF6666" cx="295" cy="448" r="2"/>
	<polygon fill="#FF6666" points="295.5,448 294.5,448 293.5,454 296.5,454 	"/>
</g>
<g id="Icon_Unlock">
	<path fill="#FF6666" d="M337.9,443h-1.9v-4c0-4.9,4-8.9,8.9-8.9c4.5,0,8.3,3.4,8.9,7.8l-1.8,0.2c-0.4-3.5-3.5-6.2-7-6.2
		c-3.9,0-7.1,3.2-7.1,7.1V443z"/>
	<path fill="#FF6666" d="M353,460h-16c-1.7,0-3-1.3-3-3v-12c0-1.7,1.3-3,3-3h16c1.7,0,3,1.3,3,3v12C356,458.7,354.7,460,353,460z
		 M337,444c-0.6,0-1,0.4-1,1v12c0,0.6,0.4,1,1,1h16c0.6,0,1-0.4,1-1v-12c0-0.6-0.4-1-1-1H337z"/>
	<circle fill="#FF6666" cx="345" cy="448" r="2"/>
	<polygon fill="#FF6666" points="345.5,448 344.5,448 343.5,454 346.5,454 	"/>
</g>
<g id="Icon_Clock">
	<path fill="#FF6666" d="M395,461.9c-9.3,0-16.9-7.6-16.9-16.9s7.6-16.9,16.9-16.9s16.9,7.6,16.9,16.9S404.3,461.9,395,461.9z
		 M395,429.9c-8.3,0-15.1,6.8-15.1,15.1s6.8,15.1,15.1,15.1s15.1-6.8,15.1-15.1S403.3,429.9,395,429.9z"/>
	<polygon fill="#FF6666" points="400.3,453.7 394,447.4 394,436 396,436 396,446.6 401.7,452.3 	"/>
</g>
<g id="Icon_Calendar">
	<path fill="#FF6666" d="M57,508H33c-1.7,0-3-1.3-3-3v-22c0-1.7,1.1-3,2.5-3H34v2h-1.5c-0.2,0-0.5,0.4-0.5,1v22c0,0.6,0.4,1,1,1h24
		c0.6,0,1-0.4,1-1v-22c0-0.6-0.3-1-0.5-1H56v-2h1.5c1.4,0,2.5,1.3,2.5,3v22C60,506.7,58.7,508,57,508z"/>
	<path fill="#FF6666" d="M37,484c-0.6,0-1-0.4-1-1v-4c0-0.6,0.4-1,1-1s1,0.4,1,1v4C38,483.6,37.6,484,37,484z"/>
	<path fill="#FF6666" d="M53,484c-0.6,0-1-0.4-1-1v-4c0-0.6,0.4-1,1-1s1,0.4,1,1v4C54,483.6,53.6,484,53,484z"/>
	<rect x="40" y="480" fill="#FF6666" width="10" height="2"/>
	<rect x="32" y="486" fill="#FF6666" width="26" height="2"/>
	<rect x="54" y="490" fill="#FF6666" width="2" height="2"/>
	<rect x="50" y="490" fill="#FF6666" width="2" height="2"/>
	<rect x="46" y="490" fill="#FF6666" width="2" height="2"/>
	<rect x="42" y="490" fill="#FF6666" width="2" height="2"/>
	<rect x="38" y="490" fill="#FF6666" width="2" height="2"/>
	<rect x="54" y="494" fill="#FF6666" width="2" height="2"/>
	<rect x="50" y="494" fill="#FF6666" width="2" height="2"/>
	<rect x="46" y="494" fill="#FF6666" width="2" height="2"/>
	<rect x="42" y="494" fill="#FF6666" width="2" height="2"/>
	<rect x="38" y="494" fill="#FF6666" width="2" height="2"/>
	<rect x="34" y="494" fill="#FF6666" width="2" height="2"/>
	<rect x="54" y="498" fill="#FF6666" width="2" height="2"/>
	<rect x="50" y="498" fill="#FF6666" width="2" height="2"/>
	<rect x="46" y="498" fill="#FF6666" width="2" height="2"/>
	<rect x="42" y="498" fill="#FF6666" width="2" height="2"/>
	<rect x="38" y="498" fill="#FF6666" width="2" height="2"/>
	<rect x="34" y="498" fill="#FF6666" width="2" height="2"/>
	<rect x="50" y="502" fill="#FF6666" width="2" height="2"/>
	<rect x="46" y="502" fill="#FF6666" width="2" height="2"/>
	<rect x="42" y="502" fill="#FF6666" width="2" height="2"/>
	<rect x="38" y="502" fill="#FF6666" width="2" height="2"/>
	<rect x="34" y="502" fill="#FF6666" width="2" height="2"/>
</g>
<g id="Icon_Cart">
	<path fill="#FF6666" d="M105,504H83c-0.3,0-0.6-0.2-0.8-0.4s-0.2-0.6-0.1-0.9l1.9-4.8L82.1,480H76v-2h7c0.5,0,0.9,0.4,1,0.9l2,19
		c0,0.2,0,0.3-0.1,0.5l-1.5,3.6H106L105,504z"/>
	<path fill="#FF6666" d="M85.2,499l-0.4-2l23.2-4.8V484H84v-2h25c0.6,0,1,0.4,1,1v10c0,0.5-0.3,0.9-0.8,1L85.2,499z"/>
	<path fill="#FF6666" d="M106,510c-2.2,0-4-1.8-4-4s1.8-4,4-4s4,1.8,4,4S108.2,510,106,510z M106,504c-1.1,0-2,0.9-2,2s0.9,2,2,2
		s2-0.9,2-2S107.1,504,106,504z"/>
	<path fill="#FF6666" d="M82,510c-2.2,0-4-1.8-4-4s1.8-4,4-4s4,1.8,4,4S84.2,510,82,510z M82,504c-1.1,0-2,0.9-2,2s0.9,2,2,2
		s2-0.9,2-2S83.1,504,82,504z"/>
</g>
<g id="Icon_Chart">
	<polygon fill="#FF6666" points="138,506 136,506 136,496 132,496 132,506 130,506 130,494 138,494 	"/>
	<polygon fill="#FF6666" points="148,506 146,506 146,490 142,490 142,506 140,506 140,488 148,488 	"/>
	<polygon fill="#FF6666" points="158,506 156,506 156,484 152,484 152,506 150,506 150,482 158,482 	"/>
	<rect x="128" y="506" fill="#FF6666" width="32" height="2"/>
</g>
<g id="Icon_Bell">
	<path fill="#FF6666" d="M212,505.9c-6.5,0-7.3-6-8.2-11.8c-0.9-6.3-1.7-12.2-8.8-12.2s-8,5.9-8.8,12.2c-0.8,5.8-1.7,11.8-8.2,11.8
		v-1.9c4.5,0,5.4-3.9,6.3-10.2c0.9-6.1,2-13.8,10.7-13.8s9.8,7.7,10.7,13.8c0.9,6.3,1.8,10.2,6.3,10.2V505.9z"/>
	<path fill="#FF6666" d="M195,509.9c-2.7,0-4.9-2.2-4.9-4.9h1.9c0,1.7,1.4,3.1,3.1,3.1s3.1-1.4,3.1-3.1h1.9
		C199.9,507.7,197.7,509.9,195,509.9z"/>
	<rect x="178" y="504" fill="#FF6666" width="34" height="2"/>
	<path fill="#FF6666" d="M197,480c0,1.1-0.9,1.5-2,1.5s-2-0.4-2-1.5s0.9-2,2-2S197,478.9,197,480z"/>
</g>
<path id="Icon_Pointer" fill="#FF6666" d="M253,508h-12c-0.6,0-1-0.4-1-1c0-1.5-0.7-2.4-1.8-3.8c-0.6-0.7-1.3-1.6-2-2.7
	c-1.9-3-3.5-6.5-3.9-7.9c-0.4-1.3-0.1-2.2,0.2-2.7c0.4-0.6,1.2-0.9,2.1-0.9c1.2,0,2.4,1,3.5,2.3V481c0-1.7,1.3-3,3-3s3,1.3,3,3v4.2
	c0.3-0.1,0.6-0.2,1-0.2c1.1,0,2,0.6,2.5,1.4c0.4-0.2,0.9-0.4,1.5-0.4c1.4,0,2.5,0.9,2.9,2.2c0.3-0.1,0.7-0.2,1.1-0.2
	c1.7,0,3,1.3,3,3v3c0,2.6-0.5,4.7-1,6.7c-0.5,2-1,3.9-1,6.3C254,507.6,253.6,508,253,508z M241.9,506H252c0.1-2.2,0.6-4,1-5.8
	c0.5-2,1-3.9,1-6.2v-3.2c0-0.6-0.4-1-1-1s-1,0.4-1,1v1.2c0,0.6-0.4,1-1,1s-1-0.4-1-1v-3.2c0-0.6-0.4-1-1-1s-1,0.4-1,1v2.2
	c0,0.6-0.4,1-1,1s-1-0.4-1-1v-3.2c0-0.6-0.4-1-1-1s-1,0.4-1,1v2.2c0,0.6-0.4,1-1,1s-1-0.4-1-1v-9.2c0-0.6-0.4-1-1-1s-1,0.4-1,1V496
	c0,0.6-0.4,1-1,1s-1-0.4-1-1v-0.8c-0.9-2.3-2.8-4.3-3.5-4.3c-0.2,0-0.4,0.1-0.5,0.2c-0.1,0.1-0.1,0.4,0,0.9c0.3,1.1,1.8,4.3,3.8,7.5
	c0.6,1,1.2,1.7,1.8,2.5C240.7,503.2,241.7,504.3,241.9,506z"/>
<g id="Icon_Eye">
	<path fill="#FF6666" d="M295,505.9c-11.4,0-16.6-10.1-16.8-10.5c-0.1-0.3-0.1-0.6,0-0.8c0.2-0.4,5.4-10.5,16.8-10.5
		s16.6,10.1,16.8,10.5c0.1,0.3,0.1,0.6,0,0.8C311.6,495.8,306.4,505.9,295,505.9z M280.1,495c1.1,1.8,5.9,9.1,14.9,9.1
		s13.9-7.2,14.9-9.1c-1.1-1.8-5.9-9.1-14.9-9.1S281.1,493.2,280.1,495z"/>
	<path fill="#FF6666" d="M295,503.9c-4.9,0-8.9-4-8.9-8.9s4-8.9,8.9-8.9s8.9,4,8.9,8.9S299.9,503.9,295,503.9z M295,487.9
		c-3.9,0-7.1,3.2-7.1,7.1s3.2,7.1,7.1,7.1s7.1-3.2,7.1-7.1S298.9,487.9,295,487.9z"/>
	<path fill="#FF6666" d="M295,499.9c-2.7,0-4.9-2.2-4.9-4.9c0-0.5,0.4-0.9,0.9-0.9s0.9,0.4,0.9,0.9c0,1.7,1.4,3.1,3.1,3.1
		s3.1-1.4,3.1-3.1s-1.4-3.1-3.1-3.1c-0.5,0-0.9-0.4-0.9-0.9s0.4-0.9,0.9-0.9c2.7,0,4.9,2.2,4.9,4.9S297.7,499.9,295,499.9z"/>
</g>
<g id="Icon_Comment">
	<path fill="#FF6666" d="M335,511.9h-1.8l1.1-1.5c0.8-1.1,1.3-2.5,1.6-4.3c-5-2.2-7.8-6.5-7.8-12.2c0-8.6,6.5-13.9,16.9-13.9
		s16.9,5.3,16.9,13.9c0,8.7-6.3,13.9-16.9,13.9c-0.2,0-0.5,0-0.7,0C342.7,509.8,339.9,511.9,335,511.9z M345,481.9
		c-9.4,0-15.1,4.5-15.1,12.1c0,6.5,4,9.4,7.3,10.7l0.7,0.3l-0.1,0.7c-0.2,1.7-0.6,3.1-1.1,4.3c3.4-0.4,5.4-2.1,6.5-3.6l0.3-0.4
		l0.6,0c0.3,0,0.6,0,1,0c13.6,0,15.1-8.4,15.1-12.1C360.1,486.4,354.4,481.9,345,481.9z"/>
</g>
<g id="Icon_Archive">
	<path fill="#FF6666" d="M412,490h-2v-5c0-0.6-0.4-1-1-1h-28c-0.6,0-1,0.4-1,1v5h-2v-5c0-1.7,1.3-3,3-3h28c1.7,0,3,1.3,3,3V490z"/>
	<path fill="#FF6666" d="M407,510h-24c-1.7,0-3-1.3-3-3v-17h2v17c0,0.6,0.4,1,1,1h24c0.6,0,1-0.4,1-1v-17h2v17
		C410,508.7,408.7,510,407,510z"/>
	<path fill="#FF6666" d="M399,496h-8c-0.6,0-1-0.4-1-1s0.4-1,1-1h8c0.6,0,1,0.4,1,1S399.6,496,399,496z"/>
	<rect x="378" y="488" fill="#FF6666" width="34" height="2"/>
</g>
<g id="Icon_Trophy">
	<path fill="#FF6666" d="M48.6,549.4c3-2.3,7.4-5.7,7.4-18.4v-1H34v1c0,12.7,4.5,16.1,7.4,18.4c1.7,1.3,2.6,2,2.6,3.6v3
		c-1.6,0.2-3.2,0.8-3.8,2H38c-1.1,0-2,0.9-2,2h18c0-1.1-0.9-2-2-2h-2.2c-0.6-1.2-2.1-1.8-3.8-2v-3C46,551.4,46.8,550.7,48.6,549.4z
		 M45,549.9c-0.6-0.8-1.5-1.5-2.3-2.1c-2.7-2.1-6.4-4.9-6.6-15.8h18c-0.2,10.8-3.9,13.7-6.6,15.8C46.5,548.5,45.6,549.1,45,549.9z"
		/>
	<path fill="#FF6666" d="M38.8,547c-0.1,0-10.8-2.3-10.8-14v-1h7v2h-5c0.6,9.2,9.1,11,9.2,11L38.8,547z"/>
	<path fill="#FF6666" d="M51.2,547l-0.4-2c0.4-0.1,8.6-1.9,9.2-11h-5v-2h7v1C62,544.7,51.3,547,51.2,547z"/>
</g>
<g id="Icon_Like">
	<path fill="#FF6666" d="M110,543.2c0-2.1-1.7-3.2-4-3.2h-6.7c0.5-1.8,0.7-3.5,0.7-5c0-5.8-1.6-7-3-7c-0.9,0-1.6,0.1-2.5,0.6
		c-0.2,0.1-0.4,0.4-0.5,0.7l-1,5.4c-1.1,2.8-3.8,5.3-6,7V556c0.8,0,1.6,0.4,2.6,0.9c1.1,0.5,2.2,1.1,3.4,1.1h9.5c2,0,3.5-1.6,3.5-3
		c0-0.3,0-0.5-0.1-0.7c1.2-0.5,2.1-1.5,2.1-2.8c0-0.6-0.1-1.1-0.3-1.6c0.8-0.5,1.5-1.4,1.5-2.4c0-0.6-0.3-1.2-0.6-1.7
		C109.4,545.2,110,544.2,110,543.2z M107.9,543.2c0,1.3-1.3,1.4-1.5,2c-0.2,0.7,0.8,0.9,0.8,2.1c0,1.2-1.5,1.2-1.7,1.9
		c-0.2,0.8,0.5,1,0.5,2.2c0,0.1,0,0.2,0,0.2c-0.2,1-1.7,1.1-2,1.5c-0.3,0.5,0,0.7,0,1.8c0,0.6-0.7,1-1.5,1H93
		c-0.8,0-1.6-0.4-2.6-0.9c-0.8-0.4-1.6-0.8-2.4-1v-10.6c2.5-1.9,5.7-4.7,6.9-8.2c0-0.1,0-0.1,0-0.2l0.9-5c0.3-0.1,0.6-0.2,1.1-0.2
		c0.2,0,1,1.2,1,5c0,1.5-0.3,3.1-0.8,5H97c-0.6,0-1,0.4-1,1s0.4,1,1,1h9C107,542,107.9,542.5,107.9,543.2z"/>
	<path fill="#FF6666" d="M86,558h-6c-1.1,0-2-0.9-2-2v-14c0-1.1,0.9-2,2-2h6c1.1,0,2,0.9,2,2v14C88,557.1,87.1,558,86,558z M86,556
		L86,556 M80,542v14h6l0-14H80z"/>
</g>
<g id="Icon_Credit_Card">
	<path fill="#FF6666" d="M159,558h-28c-1.7,0-3-1.3-3-3v-20c0-1.7,1.3-3,3-3h28c1.7,0,3,1.3,3,3v20C162,556.7,160.7,558,159,558z
		 M131,534c-0.6,0-1,0.4-1,1v20c0,0.6,0.4,1,1,1h28c0.6,0,1-0.4,1-1v-20c0-0.6-0.4-1-1-1H131z"/>
	<rect x="129" y="536" fill="#FF6666" width="32" height="6"/>
	<g>
		<rect x="132" y="546" fill="#FF6666" width="1" height="2"/>
		<rect x="134" y="546" fill="#FF6666" width="1" height="2"/>
		<rect x="136" y="546" fill="#FF6666" width="1" height="2"/>
	</g>
	<g>
		<rect x="139" y="546" fill="#FF6666" width="1" height="2"/>
		<rect x="141" y="546" fill="#FF6666" width="1" height="2"/>
		<rect x="143" y="546" fill="#FF6666" width="1" height="2"/>
	</g>
	<g>
		<rect x="146" y="546" fill="#FF6666" width="1" height="2"/>
		<rect x="148" y="546" fill="#FF6666" width="1" height="2"/>
		<rect x="150" y="546" fill="#FF6666" width="1" height="2"/>
	</g>
	<g>
		<rect x="153" y="546" fill="#FF6666" width="1" height="2"/>
		<rect x="155" y="546" fill="#FF6666" width="1" height="2"/>
		<rect x="157" y="546" fill="#FF6666" width="1" height="2"/>
	</g>
</g>
<g id="Icon_Camera">
	<path fill="#FF6666" d="M209,558h-28c-1.7,0-3-1.3-3-3v-18c0-1.7,1.3-3,3-3h6c0.2,0,0.5-0.2,0.6-0.3l1.1-2.2
		c0.4-0.8,1.4-1.4,2.3-1.4h8c0.9,0,1.9,0.6,2.3,1.4l1.1,2.2c0.1,0.2,0.4,0.3,0.6,0.3h6c1.7,0,3,1.3,3,3v18
		C212,556.7,210.7,558,209,558z M181,536c-0.6,0-1,0.4-1,1v18c0,0.6,0.4,1,1,1h28c0.6,0,1-0.4,1-1v-18c0-0.6-0.4-1-1-1h-6
		c-0.9,0-1.9-0.6-2.3-1.4l-1.1-2.2c-0.1-0.2-0.4-0.3-0.6-0.3h-8c-0.2,0-0.5,0.2-0.6,0.3l-1.1,2.2c-0.4,0.8-1.4,1.4-2.3,1.4H181z"/>
	<path fill="#FF6666" d="M195,554c-5,0-9-4-9-9s4-9,9-9s9,4,9,9S200,554,195,554z M195,538c-3.9,0-7,3.1-7,7s3.1,7,7,7s7-3.1,7-7
		S198.9,538,195,538z"/>
	<circle fill="#FF6666" cx="205" cy="538" r="1"/>
	<rect x="182" y="532" fill="#FF6666" width="4" height="1"/>
	<path fill="#FF6666" d="M195,541v-1c-2.8,0-5,2.2-5,5h1C191,542.8,192.8,541,195,541z"/>
</g>
<path id="Icon_Facebook" fill="#FF6666" d="M46,690v-3c0-1.3,0.3-2,2.4-2H51v-5h-4c-5,0-7,3.3-7,7v3h-4v5h4v15h6v-15h4.4l0.6-5H46z"
	/>
<path id="Icon_Twitter" fill="#FF6666" d="M109.2,686.8c-1.1,0.5-2.2,0.8-3.5,1c1.2-0.8,2.2-1.9,2.7-3.3c-1.2,0.7-2.5,1.2-3.8,1.5
	c-1.1-1.2-2.7-1.9-4.4-1.9c-3.3,0-6,2.7-6,6.1c0,0.5,0,0.9,0.2,1.4c-5-0.2-9.5-2.7-12.5-6.3c-0.5,0.9-0.8,1.9-0.8,3
	c0,2.1,1.1,4,2.7,5c-1,0-1.9-0.3-2.8-0.8c0,0,0,0,0,0.1c0,2.9,2.1,5.4,4.9,5.9c-0.5,0.1-1,0.2-1.6,0.2c-0.4,0-0.8,0-1.1-0.1
	c0.8,2.4,3,4.2,5.7,4.2c-2.1,1.6-4.7,2.6-7.5,2.6c-0.5,0-1,0-1.4-0.1c2.7,1.7,5.8,2.7,9.3,2.7c11.1,0,17.2-9.2,17.2-17.2
	c0-0.3,0-0.5,0-0.8C107.4,689.1,108.4,688.1,109.2,686.8z"/>
<path id="Icon_GitHub" fill-rule="evenodd" clip-rule="evenodd" fill="#FF6666" d="M145,680c-8.3,0-15,6.7-15,15
	c0,6.6,4.3,12.2,10.3,14.2c0.8,0.1,1-0.3,1-0.7c0-0.4,0-1.3,0-2.6c-4.2,0.9-5.1-2-5.1-2c-0.7-1.7-1.7-2.2-1.7-2.2
	c-1.4-0.9,0.1-0.9,0.1-0.9c1.5,0.1,2.3,1.5,2.3,1.5c1.3,2.3,3.5,1.6,4.4,1.2c0.1-1,0.5-1.6,1-2c-3.3-0.4-6.8-1.7-6.8-7.4
	c0-1.6,0.6-3,1.5-4c-0.2-0.4-0.7-1.9,0.1-4c0,0,1.3-0.4,4.1,1.5c1.2-0.3,2.5-0.5,3.8-0.5c1.3,0,2.6,0.2,3.8,0.5
	c2.9-1.9,4.1-1.5,4.1-1.5c0.8,2.1,0.3,3.6,0.1,4c1,1,1.5,2.4,1.5,4c0,5.8-3.5,7-6.8,7.4c0.5,0.5,1,1.4,1,2.8c0,2,0,3.6,0,4.1
	c0,0.4,0.3,0.9,1,0.7c6-2,10.2-7.6,10.2-14.2C160,686.7,153.3,680,145,680z"/>
<g id="Icon_Google_Plus">
	<path fill-rule="evenodd" clip-rule="evenodd" fill="#FF6666" d="M188,693v4.8h7.9c-0.3,2.1-2.4,6-7.9,6c-4.8,0-8.7-4-8.7-8.8
		s3.9-8.8,8.7-8.8c2.7,0,4.5,1.2,5.6,2.2l3.8-3.7c-2.4-2.3-5.6-3.7-9.4-3.7c-7.7,0-14,6.3-14,14s6.3,14,14,14
		c8.1,0,13.4-5.7,13.4-13.7c0-0.9-0.1-1.6-0.2-2.3H188z"/>
	<polygon fill-rule="evenodd" clip-rule="evenodd" fill="#FF6666" points="218,693 214,693 214,689 210,689 210,693 206,693 
		206,697 210,697 210,701 214,701 214,697 218,697 	"/>
</g>
<path id="Icon_VK" fill-rule="evenodd" clip-rule="evenodd" fill="#FF6666" d="M245.1,705.9h2c0,0,0.6-0.1,0.9-0.4
	c0.3-0.3,0.3-0.9,0.3-0.9s0-2.6,1.2-3c1.2-0.4,2.8,2.6,4.4,3.7c1.2,0.9,2.2,0.7,2.2,0.7l4.4-0.1c0,0,2.3-0.1,1.2-2
	c-0.1-0.1-0.6-1.3-3.3-3.8c-2.8-2.6-2.4-2.1,0.9-6.6c2-2.7,2.8-4.3,2.6-5.1c-0.2-0.7-1.7-0.5-1.7-0.5l-5,0c0,0-0.4-0.1-0.6,0.1
	c-0.3,0.2-0.4,0.5-0.4,0.5s-0.8,2.1-1.8,3.9c-2.2,3.7-3.1,3.9-3.4,3.7c-0.8-0.5-0.6-2.2-0.6-3.3c0-3.6,0.6-5.1-1.1-5.5
	c-0.5-0.1-0.9-0.2-2.3-0.2c-1.8,0-3.3,0-4.1,0.4c-0.6,0.3-1,0.9-0.7,0.9c0.3,0,1.1,0.2,1.5,0.7c0.5,0.7,0.5,2.2,0.5,2.2
	s0.3,4.3-0.7,4.8c-0.7,0.4-1.6-0.4-3.6-3.8c-1-1.7-1.8-3.7-1.8-3.7s-0.1-0.4-0.4-0.6c-0.3-0.2-0.8-0.3-0.8-0.3l-4.7,0
	c0,0-0.7,0-1,0.3c-0.2,0.3,0,0.8,0,0.8s3.7,8.6,7.9,13C240.8,706.2,245.1,705.9,245.1,705.9L245.1,705.9z"/>
<g id="Icon_Odnoklassniki">
	<path fill="#FF6666" d="M295,696c-4.4,0-8-3.6-8-8s3.6-8,8-8s8,3.6,8,8S299.4,696,295,696z M295,683.8c-2.3,0-4.2,1.9-4.2,4.2
		s1.9,4.2,4.2,4.2s4.2-1.9,4.2-4.2S297.3,683.8,295,683.8z"/>
	<path fill="#FF6666" d="M303.6,696.8c-0.7-0.9-1.9-1-2.8-0.4c0,0-2.2,1.6-5.8,1.6c-3.6,0-5.8-1.6-5.8-1.6c-0.9-0.7-2.1-0.5-2.8,0.4
		c-0.7,0.9-0.5,2.1,0.4,2.8c0.1,0.1,2.2,1.7,5.7,2.2l-5.3,5.4c-0.8,0.8-0.8,2.1,0,2.8c0.4,0.4,0.9,0.6,1.4,0.6c0.5,0,1-0.2,1.4-0.6
		l5-5.1l5,5.1c0.4,0.4,0.9,0.6,1.4,0.6c0.5,0,1-0.2,1.4-0.6c0.8-0.8,0.8-2,0-2.8l-5.3-5.4c3.5-0.6,5.6-2.2,5.7-2.2
		C304.1,698.9,304.3,697.6,303.6,696.8z"/>
</g>
<g id="Icon_SoundCloud">
	<path fill="#FF6666" d="M360,694c-0.1,0-0.1,0-0.2,0c-0.9-4.6-5-8-9.8-8c-3.1,0-5.9,1.4-7.7,3.7c-0.2,0.3-0.3,0.7-0.3,1.2l-0.4,9.1
		l0.4,5.5c0,0.3,0.3,0.5,0.5,0.5H360c3.3,0,6-2.7,6-6S363.3,694,360,694z"/>
	<path fill="#FF6666" d="M338.9,690c-0.3,0-0.5,0.2-0.5,0.5l-0.8,9c0,0.3,0,0.7,0,1l0.8,5c0,0.3,0.3,0.5,0.6,0.5h0.2
		c0.3,0,0.5-0.2,0.6-0.5l0.8-5c0-0.3,0.1-0.7,0-1l-0.8-9c0-0.3-0.3-0.5-0.5-0.5H338.9z"/>
	<path fill="#FF6666" d="M334.9,691c-0.3,0-0.5,0.2-0.5,0.5l-0.8,8c0,0.3,0,0.7,0,1l0.8,5c0,0.3,0.3,0.5,0.6,0.5h0.2
		c0.3,0,0.5-0.2,0.6-0.5l0.8-5c0-0.3,0.1-0.7,0-1l-0.8-8c0-0.3-0.3-0.5-0.5-0.5H334.9z"/>
	<path fill="#FF6666" d="M331,694c-0.3,0-0.5,0.2-0.6,0.5l-0.8,5c0,0.3,0,0.7,0,1l0.8,5c0,0.3,0.3,0.5,0.6,0.5l0,0
		c0.3,0,0.5-0.2,0.6-0.5l0.8-5c0-0.3,0-0.7,0-1l-0.8-5C331.5,694.2,331.3,694,331,694L331,694z"/>
	<path fill="#FF6666" d="M327,693c-0.3,0-0.5,0.2-0.6,0.5l-0.9,6c0,0.3,0,0.7,0,1l0.8,5c0,0.3,0.3,0.5,0.6,0.5l0,0
		c0.3,0,0.5-0.2,0.6-0.5l0.8-5c0-0.3,0.1-0.7,0-1l-0.9-6C327.5,693.2,327.3,693,327,693L327,693z"/>
	<path fill="#FF6666" d="M323.3,696c-0.3,0-0.5,0.2-0.6,0.5l-0.6,3c-0.1,0.3-0.1,0.7,0,1l0.6,4c0,0.3,0.3,0.5,0.6,0.5l0,0
		c0.3,0,0.5-0.2,0.6-0.5l0.6-4c0-0.3,0-0.7,0-1l-0.6-3C323.8,696.2,323.6,696,323.3,696L323.3,696z"/>
</g>
<path id="Icon_Tumblr" fill="#FF6666" d="M400.9,702.4c-0.5,0.2-1.5,0.5-2.3,0.5c-2.2,0.1-2.7-1.6-2.7-2.8v-8.7h5.6v-4.2H396V680
	c0,0-4,0-4.1,0c-0.1,0-0.2,0.1-0.2,0.2c-0.2,2.2-1.3,6-5.5,7.5v3.6h2.8v9.1c0,3.1,2.3,7.6,8.4,7.5c2.1,0,4.3-0.9,4.8-1.6
	L400.9,702.4z"/>
<path id="Icon_Instagram" fill-rule="evenodd" clip-rule="evenodd" fill="#FF6666" d="M55,743h-2.3c0.2,0.6,0.3,1.3,0.3,2
	c0,4.4-3.6,8-8,8c-4.4,0-8-3.6-8-8c0-0.7,0.1-1.4,0.3-2H35v11c0,0.6,0.4,1,1,1h18c0.6,0,1-0.4,1-1V743z M55,736c0-0.6-0.4-1-1-1h-3
	c-0.6,0-1,0.4-1,1v3c0,0.6,0.4,1,1,1h3c0.6,0,1-0.4,1-1V736z M45,740c-2.8,0-5,2.2-5,5c0,2.8,2.2,5,5,5c2.8,0,5-2.2,5-5
	C50,742.2,47.8,740,45,740 M55,758H35c-1.7,0-3-1.3-3-3v-20c0-1.7,1.3-3,3-3h20c1.7,0,3,1.3,3,3v20C58,756.7,56.7,758,55,758"/>
<g id="Icon_LinkedIn">
	<path fill="#FF6666" d="M106.1,732H83.9c-1.1,0-1.9,0.8-1.9,1.9v22.2c0,1,0.9,1.9,1.9,1.9h22.2c1.1,0,1.9-0.8,1.9-1.9v-22.2
		C108,732.8,107.1,732,106.1,732z M90,754h-4v-12h4V754z M88,740.4c-1.3,0-2.4-1.1-2.4-2.4c0-1.3,1.1-2.4,2.4-2.4
		c1.3,0,2.4,1.1,2.4,2.4C90.4,739.3,89.3,740.4,88,740.4z M104,754h-4v-6c0-1.6-0.4-3.2-2-3.2s-2,1.6-2,3.2v6h-4v-12h4v1.4h0.2
		c0.5-1,1.8-1.8,3.3-1.8c3.7,0,4.5,2.4,4.5,5.4V754z"/>
</g>
<path id="Icon_Skype" fill="#FF6666" d="M158,747.3c0.1-0.8,0.2-1.6,0.2-2.4c0-1.8-0.3-3.5-1-5.1c-0.7-1.6-1.6-3-2.8-4.2
	c-1.2-1.2-2.6-2.2-4.2-2.8c-1.6-0.7-3.4-1-5.1-1c-0.8,0-1.7,0.1-2.5,0.2c0,0,0,0,0,0c-1.1-0.6-2.4-0.9-3.7-0.9
	c-2.1,0-4.1,0.8-5.5,2.3c-1.5,1.5-2.3,3.4-2.3,5.5c0,1.3,0.3,2.6,1,3.8c-0.1,0.7-0.2,1.5-0.2,2.3c0,1.8,0.3,3.5,1,5.1
	c0.7,1.6,1.6,3,2.8,4.2c1.2,1.2,2.6,2.2,4.2,2.8c1.6,0.7,3.4,1,5.1,1c0.8,0,1.6-0.1,2.3-0.2c1.2,0.7,2.5,1,3.9,1
	c2.1,0,4.1-0.8,5.5-2.3c1.5-1.5,2.3-3.4,2.3-5.5C159,749.8,158.7,748.5,158,747.3z M145.1,753c-4.7,0-6.8-2.3-6.8-4
	c0-0.9,0.7-1.5,1.6-1.5c2,0,1.5,2.9,5.2,2.9c1.9,0,3-1,3-2.1c0-0.6-0.3-1.4-1.6-1.7l-4.2-1c-3.4-0.8-4-2.7-4-4.4
	c0-3.6,3.3-4.9,6.5-4.9c2.9,0,6.3,1.6,6.3,3.7c0,0.9-0.8,1.4-1.7,1.4c-1.7,0-1.4-2.4-4.9-2.4c-1.7,0-2.7,0.8-2.7,1.9
	c0,1.1,1.4,1.5,2.5,1.7l3.1,0.7c3.4,0.8,4.2,2.7,4.2,4.6C151.7,750.8,149.5,753,145.1,753z"/>
<path id="Icon_YouTube" fill="#FF6666" d="M209.7,738.6c0,0-0.3-2.1-1.2-3c-1.1-1.2-2.4-1.2-3-1.3C201.3,734,195,734,195,734h0
	c0,0-6.3,0-10.5,0.3c-0.6,0.1-1.9,0.1-3,1.3c-0.9,0.9-1.2,3-1.2,3s-0.3,2.4-0.3,4.9v2.2c0,2.4,0.3,4.9,0.3,4.9s0.3,2.1,1.2,3
	c1.1,1.2,2.6,1.2,3.3,1.3c2.4,0.2,10.2,0.3,10.2,0.3s6.3,0,10.5-0.3c0.6-0.1,1.9-0.1,3-1.3c0.9-0.9,1.2-3,1.2-3s0.3-2.4,0.3-4.9
	v-2.2C210,741,209.7,738.6,209.7,738.6z M191.9,748.4l0-8.4l8.1,4.2L191.9,748.4z"/>
<path id="Icon_Vimeo" fill="#FF6666" d="M258,739.6c-0.1,2.7-2,6.4-5.6,11.1c-3.8,4.9-7,7.4-9.6,7.4c-1.6,0-3-1.5-4.1-4.5
	c-0.7-2.7-1.5-5.5-2.2-8.2c-0.8-3-1.7-4.5-2.7-4.5c-0.2,0-0.9,0.4-2.2,1.3l-1.3-1.7c1.4-1.2,2.7-2.4,4-3.6c1.8-1.6,3.2-2.4,4.1-2.5
	c2.2-0.2,3.5,1.3,4,4.4c0.5,3.4,0.9,5.5,1.1,6.4c0.6,2.8,1.3,4.2,2.1,4.2c0.6,0,1.5-0.9,2.6-2.8c1.2-1.8,1.8-3.2,1.9-4.2
	c0.2-1.6-0.5-2.4-1.9-2.4c-0.7,0-1.3,0.2-2,0.5c1.4-4.5,4-6.6,7.8-6.5C256.8,734.1,258.2,735.9,258,739.6z"/>
<path id="Spinner_3" fill="#FF6666" d="M411.9,543.9c-0.3-6.1-4-11.8-9.5-14.4c-6-2.7-13.3-1.6-18.3,2.6c-4.8,4-7,10.5-5.6,16.6
	c1.3,6,6,10.9,11.9,12.5c7.1,1.9,13.6-1.5,17.6-7.3c-3.6,4.8-9.1,8-15.2,6.9c-6.1-1.1-11.1-5.7-12.5-11.7
	c-1.5-6.4,1.5-13.1,7.2-16.4c5.9-3.4,14.2-2.1,18.1,3.7c1,1.4,1.7,3.1,2,4.8c0.3,1.4,0.2,2.9,0.4,4.3c0.2,1.3,1.3,3,2.8,2.1
	C412.1,546.9,412,545.2,411.9,543.9C411.9,543.5,412,544.6,411.9,543.9z"/>
<g id="Spinner_2">
	<circle fill="#FF6666" cx="345" cy="530" r="2"/>
	<circle opacity="0.3" fill="#FF6666" cx="345" cy="560" r="2"/>
	
		<ellipse transform="matrix(0.5 -0.866 0.866 0.5 -284.4839 571.2787)" opacity="0.3" fill="#FF6666" cx="352.5" cy="532" rx="2" ry="2"/>
	
		<ellipse transform="matrix(0.5 -0.866 0.866 0.5 -314.4839 571.2787)" opacity="0.3" fill="#FF6666" cx="337.5" cy="558" rx="2" ry="2"/>
	
		<ellipse transform="matrix(0.866 -0.5 0.5 0.866 -220.7884 240.0258)" opacity="0.93" fill="#FF6666" cx="337.5" cy="532" rx="2" ry="2"/>
	
		<ellipse transform="matrix(0.866 -0.5 0.5 0.866 -231.7691 251.0065)" opacity="0.3" fill="#FF6666" cx="352.5" cy="558" rx="2" ry="2"/>
	<circle opacity="0.65" fill="#FF6666" cx="330" cy="545" r="2"/>
	<circle opacity="0.3" fill="#FF6666" cx="360" cy="545" r="2"/>
	
		<ellipse transform="matrix(0.5 -0.866 0.866 0.5 -299.4839 556.2787)" opacity="0.86" fill="#FF6666" cx="332" cy="537.5" rx="2" ry="2"/>
	
		<ellipse transform="matrix(0.5 -0.866 0.866 0.5 -299.4839 586.2787)" opacity="0.3" fill="#FF6666" cx="358" cy="552.5" rx="2" ry="2"/>
	
		<ellipse transform="matrix(0.866 -0.5 0.5 0.866 -231.7691 240.0258)" opacity="0.44" fill="#FF6666" cx="332" cy="552.5" rx="2" ry="2"/>
	
		<ellipse transform="matrix(0.866 -0.5 0.5 0.866 -220.7884 251.0065)" opacity="0.3" fill="#FF6666" cx="358" cy="537.5" rx="2" ry="2"/>
</g>
<g id="Spinner">
	<path fill="#FF6666" d="M295,538c-0.6,0-1-0.4-1-1v-8c0-0.6,0.4-1,1-1s1,0.4,1,1v8C296,537.6,295.6,538,295,538z"/>
	<path opacity="0.3" fill="#FF6666" d="M295,562c-0.6,0-1-0.4-1-1v-8c0-0.6,0.4-1,1-1s1,0.4,1,1v8C296,561.6,295.6,562,295,562z"/>
	<path opacity="0.3" fill="#FF6666" d="M299,539c-0.2,0-0.3,0-0.5-0.1c-0.4-0.3-0.6-0.8-0.3-1.3l4-6.9c0.3-0.4,0.8-0.6,1.3-0.3
		c0.4,0.3,0.6,0.8,0.3,1.3l-4,6.9C299.6,538.8,299.3,539,299,539z"/>
	<path opacity="0.3" fill="#FF6666" d="M287,559.8c-0.2,0-0.3,0-0.5-0.1c-0.4-0.3-0.6-0.8-0.3-1.3l4-6.9c0.3-0.4,0.8-0.6,1.3-0.3
		c0.4,0.3,0.6,0.8,0.3,1.3l-4,6.9C287.6,559.6,287.3,559.8,287,559.8z"/>
	<path opacity="0.93" fill="#FF6666" d="M291,539c-0.3,0-0.6-0.2-0.8-0.5l-4-6.9c-0.3-0.4-0.1-1,0.3-1.3c0.4-0.3,1-0.1,1.3,0.3
		l4,6.9c0.3,0.4,0.1,1-0.3,1.3C291.3,539,291.2,539,291,539z"/>
	<path opacity="0.3" fill="#FF6666" d="M303,559.8c-0.3,0-0.6-0.2-0.8-0.5l-4-6.9c-0.3-0.4-0.1-1,0.3-1.3c0.4-0.3,1-0.1,1.3,0.3
		l4,6.9c0.3,0.4,0.1,1-0.3,1.3C303.3,559.7,303.2,559.8,303,559.8z"/>
	<path opacity="0.65" fill="#FF6666" d="M287,546h-8c-0.6,0-1-0.4-1-1s0.4-1,1-1h8c0.6,0,1,0.4,1,1S287.6,546,287,546z"/>
	<path opacity="0.3" fill="#FF6666" d="M311,546h-8c-0.6,0-1-0.4-1-1s0.4-1,1-1h8c0.6,0,1,0.4,1,1S311.6,546,311,546z"/>
	<path opacity="0.86" fill="#FF6666" d="M288.1,541.9c-0.2,0-0.3,0-0.5-0.1l-6.9-4c-0.4-0.3-0.6-0.8-0.3-1.3
		c0.3-0.4,0.8-0.6,1.3-0.3l6.9,4c0.4,0.3,0.6,0.8,0.3,1.3C288.7,541.8,288.4,541.9,288.1,541.9z"/>
	<path opacity="0.3" fill="#FF6666" d="M308.9,553.9c-0.2,0-0.3,0-0.5-0.1l-6.9-4c-0.4-0.3-0.6-0.8-0.3-1.3c0.3-0.4,0.8-0.6,1.3-0.3
		l6.9,4c0.4,0.3,0.6,0.8,0.3,1.3C309.5,553.8,309.2,553.9,308.9,553.9z"/>
	<path opacity="0.44" fill="#FF6666" d="M281.1,553.9c-0.3,0-0.6-0.2-0.8-0.5c-0.3-0.4-0.1-1,0.3-1.3l6.9-4c0.4-0.3,1-0.1,1.3,0.3
		c0.3,0.4,0.1,1-0.3,1.3l-6.9,4C281.5,553.9,281.3,553.9,281.1,553.9z"/>
	<path opacity="0.3" fill="#FF6666" d="M301.9,541.9c-0.3,0-0.6-0.2-0.8-0.5c-0.3-0.4-0.1-1,0.3-1.3l6.9-4c0.4-0.3,1-0.1,1.3,0.3
		c0.3,0.4,0.1,1-0.3,1.3l-6.9,4C302.2,541.9,302.1,541.9,301.9,541.9z"/>
</g>
<g id="Header">
	<g>
		<g>
			<path fill="#E6E6E6" d="M225,42l-0.1-0.1C224.9,42,225,42,225,42z"/>
			<linearGradient id="SVGID_1_" gradientUnits="userSpaceOnUse" x1="228.75" y1="38.25" x2="208.75" y2="18.25">
				<stop  offset="0" style="stop-color:#F38687"/>
				<stop  offset="1" style="stop-color:#F4CC98"/>
			</linearGradient>
			<path fill="url(#SVGID_1_)" d="M225,42l5-10l-20-15c0,0,13.5,23.1,14.9,24.9L225,42z"/>
			<linearGradient id="SVGID_2_" gradientUnits="userSpaceOnUse" x1="206.25" y1="65.75" x2="188.75" y2="48.25">
				<stop  offset="0" style="stop-color:#FB9161"/>
				<stop  offset="1" style="stop-color:#FFCD74"/>
			</linearGradient>
			<polygon fill="url(#SVGID_2_)" points="195,57 200,72 200,57 195,42 			"/>
			<linearGradient id="SVGID_3_" gradientUnits="userSpaceOnUse" x1="227.3763" y1="39.3763" x2="207.5" y2="19.5">
				<stop  offset="0" style="stop-color:#FACD8E"/>
				<stop  offset="1" style="stop-color:#F1DFBC"/>
			</linearGradient>
			<path fill="url(#SVGID_3_)" d="M210,17v10l14.9,14.9C223.5,40.1,210,17,210,17z"/>
			<linearGradient id="SVGID_4_" gradientUnits="userSpaceOnUse" x1="208.75" y1="48.25" x2="196.25" y2="35.75">
				<stop  offset="0" style="stop-color:#F2BD6B"/>
				<stop  offset="1" style="stop-color:#FAD68E"/>
			</linearGradient>
			<polygon fill="url(#SVGID_4_)" points="205,27 195,42 200,57 205,37 			"/>
			<linearGradient id="SVGID_5_" gradientUnits="userSpaceOnUse" x1="207.4946" y1="57" x2="207.4946" y2="37">
				<stop  offset="0" style="stop-color:#F57A5B"/>
				<stop  offset="1" style="stop-color:#F7BC89"/>
			</linearGradient>
			<polygon fill="url(#SVGID_5_)" points="200,57 215,52 205,37 			"/>
			<linearGradient id="SVGID_6_" gradientUnits="userSpaceOnUse" x1="221.25" y1="45.75" x2="206.25" y2="30.75">
				<stop  offset="0" style="stop-color:#F87C7A"/>
				<stop  offset="1" style="stop-color:#FFAC8E"/>
			</linearGradient>
			<path fill="url(#SVGID_6_)" d="M224.9,41.9L210,27l-5,10l20,5C225,42,224.9,42,224.9,41.9z"/>
			<linearGradient id="SVGID_7_" gradientUnits="userSpaceOnUse" x1="243.75" y1="43.25" x2="226.25" y2="25.75">
				<stop  offset="0" style="stop-color:#F1475F"/>
				<stop  offset="1" style="stop-color:#EF6D83"/>
			</linearGradient>
			<polygon fill="url(#SVGID_7_)" points="245,37 230,22 240,47 			"/>
			<linearGradient id="SVGID_8_" gradientUnits="userSpaceOnUse" x1="235" y1="57" x2="235" y2="22">
				<stop  offset="0" style="stop-color:#F4775A"/>
				<stop  offset="1" style="stop-color:#F4866E"/>
			</linearGradient>
			<polygon fill="url(#SVGID_8_)" points="230,22 235,42 240,57 240,47 			"/>
			<linearGradient id="SVGID_9_" gradientUnits="userSpaceOnUse" x1="215.0039" y1="52" x2="215.0039" y2="37">
				<stop  offset="0" style="stop-color:#F29D82"/>
				<stop  offset="1" style="stop-color:#F0D8A4"/>
			</linearGradient>
			<path fill="url(#SVGID_9_)" d="M225,42l-20-5l10,15C215,52,225.3,41.8,225,42z"/>
			<linearGradient id="SVGID_10_" gradientUnits="userSpaceOnUse" x1="250" y1="62" x2="235" y2="47">
				<stop  offset="0" style="stop-color:#E13B7A"/>
				<stop  offset="1" style="stop-color:#EC5D74"/>
			</linearGradient>
			<polygon fill="url(#SVGID_10_)" points="240,47 240,57 240,72 245,57 245,37 			"/>
			<linearGradient id="SVGID_11_" gradientUnits="userSpaceOnUse" x1="225" y1="52" x2="217.5" y2="44.5">
				<stop  offset="0" style="stop-color:#F17B5F"/>
				<stop  offset="1" style="stop-color:#F4926B"/>
			</linearGradient>
			<path fill="url(#SVGID_11_)" d="M230,32l-5,10c0.3-0.2-10,10-10,10l-5,10l25-20L230,32z"/>
			<linearGradient id="SVGID_12_" gradientUnits="userSpaceOnUse" x1="233.75" y1="63.25" x2="221.25" y2="50.75">
				<stop  offset="0" style="stop-color:#F05778"/>
				<stop  offset="1" style="stop-color:#F894A5"/>
			</linearGradient>
			<polygon fill="url(#SVGID_12_)" points="210,62 240,57 235,42 			"/>
		</g>
		<linearGradient id="SVGID_13_" gradientUnits="userSpaceOnUse" x1="212.5" y1="79.5" x2="202.5" y2="69.5">
			<stop  offset="0" style="stop-color:#FB9161"/>
			<stop  offset="1" style="stop-color:#FFCD74"/>
		</linearGradient>
		<polygon fill="url(#SVGID_13_)" points="205,67 210,82 210,77 		"/>
		<linearGradient id="SVGID_14_" gradientUnits="userSpaceOnUse" x1="212.5" y1="79.5" x2="210" y2="77">
			<stop  offset="0" style="stop-color:#F05778"/>
			<stop  offset="1" style="stop-color:#F894A5"/>
		</linearGradient>
		<polygon fill="url(#SVGID_14_)" points="210,82 215,77 210,77 		"/>
		<linearGradient id="SVGID_15_" gradientUnits="userSpaceOnUse" x1="213.75" y1="78.25" x2="203.75" y2="68.25">
			<stop  offset="0" style="stop-color:#F38687"/>
			<stop  offset="1" style="stop-color:#F4CC98"/>
		</linearGradient>
		<polygon fill="url(#SVGID_15_)" points="205,67 215,77 210,77 		"/>
		<linearGradient id="SVGID_16_" gradientUnits="userSpaceOnUse" x1="231.25" y1="80.75" x2="226.25" y2="75.75">
			<stop  offset="0" style="stop-color:#F05778"/>
			<stop  offset="1" style="stop-color:#F894A5"/>
		</linearGradient>
		<polygon fill="url(#SVGID_16_)" points="225,77 230,82 230,77 		"/>
		<linearGradient id="SVGID_17_" gradientUnits="userSpaceOnUse" x1="235" y1="77" x2="230" y2="72">
			<stop  offset="0" style="stop-color:#E13B7A"/>
			<stop  offset="1" style="stop-color:#EC5D74"/>
		</linearGradient>
		<polygon fill="url(#SVGID_17_)" points="235,67 230,82 230,77 		"/>
		<linearGradient id="SVGID_18_" gradientUnits="userSpaceOnUse" x1="232.5" y1="74.5" x2="230" y2="72">
			<stop  offset="0" style="stop-color:#F4775A"/>
			<stop  offset="1" style="stop-color:#F4866E"/>
		</linearGradient>
		<polygon fill="url(#SVGID_18_)" points="225,77 235,67 230,77 		"/>
	</g>
	<g>
		<path d="M186.3,104h8.5v0.8h-7.6v4.6h6.2v0.8h-6.2v5.5h7.9v0.8h-8.8V104z"/>
		<path d="M194.9,108h1l3.5,7.5l3.4-7.5h1l-4,8.7h-0.8L194.9,108z"/>
		<path d="M205.4,104.3c0.4,0,0.7,0.3,0.7,0.7s-0.3,0.7-0.7,0.7s-0.7-0.3-0.7-0.7S205,104.3,205.4,104.3z M205,108h0.9v8.6H205V108z
			"/>
		<path d="M208.1,114.8V104h0.9v10.6c0,0.9,0.4,1.4,1.3,1.4c0.3,0,0.6-0.1,0.9-0.3v0.8c-0.4,0.2-0.8,0.3-1.2,0.3
			C209.1,116.8,208.1,116.4,208.1,114.8z"/>
		<path d="M216.6,104h0.9v12.6h-0.9V104z"/>
		<path d="M219.5,112.3c0-2.5,1.9-4.5,4.6-4.5c1,0,1.9,0.3,2.6,0.7v0.8c-0.8-0.5-1.6-0.7-2.5-0.7c-2.1,0-3.8,1.6-3.8,3.7
			c0,2.1,1.6,3.7,3.8,3.7c1.1,0,1.9-0.3,2.6-0.8v0.9c-0.8,0.5-1.7,0.8-2.8,0.8C221.4,116.8,219.5,114.8,219.5,112.3z"/>
		<path d="M227.5,112.3c0-2.4,1.8-4.5,4.6-4.5c2.8,0,4.6,2.1,4.6,4.5c0,2.4-1.8,4.5-4.6,4.5C229.3,116.8,227.5,114.7,227.5,112.3z
			 M235.8,112.3c0-2.1-1.6-3.7-3.7-3.7c-2.1,0-3.7,1.6-3.7,3.7c0,2.1,1.6,3.7,3.7,3.7C234.2,116,235.8,114.4,235.8,112.3z"/>
		<path d="M238.3,116.6V108h0.9v1.5c0.7-0.8,1.9-1.7,3.6-1.7c2.2,0,3.3,1.3,3.3,3.6v5.2h-0.9v-5.1c0-2.5-1.6-2.9-2.7-2.9
			c-1.4,0-2.8,1-3.4,2v6H238.3z"/>
		<path d="M247.4,115.9V115c0.6,0.4,1.9,1,3.5,1c1.6,0,2.7-0.6,2.7-1.7c0-1-1.2-1.4-2.9-1.8c-1.6-0.4-3.1-0.9-3.1-2.4
			c0-1.4,1.2-2.3,3.3-2.3c1.1,0,2.4,0.3,3.1,0.8v0.9c-0.8-0.5-1.9-0.9-3.1-0.9c-1.7,0-2.5,0.7-2.5,1.5c0,1.1,1.3,1.4,2.6,1.7
			c1.7,0.4,3.4,0.8,3.4,2.5c0,1.6-1.6,2.4-3.6,2.4C249.4,116.8,248.1,116.4,247.4,115.9z"/>
	</g>
	<text transform="matrix(1 0 0 1 257 105.6035)" fill="#CCCCCC" font-family="'ArialMT'" font-size="12px">v1.7.8</text>
	<text transform="matrix(1 0 0 1 188.6553 135.6035)" fill="#CCCCCC" font-family="'ArialMT'" font-size="12px">evil-icons.io</text>
	<text transform="matrix(1 0 0 1 54.1738 201)" fill="#CCCCCC" font-family="'ArialMT'" font-size="12px">Sponsored by evilmartians.com. Questions → @romanshamin</text>
	<text transform="matrix(1 0 0 1 63.25 174)" fill="#FF6666" font-family="'ArialMT'" font-size="12px">Hint: to keep icons sharp, use the scale of 0.5x, 2x, 4x, etc.</text>
</g>
<path fill="#FF6666" d="M295,730c-8.3,0-15,6.7-15,15c0,6.4,4,11.8,9.5,14c-0.1-1.2-0.2-3,0.1-4.3c0.3-1.2,1.8-7.5,1.8-7.5
	s-0.4-0.9-0.4-2.2c0-2.1,1.2-3.6,2.7-3.6c1.3,0,1.9,1,1.9,2.1c0,1.3-0.8,3.2-1.2,5c-0.4,1.5,0.7,2.7,2.2,2.7c2.7,0,4.7-2.8,4.7-6.9
	c0-3.6-2.6-6.1-6.3-6.1c-4.3,0-6.8,3.2-6.8,6.5c0,1.3,0.5,2.7,1.1,3.4c0.1,0.1,0.1,0.3,0.1,0.4c-0.1,0.5-0.4,1.5-0.4,1.7
	c-0.1,0.3-0.2,0.3-0.5,0.2c-1.9-0.9-3-3.6-3-5.8c0-4.7,3.4-9.1,9.9-9.1c5.2,0,9.2,3.7,9.2,8.7c0,5.2-3.3,9.3-7.8,9.3
	c-1.5,0-2.9-0.8-3.4-1.7c0,0-0.8,2.9-0.9,3.6c-0.3,1.3-1.3,2.9-1.9,3.9c1.4,0.4,2.9,0.7,4.4,0.7c8.3,0,15-6.7,15-15
	S303.3,730,295,730z"/>
<path fill="#FF6666" d="M357.1,733l-27.7,11c-0.9,0.3-0.8,1.6,0.1,1.9l7,2.2l2.8,8.8c0.2,0.7,1.1,0.9,1.6,0.4l4.1-3.8l7.8,5.7
	c0.6,0.4,1.4,0.1,1.6-0.6l5.4-23.2C360.1,733.7,358.6,732.4,357.1,733z M340.9,749.8L340,755l-2-7.2l19.5-12.8L340.9,749.8z"/>
</svg>
