<?xml version="1.0" encoding="utf-8"?>
<!-- Generator: Adobe Illustrator 18.1.0, SVG Export Plug-In . SVG Version: 6.00 Build 0)  -->
<!DOCTYPE svg PUBLIC "-//W3C//DTD SVG 1.1//EN" "http://www.w3.org/Graphics/SVG/1.1/DTD/svg11.dtd">
<svg version="1.1" xmlns="http://www.w3.org/2000/svg" xmlns:xlink="http://www.w3.org/1999/xlink" x="0px" y="0px"
	 viewBox="0 0 50 50" enable-background="new 0 0 50 50" xml:space="preserve">
<g id="Grids" display="none">
	<g display="inline">
		<g id="Grid_4x4_104_">
			<rect x="-4" y="-4" opacity="0.2" fill="#FF00FF" width="4" height="4"/>
		</g>
		<g id="Grid_4x4_103_">
			<rect x="4" y="-4" opacity="0.2" fill="#FF00FF" width="4" height="4"/>
			<rect x="12" y="-4" opacity="0.2" fill="#FF00FF" width="4" height="4"/>
			<rect x="20" y="-4" opacity="0.2" fill="#FF00FF" width="4" height="4"/>
			<rect x="30" y="-4" opacity="0.2" fill="#FF00FF" width="4" height="4"/>
			<rect x="38" y="-4" opacity="0.2" fill="#FF00FF" width="4" height="4"/>
			<rect x="46" y="-4" opacity="0.2" fill="#FF00FF" width="4" height="4"/>
		</g>
		<g id="Grid_4x4_102_">
		</g>
	</g>
	<g display="inline">
		<g id="Grid_4x4_96_">
			<rect x="-4" y="4" opacity="0.2" fill="#FF00FF" width="4" height="4"/>
			<rect x="-4" y="12" opacity="0.2" fill="#FF00FF" width="4" height="4"/>
			<rect x="-4" y="20" opacity="0.2" fill="#FF00FF" width="4" height="4"/>
			<rect x="-4" y="30" opacity="0.2" fill="#FF00FF" width="4" height="4"/>
			<rect x="-4" y="38" opacity="0.2" fill="#FF00FF" width="4" height="4"/>
			<rect x="-4" y="46" opacity="0.2" fill="#FF00FF" width="4" height="4"/>
		</g>
		<g id="Grid_4x4_95_">
			<rect opacity="0.2" fill="#FF00FF" width="4" height="4"/>
			<rect x="4" y="4" opacity="0.2" fill="#FF00FF" width="4" height="4"/>
			<rect x="8" opacity="0.2" fill="#FF00FF" width="4" height="4"/>
			<rect x="12" y="4" opacity="0.2" fill="#FF00FF" width="4" height="4"/>
			<rect x="16" opacity="0.2" fill="#FF00FF" width="4" height="4"/>
			<rect x="20" y="4" opacity="0.2" fill="#FF00FF" width="4" height="4"/>
			<rect x="26" opacity="0.2" fill="#FF00FF" width="4" height="4"/>
			<rect x="30" y="4" opacity="0.2" fill="#FF00FF" width="4" height="4"/>
			<rect y="8" opacity="0.2" fill="#FF00FF" width="4" height="4"/>
			<rect x="4" y="12" opacity="0.2" fill="#FF00FF" width="4" height="4"/>
			<rect x="20" y="14" opacity="0.2" fill="#FF00FF" width="4" height="2"/>
			<rect x="30" y="14" opacity="0.2" fill="#FF00FF" width="4" height="2"/>
			<rect y="16" opacity="0.2" fill="#FF00FF" width="4" height="4"/>
			<rect x="4" y="20" opacity="0.2" fill="#FF00FF" width="4" height="4"/>
			<rect x="14" y="20" opacity="0.2" fill="#FF00FF" width="2" height="4"/>
			<rect x="16" y="16" opacity="0.2" fill="#FF00FF" width="4" height="4"/>
			<rect x="20" y="20" opacity="0.2" fill="#FF00FF" width="4" height="4"/>
			<rect x="26" y="16" opacity="0.2" fill="#FF00FF" width="4" height="4"/>
			<rect x="30" y="20" opacity="0.2" fill="#FF00FF" width="4" height="4"/>
			<rect y="26" opacity="0.2" fill="#FF00FF" width="4" height="4"/>
			<rect x="4" y="30" opacity="0.2" fill="#FF00FF" width="4" height="4"/>
			<rect x="14" y="30" opacity="0.2" fill="#FF00FF" width="2" height="4"/>
			<rect x="16" y="26" opacity="0.2" fill="#FF00FF" width="4" height="4"/>
			<rect x="20" y="30" opacity="0.2" fill="#FF00FF" width="4" height="4"/>
			<rect x="26" y="26" opacity="0.2" fill="#FF00FF" width="4" height="4"/>
			<rect x="34" opacity="0.2" fill="#FF00FF" width="4" height="4"/>
			<rect x="34" y="16" opacity="0.2" fill="#FF00FF" width="2" height="4"/>
			<rect x="34" y="26" opacity="0.2" fill="#FF00FF" width="2" height="4"/>
			<rect y="34" opacity="0.2" fill="#FF00FF" width="4" height="4"/>
			<rect x="16" y="34" opacity="0.2" fill="#FF00FF" width="4" height="2"/>
			<rect x="26" y="34" opacity="0.2" fill="#FF00FF" width="4" height="2"/>
			<rect x="30" y="30" opacity="0.2" fill="#FF00FF" width="4" height="4"/>
			<rect x="38" y="4" opacity="0.2" fill="#FF00FF" width="4" height="4"/>
			<rect x="42" opacity="0.2" fill="#FF00FF" width="4" height="4"/>
			<rect x="46" y="4" opacity="0.2" fill="#FF00FF" width="4" height="4"/>
			<rect x="42" y="8" opacity="0.2" fill="#FF00FF" width="4" height="4"/>
			<rect x="46" y="12" opacity="0.2" fill="#FF00FF" width="4" height="4"/>
			<rect x="42" y="16" opacity="0.2" fill="#FF00FF" width="4" height="4"/>
			<rect x="46" y="20" opacity="0.2" fill="#FF00FF" width="4" height="4"/>
			<rect x="42" y="26" opacity="0.2" fill="#FF00FF" width="4" height="4"/>
			<rect x="42" y="34" opacity="0.2" fill="#FF00FF" width="4" height="4"/>
			<rect x="46" y="30" opacity="0.2" fill="#FF00FF" width="4" height="4"/>
			<rect x="4" y="38" opacity="0.2" fill="#FF00FF" width="4" height="4"/>
			<rect y="42" opacity="0.2" fill="#FF00FF" width="4" height="4"/>
			<rect x="4" y="46" opacity="0.2" fill="#FF00FF" width="4" height="4"/>
			<rect x="8" y="42" opacity="0.2" fill="#FF00FF" width="4" height="4"/>
			<rect x="12" y="46" opacity="0.2" fill="#FF00FF" width="4" height="4"/>
			<rect x="16" y="42" opacity="0.2" fill="#FF00FF" width="4" height="4"/>
			<rect x="20" y="46" opacity="0.2" fill="#FF00FF" width="4" height="4"/>
			<rect x="26" y="42" opacity="0.2" fill="#FF00FF" width="4" height="4"/>
			<rect x="34" y="42" opacity="0.2" fill="#FF00FF" width="4" height="4"/>
			<rect x="30" y="46" opacity="0.2" fill="#FF00FF" width="4" height="4"/>
			<rect x="46" y="38" opacity="0.2" fill="#FF00FF" width="4" height="4"/>
			<rect x="38" y="46" opacity="0.2" fill="#FF00FF" width="4" height="4"/>
			<rect x="42" y="42" opacity="0.2" fill="#FF00FF" width="4" height="4"/>
			<rect x="26" y="6" opacity="0.2" fill="#FF00FF" width="2" height="2"/>
			<rect x="22" y="42" opacity="0.2" fill="#FF00FF" width="2" height="2"/>
			<rect x="6" y="26" opacity="0.2" fill="#FF00FF" width="2" height="2"/>
			<rect x="42" y="22" opacity="0.2" fill="#FF00FF" width="2" height="2"/>
			<rect x="26" y="22" opacity="0.2" fill="#FF00FF" width="2" height="2"/>
			<rect x="14" y="14" opacity="0.2" fill="#FF00FF" width="2" height="2"/>
			<rect x="34" y="34" opacity="0.2" fill="#FF00FF" width="2" height="2"/>
			<rect x="22" y="26" opacity="0.2" fill="#FF00FF" width="2" height="2"/>
			<rect x="46" y="46" opacity="0.2" fill="#FF00FF" width="4" height="4"/>
			<path opacity="0.2" fill="#FF00FF" d="M40,40H10V10h30V40z M12,38h26V12H12V38z"/>
		</g>
		<g id="Grid_4x4_94_">
			<rect x="50" opacity="0.2" fill="#FF00FF" width="4" height="4"/>
			<rect x="50" y="8" opacity="0.2" fill="#FF00FF" width="4" height="4"/>
			<rect x="50" y="16" opacity="0.2" fill="#FF00FF" width="4" height="4"/>
			<rect x="50" y="26" opacity="0.2" fill="#FF00FF" width="4" height="4"/>
			<rect x="50" y="34" opacity="0.2" fill="#FF00FF" width="4" height="4"/>
			<rect x="50" y="42" opacity="0.2" fill="#FF00FF" width="4" height="4"/>
		</g>
	</g>
	<g display="inline">
		<g id="Grid_4x4_88_">
		</g>
		<g id="Grid_4x4_87_">
			<rect y="50" opacity="0.2" fill="#FF00FF" width="4" height="4"/>
			<rect x="8" y="50" opacity="0.2" fill="#FF00FF" width="4" height="4"/>
			<rect x="16" y="50" opacity="0.2" fill="#FF00FF" width="4" height="4"/>
			<rect x="26" y="50" opacity="0.2" fill="#FF00FF" width="4" height="4"/>
			<rect x="34" y="50" opacity="0.2" fill="#FF00FF" width="4" height="4"/>
			<rect x="42" y="50" opacity="0.2" fill="#FF00FF" width="4" height="4"/>
		</g>
		<g id="Grid_4x4_86_">
			<rect x="50" y="50" opacity="0.2" fill="#FF00FF" width="4" height="4"/>
		</g>
	</g>
</g>
<g id="Icons">
	<g>
		<path d="M25,42c-9.4,0-17-7.6-17-17S15.6,8,25,8s17,7.6,17,17S34.4,42,25,42z M25,10c-8.3,0-15,6.7-15,15s6.7,15,15,15
			s15-6.7,15-15S33.3,10,25,10z"/>
		<polygon points="24.7,34.7 23.3,33.3 31.6,25 23.3,16.7 24.7,15.3 34.4,25 		"/>
		<rect x="16" y="24" width="17" height="2"/>
	</g>
</g>
<g id="Guides">
</g>
</svg>
