<?xml version="1.0" encoding="utf-8"?>
<!-- Generator: Adobe Illustrator 18.1.0, SVG Export Plug-In . SVG Version: 6.00 Build 0)  -->
<!DOCTYPE svg PUBLIC "-//W3C//DTD SVG 1.1//EN" "http://www.w3.org/Graphics/SVG/1.1/DTD/svg11.dtd">
<svg version="1.1" xmlns="http://www.w3.org/2000/svg" xmlns:xlink="http://www.w3.org/1999/xlink" x="0px" y="0px"
	 viewBox="0 0 50 50" enable-background="new 0 0 50 50" xml:space="preserve">
<g id="Grids" display="none">
	<g display="inline">
		<g id="Grid_4x4_80_">
			<rect x="4" y="-4" opacity="0.2" fill="#FF00FF" width="4" height="4"/>
			<rect x="12" y="-4" opacity="0.2" fill="#FF00FF" width="4" height="4"/>
			<rect x="20" y="-4" opacity="0.2" fill="#FF00FF" width="4" height="4"/>
			<rect x="30" y="-4" opacity="0.2" fill="#FF00FF" width="4" height="4"/>
			<rect x="38" y="-4" opacity="0.2" fill="#FF00FF" width="4" height="4"/>
			<rect x="46" y="-4" opacity="0.2" fill="#FF00FF" width="4" height="4"/>
		</g>
		<g id="Grid_4x4_79_">
		</g>
	</g>
	<g display="inline">
		<g id="Grid_4x4_72_">
			<rect opacity="0.2" fill="#FF00FF" width="4" height="4"/>
			<rect x="4" y="4" opacity="0.2" fill="#FF00FF" width="4" height="4"/>
			<rect x="8" opacity="0.2" fill="#FF00FF" width="4" height="4"/>
			<rect x="12" y="4" opacity="0.2" fill="#FF00FF" width="4" height="4"/>
			<rect x="16" opacity="0.2" fill="#FF00FF" width="4" height="4"/>
			<rect x="20" y="4" opacity="0.2" fill="#FF00FF" width="4" height="4"/>
			<rect x="26" opacity="0.2" fill="#FF00FF" width="4" height="4"/>
			<rect x="30" y="4" opacity="0.2" fill="#FF00FF" width="4" height="4"/>
			<rect y="8" opacity="0.2" fill="#FF00FF" width="4" height="4"/>
			<rect x="4" y="12" opacity="0.2" fill="#FF00FF" width="4" height="4"/>
			<rect x="20" y="14" opacity="0.2" fill="#FF00FF" width="4" height="2"/>
			<rect x="30" y="14" opacity="0.2" fill="#FF00FF" width="4" height="2"/>
			<rect y="16" opacity="0.2" fill="#FF00FF" width="4" height="4"/>
			<rect x="4" y="20" opacity="0.2" fill="#FF00FF" width="4" height="4"/>
			<rect x="14" y="20" opacity="0.2" fill="#FF00FF" width="2" height="4"/>
			<rect x="16" y="16" opacity="0.2" fill="#FF00FF" width="4" height="4"/>
			<rect x="20" y="20" opacity="0.2" fill="#FF00FF" width="4" height="4"/>
			<rect x="26" y="16" opacity="0.2" fill="#FF00FF" width="4" height="4"/>
			<rect x="30" y="20" opacity="0.2" fill="#FF00FF" width="4" height="4"/>
			<rect y="26" opacity="0.2" fill="#FF00FF" width="4" height="4"/>
			<rect x="4" y="30" opacity="0.2" fill="#FF00FF" width="4" height="4"/>
			<rect x="14" y="30" opacity="0.2" fill="#FF00FF" width="2" height="4"/>
			<rect x="16" y="26" opacity="0.2" fill="#FF00FF" width="4" height="4"/>
			<rect x="20" y="30" opacity="0.2" fill="#FF00FF" width="4" height="4"/>
			<rect x="26" y="26" opacity="0.2" fill="#FF00FF" width="4" height="4"/>
			<rect x="34" opacity="0.2" fill="#FF00FF" width="4" height="4"/>
			<rect x="34" y="16" opacity="0.2" fill="#FF00FF" width="2" height="4"/>
			<rect x="34" y="26" opacity="0.2" fill="#FF00FF" width="2" height="4"/>
			<rect y="34" opacity="0.2" fill="#FF00FF" width="4" height="4"/>
			<rect x="16" y="34" opacity="0.2" fill="#FF00FF" width="4" height="2"/>
			<rect x="26" y="34" opacity="0.2" fill="#FF00FF" width="4" height="2"/>
			<rect x="30" y="30" opacity="0.2" fill="#FF00FF" width="4" height="4"/>
			<rect x="38" y="4" opacity="0.2" fill="#FF00FF" width="4" height="4"/>
			<rect x="42" opacity="0.2" fill="#FF00FF" width="4" height="4"/>
			<rect x="46" y="4" opacity="0.2" fill="#FF00FF" width="4" height="4"/>
			<rect x="42" y="8" opacity="0.2" fill="#FF00FF" width="4" height="4"/>
			<rect x="46" y="12" opacity="0.2" fill="#FF00FF" width="4" height="4"/>
			<rect x="42" y="16" opacity="0.2" fill="#FF00FF" width="4" height="4"/>
			<rect x="46" y="20" opacity="0.2" fill="#FF00FF" width="4" height="4"/>
			<rect x="42" y="26" opacity="0.2" fill="#FF00FF" width="4" height="4"/>
			<rect x="42" y="34" opacity="0.2" fill="#FF00FF" width="4" height="4"/>
			<rect x="46" y="30" opacity="0.2" fill="#FF00FF" width="4" height="4"/>
			<rect x="4" y="38" opacity="0.2" fill="#FF00FF" width="4" height="4"/>
			<rect y="42" opacity="0.2" fill="#FF00FF" width="4" height="4"/>
			<rect x="4" y="46" opacity="0.2" fill="#FF00FF" width="4" height="4"/>
			<rect x="8" y="42" opacity="0.2" fill="#FF00FF" width="4" height="4"/>
			<rect x="12" y="46" opacity="0.2" fill="#FF00FF" width="4" height="4"/>
			<rect x="16" y="42" opacity="0.2" fill="#FF00FF" width="4" height="4"/>
			<rect x="20" y="46" opacity="0.2" fill="#FF00FF" width="4" height="4"/>
			<rect x="26" y="42" opacity="0.2" fill="#FF00FF" width="4" height="4"/>
			<rect x="34" y="42" opacity="0.2" fill="#FF00FF" width="4" height="4"/>
			<rect x="30" y="46" opacity="0.2" fill="#FF00FF" width="4" height="4"/>
			<rect x="46" y="38" opacity="0.2" fill="#FF00FF" width="4" height="4"/>
			<rect x="38" y="46" opacity="0.2" fill="#FF00FF" width="4" height="4"/>
			<rect x="42" y="42" opacity="0.2" fill="#FF00FF" width="4" height="4"/>
			<rect x="26" y="6" opacity="0.2" fill="#FF00FF" width="2" height="2"/>
			<rect x="22" y="42" opacity="0.2" fill="#FF00FF" width="2" height="2"/>
			<rect x="6" y="26" opacity="0.2" fill="#FF00FF" width="2" height="2"/>
			<rect x="42" y="22" opacity="0.2" fill="#FF00FF" width="2" height="2"/>
			<rect x="26" y="22" opacity="0.2" fill="#FF00FF" width="2" height="2"/>
			<rect x="14" y="14" opacity="0.2" fill="#FF00FF" width="2" height="2"/>
			<rect x="34" y="34" opacity="0.2" fill="#FF00FF" width="2" height="2"/>
			<rect x="22" y="26" opacity="0.2" fill="#FF00FF" width="2" height="2"/>
			<rect x="46" y="46" opacity="0.2" fill="#FF00FF" width="4" height="4"/>
			<path opacity="0.2" fill="#FF00FF" d="M40,40H10V10h30V40z M12,38h26V12H12V38z"/>
		</g>
		<g id="Grid_4x4_71_">
			<rect x="50" opacity="0.2" fill="#FF00FF" width="4" height="4"/>
			<rect x="50" y="8" opacity="0.2" fill="#FF00FF" width="4" height="4"/>
			<rect x="50" y="16" opacity="0.2" fill="#FF00FF" width="4" height="4"/>
			<rect x="50" y="26" opacity="0.2" fill="#FF00FF" width="4" height="4"/>
			<rect x="50" y="34" opacity="0.2" fill="#FF00FF" width="4" height="4"/>
			<rect x="50" y="42" opacity="0.2" fill="#FF00FF" width="4" height="4"/>
		</g>
	</g>
	<g display="inline">
		<g id="Grid_4x4_64_">
			<rect y="50" opacity="0.2" fill="#FF00FF" width="4" height="4"/>
			<rect x="8" y="50" opacity="0.2" fill="#FF00FF" width="4" height="4"/>
			<rect x="16" y="50" opacity="0.2" fill="#FF00FF" width="4" height="4"/>
			<rect x="26" y="50" opacity="0.2" fill="#FF00FF" width="4" height="4"/>
			<rect x="34" y="50" opacity="0.2" fill="#FF00FF" width="4" height="4"/>
			<rect x="42" y="50" opacity="0.2" fill="#FF00FF" width="4" height="4"/>
		</g>
		<g id="Grid_4x4_63_">
			<rect x="50" y="50" opacity="0.2" fill="#FF00FF" width="4" height="4"/>
		</g>
	</g>
</g>
<g id="Icons">
	<g>
		<path d="M37,38H13c-1.7,0-3-1.3-3-3V13c0-1.7,1.1-3,2.5-3H14v2h-1.5c-0.2,0-0.5,0.4-0.5,1v22c0,0.6,0.4,1,1,1h24c0.6,0,1-0.4,1-1
			V13c0-0.6-0.3-1-0.5-1H36v-2h1.5c1.4,0,2.5,1.3,2.5,3v22C40,36.7,38.7,38,37,38z"/>
		<path d="M17,14c-0.6,0-1-0.4-1-1V9c0-0.6,0.4-1,1-1s1,0.4,1,1v4C18,13.6,17.6,14,17,14z"/>
		<path d="M33,14c-0.6,0-1-0.4-1-1V9c0-0.6,0.4-1,1-1s1,0.4,1,1v4C34,13.6,33.6,14,33,14z"/>
		<rect x="20" y="10" width="10" height="2"/>
		<rect x="12" y="16" width="26" height="2"/>
		<rect x="34" y="20" width="2" height="2"/>
		<rect x="30" y="20" width="2" height="2"/>
		<rect x="26" y="20" width="2" height="2"/>
		<rect x="22" y="20" width="2" height="2"/>
		<rect x="18" y="20" width="2" height="2"/>
		<rect x="34" y="24" width="2" height="2"/>
		<rect x="30" y="24" width="2" height="2"/>
		<rect x="26" y="24" width="2" height="2"/>
		<rect x="22" y="24" width="2" height="2"/>
		<rect x="18" y="24" width="2" height="2"/>
		<rect x="14" y="24" width="2" height="2"/>
		<rect x="34" y="28" width="2" height="2"/>
		<rect x="30" y="28" width="2" height="2"/>
		<rect x="26" y="28" width="2" height="2"/>
		<rect x="22" y="28" width="2" height="2"/>
		<rect x="18" y="28" width="2" height="2"/>
		<rect x="14" y="28" width="2" height="2"/>
		<rect x="30" y="32" width="2" height="2"/>
		<rect x="26" y="32" width="2" height="2"/>
		<rect x="22" y="32" width="2" height="2"/>
		<rect x="18" y="32" width="2" height="2"/>
		<rect x="14" y="32" width="2" height="2"/>
	</g>
</g>
<g id="Guides">
</g>
</svg>
