<?xml version="1.0" encoding="utf-8"?>
<!-- Generator: Adobe Illustrator 17.1.0, SVG Export Plug-In . SVG Version: 6.00 Build 0)  -->
<!DOCTYPE svg PUBLIC "-//W3C//DTD SVG 1.1//EN" "http://www.w3.org/Graphics/SVG/1.1/DTD/svg11.dtd">
<svg version="1.1" xmlns="http://www.w3.org/2000/svg" xmlns:xlink="http://www.w3.org/1999/xlink" x="0px" y="0px"
	 viewBox="0 0 50 50" enable-background="new 0 0 50 50" xml:space="preserve">
<g id="Layer_1">
	<g>
		<path d="M25,26c-4.4,0-8-3.6-8-8s3.6-8,8-8s8,3.6,8,8S29.4,26,25,26z M25,13.8c-2.3,0-4.2,1.9-4.2,4.2s1.9,4.2,4.2,4.2
			s4.2-1.9,4.2-4.2S27.3,13.8,25,13.8z"/>
		<path d="M33.6,26.8c-0.7-0.9-1.9-1-2.8-0.4c0,0-2.2,1.6-5.8,1.6c-3.6,0-5.8-1.6-5.8-1.6c-0.9-0.7-2.1-0.5-2.8,0.4
			c-0.7,0.9-0.5,2.1,0.4,2.8c0.1,0.1,2.2,1.7,5.7,2.2l-5.3,5.4c-0.8,0.8-0.8,2.1,0,2.8c0.4,0.4,0.9,0.6,1.4,0.6c0.5,0,1-0.2,1.4-0.6
			l5-5.1l5,5.1c0.4,0.4,0.9,0.6,1.4,0.6c0.5,0,1-0.2,1.4-0.6c0.8-0.8,0.8-2,0-2.8l-5.3-5.4c3.5-0.6,5.6-2.2,5.7-2.2
			C34.1,28.9,34.3,27.6,33.6,26.8z"/>
	</g>
</g>
<g id="Guides">
</g>
</svg>
