<svg xmlns="http://www.w3.org/2000/svg" viewBox="0 0 50 50" enable-background="new 0 0 50 50"><path d="M33 38H21c-.6 0-1-.4-1-1 0-1.5-.7-2.4-1.8-3.8-.6-.7-1.3-1.6-2-2.7-1.9-3-3.6-6.6-4-7.9-.4-1.3-.1-2.2.3-2.7.4-.6 1.2-.9 2.1-.9 1.2 0 2.4 1 3.5 2.3V11c0-1.7 1.3-3 3-3s3 1.3 3 3v4.2c.3-.1.6-.2 1-.2 1.1 0 2 .6 2.5 1.4.4-.3.9-.4 1.4-.4 1.4 0 2.5.9 2.9 2.2.3-.1.7-.2 1.1-.2 1.7 0 3 1.3 3 3v3c0 2.6-.5 4.7-1 6.7s-1 3.9-1 6.3c0 .6-.4 1-1 1zm-11.1-2H32c.1-2.2.6-4 1-5.8.5-2 1-3.9 1-6.2v-3c0-.6-.4-1-1-1s-1 .4-1 1v1c0 .6-.4 1-1 1s-1-.4-1-1v-3c0-.6-.4-1-1-1s-1 .4-1 1v2c0 .6-.4 1-1 1s-1-.4-1-1v-3c0-.6-.4-1-1-1s-1 .4-1 1v2c0 .6-.4 1-1 1s-1-.4-1-1v-9c0-.6-.4-1-1-1s-1 .4-1 1v15c0 .6-.4 1-1 1s-1-.4-1-1v-.8c-.9-2.3-2.8-4.2-3.5-4.2-.2 0-.4 0-.5.1-.1.1-.1.4 0 .9.3 1.1 1.8 4.3 3.8 7.5.6 1 1.2 1.7 1.8 2.5 1.1 1.2 2.1 2.3 2.3 4z"/></svg>