<?xml version="1.0" encoding="utf-8"?>
<!-- Generator: Adobe Illustrator 17.1.0, SVG Export Plug-In . SVG Version: 6.00 Build 0)  -->
<!DOCTYPE svg PUBLIC "-//W3C//DTD SVG 1.1//EN" "http://www.w3.org/Graphics/SVG/1.1/DTD/svg11.dtd">
<svg version="1.1" xmlns="http://www.w3.org/2000/svg" xmlns:xlink="http://www.w3.org/1999/xlink" x="0px" y="0px"
	 viewBox="0 0 50 50" enable-background="new 0 0 50 50" xml:space="preserve">
<g id="Layer_1">
	<g>
		<g>
			<path d="M19.8,17.6c0.3-0.8,0.6-1.4,1.2-1.9c0.5-0.5,1.1-0.9,1.9-1.2s1.6-0.4,2.5-0.4c0.7,0,1.4,0.1,2,0.3
				c0.6,0.2,1.2,0.5,1.7,0.9s0.9,0.9,1.1,1.5c0.3,0.6,0.4,1.3,0.4,2c0,1-0.2,1.8-0.6,2.5s-1,1.3-1.6,2c-0.5,0.5-1,1-1.3,1.3
				c-0.3,0.3-0.6,0.6-0.7,0.9c-0.2,0.3-0.3,0.7-0.3,1.1c-0.1,0.4-0.1,0.7-0.1,1.5h-1.6c0-0.8,0-1.1,0.1-1.7c0.1-0.5,0.3-1,0.5-1.5
				c0.2-0.4,0.5-0.8,0.9-1.2c0.4-0.4,0.9-0.8,1.4-1.4c0.5-0.5,0.9-1,1.2-1.5s0.5-1.2,0.5-1.8c0-0.5-0.1-1-0.3-1.4
				c-0.2-0.4-0.5-0.8-0.8-1.1c-0.3-0.3-0.7-0.5-1.2-0.7c-0.5-0.2-0.9-0.3-1.4-0.3c-0.7,0-1.3,0.1-1.8,0.4c-0.5,0.2-1,0.6-1.3,1
				c-0.3,0.4-0.6,0.9-0.8,1.5S21,19.3,21,20h-1.6C19.4,19.1,19.5,18.4,19.8,17.6z M26,30v2h-2v-2H26z"/>
		</g>
		<g>
			<path d="M9.8,40.2l1.8-7.2c-2.3-2.5-3.5-5.9-3.5-10c0-9.5,6.2-14.9,16.9-14.9S41.9,13.5,41.9,23S35.8,37.9,25,37.9
				c-1,0-2.1-0.1-3.1-0.2L9.8,40.2z M25,9.9C11.9,9.9,9.9,18.1,9.9,23c0,3.8,1.1,6.9,3.3,9.1l0.4,0.4l-1.3,5.3l9.6-1.9l0.1,0
				c1,0.1,2,0.2,3,0.2c13.1,0,15.1-8.2,15.1-13.1S38.1,9.9,25,9.9z"/>
		</g>
	</g>
</g>
<g id="Guides">
</g>
</svg>
