<?xml version="1.0" encoding="utf-8"?>
<!-- Generator: Adobe Illustrator 18.1.0, SVG Export Plug-In . SVG Version: 6.00 Build 0)  -->
<!DOCTYPE svg PUBLIC "-//W3C//DTD SVG 1.1//EN" "http://www.w3.org/Graphics/SVG/1.1/DTD/svg11.dtd">
<svg version="1.1" xmlns="http://www.w3.org/2000/svg" xmlns:xlink="http://www.w3.org/1999/xlink" x="0px" y="0px"
	 viewBox="0 0 50 50" enable-background="new 0 0 50 50" xml:space="preserve">
<g id="Grids" display="none">
	<g display="inline">
		<g id="Grid_4x4_71_">
			<rect x="-4" y="-4" opacity="0.2" width="4" height="4"/>
		</g>
		<g id="Grid_4x4_70_">
			<rect x="4" y="-4" opacity="0.2" width="4" height="4"/>
			<rect x="12" y="-4" opacity="0.2" width="4" height="4"/>
			<rect x="20" y="-4" opacity="0.2" width="4" height="4"/>
			<rect x="30" y="-4" opacity="0.2" width="4" height="4"/>
			<rect x="38" y="-4" opacity="0.2" width="4" height="4"/>
			<rect x="46" y="-4" opacity="0.2" width="4" height="4"/>
		</g>
		<g id="Grid_4x4_69_">
		</g>
	</g>
	<g display="inline">
		<g id="Grid_4x4_63_">
			<rect x="-4" y="4" opacity="0.2" width="4" height="4"/>
			<rect x="-4" y="12" opacity="0.2" width="4" height="4"/>
			<rect x="-4" y="20" opacity="0.2" width="4" height="4"/>
			<rect x="-4" y="30" opacity="0.2" width="4" height="4"/>
			<rect x="-4" y="38" opacity="0.2" width="4" height="4"/>
			<rect x="-4" y="46" opacity="0.2" width="4" height="4"/>
		</g>
		<g id="Grid_4x4_62_">
			<rect opacity="0.2" width="4" height="4"/>
			<rect x="4" y="4" opacity="0.2" width="4" height="4"/>
			<rect x="8" opacity="0.2" width="4" height="4"/>
			<rect x="12" y="4" opacity="0.2" width="4" height="4"/>
			<rect x="16" opacity="0.2" width="4" height="4"/>
			<rect x="20" y="4" opacity="0.2" width="4" height="4"/>
			<rect x="26" opacity="0.2" width="4" height="4"/>
			<rect x="30" y="4" opacity="0.2" width="4" height="4"/>
			<rect y="8" opacity="0.2" width="4" height="4"/>
			<rect x="4" y="12" opacity="0.2" width="4" height="4"/>
			<rect x="20" y="14" opacity="0.2" width="4" height="2"/>
			<rect x="30" y="14" opacity="0.2" width="4" height="2"/>
			<rect y="16" opacity="0.2" width="4" height="4"/>
			<rect x="4" y="20" opacity="0.2" width="4" height="4"/>
			<rect x="14" y="20" opacity="0.2" width="2" height="4"/>
			<rect x="16" y="16" opacity="0.2" width="4" height="4"/>
			<rect x="20" y="20" opacity="0.2" width="4" height="4"/>
			<rect x="26" y="16" opacity="0.2" width="4" height="4"/>
			<rect x="30" y="20" opacity="0.2" width="4" height="4"/>
			<rect y="26" opacity="0.2" width="4" height="4"/>
			<rect x="4" y="30" opacity="0.2" width="4" height="4"/>
			<rect x="14" y="30" opacity="0.2" width="2" height="4"/>
			<rect x="16" y="26" opacity="0.2" width="4" height="4"/>
			<rect x="20" y="30" opacity="0.2" width="4" height="4"/>
			<rect x="26" y="26" opacity="0.2" width="4" height="4"/>
			<rect x="34" opacity="0.2" width="4" height="4"/>
			<rect x="34" y="16" opacity="0.2" width="2" height="4"/>
			<rect x="34" y="26" opacity="0.2" width="2" height="4"/>
			<rect y="34" opacity="0.2" width="4" height="4"/>
			<rect x="16" y="34" opacity="0.2" width="4" height="2"/>
			<rect x="26" y="34" opacity="0.2" width="4" height="2"/>
			<rect x="30" y="30" opacity="0.2" width="4" height="4"/>
			<rect x="38" y="4" opacity="0.2" width="4" height="4"/>
			<rect x="42" opacity="0.2" width="4" height="4"/>
			<rect x="46" y="4" opacity="0.2" width="4" height="4"/>
			<rect x="42" y="8" opacity="0.2" width="4" height="4"/>
			<rect x="46" y="12" opacity="0.2" width="4" height="4"/>
			<rect x="42" y="16" opacity="0.2" width="4" height="4"/>
			<rect x="46" y="20" opacity="0.2" width="4" height="4"/>
			<rect x="42" y="26" opacity="0.2" width="4" height="4"/>
			<rect x="42" y="34" opacity="0.2" width="4" height="4"/>
			<rect x="46" y="30" opacity="0.2" width="4" height="4"/>
			<rect x="4" y="38" opacity="0.2" width="4" height="4"/>
			<rect y="42" opacity="0.2" width="4" height="4"/>
			<rect x="4" y="46" opacity="0.2" width="4" height="4"/>
			<rect x="8" y="42" opacity="0.2" width="4" height="4"/>
			<rect x="12" y="46" opacity="0.2" width="4" height="4"/>
			<rect x="16" y="42" opacity="0.2" width="4" height="4"/>
			<rect x="20" y="46" opacity="0.2" width="4" height="4"/>
			<rect x="26" y="42" opacity="0.2" width="4" height="4"/>
			<rect x="34" y="42" opacity="0.2" width="4" height="4"/>
			<rect x="30" y="46" opacity="0.2" width="4" height="4"/>
			<rect x="46" y="38" opacity="0.2" width="4" height="4"/>
			<rect x="38" y="46" opacity="0.2" width="4" height="4"/>
			<rect x="42" y="42" opacity="0.2" width="4" height="4"/>
			<rect x="26" y="6" opacity="0.2" width="2" height="2"/>
			<rect x="22" y="42" opacity="0.2" width="2" height="2"/>
			<rect x="6" y="26" opacity="0.2" width="2" height="2"/>
			<rect x="42" y="22" opacity="0.2" width="2" height="2"/>
			<rect x="26" y="22" opacity="0.2" width="2" height="2"/>
			<rect x="14" y="14" opacity="0.2" width="2" height="2"/>
			<rect x="34" y="34" opacity="0.2" width="2" height="2"/>
			<rect x="22" y="26" opacity="0.2" width="2" height="2"/>
			<rect x="46" y="46" opacity="0.2" width="4" height="4"/>
			<path opacity="0.2" d="M40,40H10V10h30V40z M12,38h26V12H12V38z"/>
		</g>
		<g id="Grid_4x4_61_">
			<rect x="50" opacity="0.2" width="4" height="4"/>
			<rect x="50" y="8" opacity="0.2" width="4" height="4"/>
			<rect x="50" y="16" opacity="0.2" width="4" height="4"/>
			<rect x="50" y="26" opacity="0.2" width="4" height="4"/>
			<rect x="50" y="34" opacity="0.2" width="4" height="4"/>
			<rect x="50" y="42" opacity="0.2" width="4" height="4"/>
		</g>
	</g>
</g>
<g id="Icons">
	<path fill-rule="evenodd" clip-rule="evenodd" d="M25,10c-8.3,0-15,6.7-15,15c0,6.6,4.3,12.2,10.3,14.2
		c0.8,0.1,1-0.3,1-0.7c0-0.4,0-1.3,0-2.6c-4.2,0.9-5.1-2-5.1-2c-0.7-1.7-1.7-2.2-1.7-2.2c-1.4-0.9,0.1-0.9,0.1-0.9
		c1.5,0.1,2.3,1.5,2.3,1.5c1.3,2.3,3.5,1.6,4.4,1.2c0.1-1,0.5-1.6,1-2c-3.3-0.4-6.8-1.7-6.8-7.4c0-1.6,0.6-3,1.5-4
		c-0.2-0.4-0.7-1.9,0.1-4c0,0,1.3-0.4,4.1,1.5c1.2-0.3,2.5-0.5,3.8-0.5c1.3,0,2.6,0.2,3.8,0.5c2.9-1.9,4.1-1.5,4.1-1.5
		c0.8,2.1,0.3,3.6,0.1,4c1,1,1.5,2.4,1.5,4c0,5.8-3.5,7-6.8,7.4c0.5,0.5,1,1.4,1,2.8c0,2,0,3.6,0,4.1c0,0.4,0.3,0.9,1,0.7
		c6-2,10.2-7.6,10.2-14.2C40,16.7,33.3,10,25,10z"/>
</g>
<g id="Guides">
</g>
</svg>
