<?xml version="1.0" encoding="utf-8"?>
<!-- Generator: Adobe Illustrator 18.1.0, SVG Export Plug-In . SVG Version: 6.00 Build 0)  -->
<!DOCTYPE svg PUBLIC "-//W3C//DTD SVG 1.1//EN" "http://www.w3.org/Graphics/SVG/1.1/DTD/svg11.dtd">
<svg version="1.1" xmlns="http://www.w3.org/2000/svg" xmlns:xlink="http://www.w3.org/1999/xlink" x="0px" y="0px"
	 viewBox="0 0 50 50" enable-background="new 0 0 50 50" xml:space="preserve">
<g id="Grids" display="none">
	<g display="inline">
		<g id="Grid_4x4_112_">
			<rect opacity="0.2" fill="#FF00FF" width="4" height="4"/>
			<rect x="4" y="4" opacity="0.2" fill="#FF00FF" width="4" height="4"/>
			<rect x="8" opacity="0.2" fill="#FF00FF" width="4" height="4"/>
			<rect x="12" y="4" opacity="0.2" fill="#FF00FF" width="4" height="4"/>
			<rect x="16" opacity="0.2" fill="#FF00FF" width="4" height="4"/>
			<rect x="20" y="4" opacity="0.2" fill="#FF00FF" width="4" height="4"/>
			<rect x="26" opacity="0.2" fill="#FF00FF" width="4" height="4"/>
			<rect x="30" y="4" opacity="0.2" fill="#FF00FF" width="4" height="4"/>
			<rect y="8" opacity="0.2" fill="#FF00FF" width="4" height="4"/>
			<rect x="4" y="12" opacity="0.2" fill="#FF00FF" width="4" height="4"/>
			<rect x="20" y="14" opacity="0.2" fill="#FF00FF" width="4" height="2"/>
			<rect x="30" y="14" opacity="0.2" fill="#FF00FF" width="4" height="2"/>
			<rect y="16" opacity="0.2" fill="#FF00FF" width="4" height="4"/>
			<rect x="4" y="20" opacity="0.2" fill="#FF00FF" width="4" height="4"/>
			<rect x="14" y="20" opacity="0.2" fill="#FF00FF" width="2" height="4"/>
			<rect x="16" y="16" opacity="0.2" fill="#FF00FF" width="4" height="4"/>
			<rect x="20" y="20" opacity="0.2" fill="#FF00FF" width="4" height="4"/>
			<rect x="26" y="16" opacity="0.2" fill="#FF00FF" width="4" height="4"/>
			<rect x="30" y="20" opacity="0.2" fill="#FF00FF" width="4" height="4"/>
			<rect y="26" opacity="0.2" fill="#FF00FF" width="4" height="4"/>
			<rect x="4" y="30" opacity="0.2" fill="#FF00FF" width="4" height="4"/>
			<rect x="14" y="30" opacity="0.2" fill="#FF00FF" width="2" height="4"/>
			<rect x="16" y="26" opacity="0.2" fill="#FF00FF" width="4" height="4"/>
			<rect x="20" y="30" opacity="0.2" fill="#FF00FF" width="4" height="4"/>
			<rect x="26" y="26" opacity="0.2" fill="#FF00FF" width="4" height="4"/>
			<rect x="34" opacity="0.2" fill="#FF00FF" width="4" height="4"/>
			<rect x="34" y="16" opacity="0.2" fill="#FF00FF" width="2" height="4"/>
			<rect x="34" y="26" opacity="0.2" fill="#FF00FF" width="2" height="4"/>
			<rect y="34" opacity="0.2" fill="#FF00FF" width="4" height="4"/>
			<rect x="16" y="34" opacity="0.2" fill="#FF00FF" width="4" height="2"/>
			<rect x="26" y="34" opacity="0.2" fill="#FF00FF" width="4" height="2"/>
			<rect x="30" y="30" opacity="0.2" fill="#FF00FF" width="4" height="4"/>
			<rect x="38" y="4" opacity="0.2" fill="#FF00FF" width="4" height="4"/>
			<rect x="42" opacity="0.2" fill="#FF00FF" width="4" height="4"/>
			<rect x="46" y="4" opacity="0.2" fill="#FF00FF" width="4" height="4"/>
			<rect x="42" y="8" opacity="0.2" fill="#FF00FF" width="4" height="4"/>
			<rect x="46" y="12" opacity="0.2" fill="#FF00FF" width="4" height="4"/>
			<rect x="42" y="16" opacity="0.2" fill="#FF00FF" width="4" height="4"/>
			<rect x="46" y="20" opacity="0.2" fill="#FF00FF" width="4" height="4"/>
			<rect x="42" y="26" opacity="0.2" fill="#FF00FF" width="4" height="4"/>
			<rect x="42" y="34" opacity="0.2" fill="#FF00FF" width="4" height="4"/>
			<rect x="46" y="30" opacity="0.2" fill="#FF00FF" width="4" height="4"/>
			<rect x="4" y="38" opacity="0.2" fill="#FF00FF" width="4" height="4"/>
			<rect y="42" opacity="0.2" fill="#FF00FF" width="4" height="4"/>
			<rect x="4" y="46" opacity="0.2" fill="#FF00FF" width="4" height="4"/>
			<rect x="8" y="42" opacity="0.2" fill="#FF00FF" width="4" height="4"/>
			<rect x="12" y="46" opacity="0.2" fill="#FF00FF" width="4" height="4"/>
			<rect x="16" y="42" opacity="0.2" fill="#FF00FF" width="4" height="4"/>
			<rect x="20" y="46" opacity="0.2" fill="#FF00FF" width="4" height="4"/>
			<rect x="26" y="42" opacity="0.2" fill="#FF00FF" width="4" height="4"/>
			<rect x="34" y="42" opacity="0.2" fill="#FF00FF" width="4" height="4"/>
			<rect x="30" y="46" opacity="0.2" fill="#FF00FF" width="4" height="4"/>
			<rect x="46" y="38" opacity="0.2" fill="#FF00FF" width="4" height="4"/>
			<rect x="38" y="46" opacity="0.2" fill="#FF00FF" width="4" height="4"/>
			<rect x="42" y="42" opacity="0.2" fill="#FF00FF" width="4" height="4"/>
			<rect x="26" y="6" opacity="0.2" fill="#FF00FF" width="2" height="2"/>
			<rect x="22" y="42" opacity="0.2" fill="#FF00FF" width="2" height="2"/>
			<rect x="6" y="26" opacity="0.2" fill="#FF00FF" width="2" height="2"/>
			<rect x="42" y="22" opacity="0.2" fill="#FF00FF" width="2" height="2"/>
			<rect x="26" y="22" opacity="0.2" fill="#FF00FF" width="2" height="2"/>
			<rect x="14" y="14" opacity="0.2" fill="#FF00FF" width="2" height="2"/>
			<rect x="34" y="34" opacity="0.2" fill="#FF00FF" width="2" height="2"/>
			<rect x="22" y="26" opacity="0.2" fill="#FF00FF" width="2" height="2"/>
			<rect x="46" y="46" opacity="0.2" fill="#FF00FF" width="4" height="4"/>
			<path opacity="0.2" fill="#FF00FF" d="M40,40H10V10h30V40z M12,38h26V12H12V38z"/>
		</g>
		<g id="Grid_4x4_111_">
			<rect x="50" opacity="0.2" fill="#FF00FF" width="4" height="4"/>
			<rect x="50" y="8" opacity="0.2" fill="#FF00FF" width="4" height="4"/>
			<rect x="50" y="16" opacity="0.2" fill="#FF00FF" width="4" height="4"/>
			<rect x="50" y="26" opacity="0.2" fill="#FF00FF" width="4" height="4"/>
			<rect x="50" y="34" opacity="0.2" fill="#FF00FF" width="4" height="4"/>
			<rect x="50" y="42" opacity="0.2" fill="#FF00FF" width="4" height="4"/>
		</g>
	</g>
	<g display="inline">
		<g id="Grid_4x4_104_">
			<rect y="50" opacity="0.2" fill="#FF00FF" width="4" height="4"/>
			<rect x="8" y="50" opacity="0.2" fill="#FF00FF" width="4" height="4"/>
			<rect x="16" y="50" opacity="0.2" fill="#FF00FF" width="4" height="4"/>
			<rect x="26" y="50" opacity="0.2" fill="#FF00FF" width="4" height="4"/>
			<rect x="34" y="50" opacity="0.2" fill="#FF00FF" width="4" height="4"/>
			<rect x="42" y="50" opacity="0.2" fill="#FF00FF" width="4" height="4"/>
		</g>
		<g id="Grid_4x4_103_">
			<rect x="50" y="50" opacity="0.2" fill="#FF00FF" width="4" height="4"/>
		</g>
	</g>
	<circle opacity="0.4" fill="none" stroke="#FF00FF" stroke-width="2" stroke-miterlimit="10" cx="25" cy="25" r="16"/>
</g>
<g id="Icons">
	<g>
		<path d="M23,35.9c-7.1,0-12.9-5.8-12.9-12.9S15.9,10.1,23,10.1S35.9,15.9,35.9,23S30.1,35.9,23,35.9z M23,11.9
			c-6.1,0-11.1,5-11.1,11.1s5,11.1,11.1,11.1s11.1-5,11.1-11.1S29.1,11.9,23,11.9z"/>
		<rect x="30.1" y="35.5" transform="matrix(0.7071 0.7071 -0.7071 0.7071 36.5 -15.1188)" width="12.7" height="2"/>
	</g>
</g>
<g id="Guides">
</g>
</svg>
