<?xml version="1.0" encoding="utf-8"?>
<!-- Generator: Adobe Illustrator 18.1.0, SVG Export Plug-In . SVG Version: 6.00 Build 0)  -->
<!DOCTYPE svg PUBLIC "-//W3C//DTD SVG 1.1//EN" "http://www.w3.org/Graphics/SVG/1.1/DTD/svg11.dtd">
<svg version="1.1" xmlns="http://www.w3.org/2000/svg" xmlns:xlink="http://www.w3.org/1999/xlink" x="0px" y="0px"
	 viewBox="0 0 50 50" enable-background="new 0 0 50 50" xml:space="preserve">
<g id="Grids" display="none">
	<g display="inline">
		<g id="Grid_4x4_96_">
			<rect x="-4" y="-4" opacity="0.2" fill="#FF00FF" width="4" height="4"/>
		</g>
		<g id="Grid_4x4_95_">
			<rect x="4" y="-4" opacity="0.2" fill="#FF00FF" width="4" height="4"/>
			<rect x="12" y="-4" opacity="0.2" fill="#FF00FF" width="4" height="4"/>
			<rect x="20" y="-4" opacity="0.2" fill="#FF00FF" width="4" height="4"/>
			<rect x="30" y="-4" opacity="0.2" fill="#FF00FF" width="4" height="4"/>
			<rect x="38" y="-4" opacity="0.2" fill="#FF00FF" width="4" height="4"/>
			<rect x="46" y="-4" opacity="0.2" fill="#FF00FF" width="4" height="4"/>
		</g>
		<g id="Grid_4x4_94_">
		</g>
	</g>
	<g display="inline">
		<g id="Grid_4x4_88_">
			<rect x="-4" y="4" opacity="0.2" fill="#FF00FF" width="4" height="4"/>
			<rect x="-4" y="12" opacity="0.2" fill="#FF00FF" width="4" height="4"/>
			<rect x="-4" y="20" opacity="0.2" fill="#FF00FF" width="4" height="4"/>
			<rect x="-4" y="30" opacity="0.2" fill="#FF00FF" width="4" height="4"/>
			<rect x="-4" y="38" opacity="0.2" fill="#FF00FF" width="4" height="4"/>
			<rect x="-4" y="46" opacity="0.2" fill="#FF00FF" width="4" height="4"/>
		</g>
		<g id="Grid_4x4_87_">
			<rect opacity="0.2" fill="#FF00FF" width="4" height="4"/>
			<rect x="4" y="4" opacity="0.2" fill="#FF00FF" width="4" height="4"/>
			<rect x="8" opacity="0.2" fill="#FF00FF" width="4" height="4"/>
			<rect x="12" y="4" opacity="0.2" fill="#FF00FF" width="4" height="4"/>
			<rect x="16" opacity="0.2" fill="#FF00FF" width="4" height="4"/>
			<rect x="20" y="4" opacity="0.2" fill="#FF00FF" width="4" height="4"/>
			<rect x="26" opacity="0.2" fill="#FF00FF" width="4" height="4"/>
			<rect x="30" y="4" opacity="0.2" fill="#FF00FF" width="4" height="4"/>
			<rect y="8" opacity="0.2" fill="#FF00FF" width="4" height="4"/>
			<rect x="4" y="12" opacity="0.2" fill="#FF00FF" width="4" height="4"/>
			<rect x="20" y="14" opacity="0.2" fill="#FF00FF" width="4" height="2"/>
			<rect x="30" y="14" opacity="0.2" fill="#FF00FF" width="4" height="2"/>
			<rect y="16" opacity="0.2" fill="#FF00FF" width="4" height="4"/>
			<rect x="4" y="20" opacity="0.2" fill="#FF00FF" width="4" height="4"/>
			<rect x="14" y="20" opacity="0.2" fill="#FF00FF" width="2" height="4"/>
			<rect x="16" y="16" opacity="0.2" fill="#FF00FF" width="4" height="4"/>
			<rect x="20" y="20" opacity="0.2" fill="#FF00FF" width="4" height="4"/>
			<rect x="26" y="16" opacity="0.2" fill="#FF00FF" width="4" height="4"/>
			<rect x="30" y="20" opacity="0.2" fill="#FF00FF" width="4" height="4"/>
			<rect y="26" opacity="0.2" fill="#FF00FF" width="4" height="4"/>
			<rect x="4" y="30" opacity="0.2" fill="#FF00FF" width="4" height="4"/>
			<rect x="14" y="30" opacity="0.2" fill="#FF00FF" width="2" height="4"/>
			<rect x="16" y="26" opacity="0.2" fill="#FF00FF" width="4" height="4"/>
			<rect x="20" y="30" opacity="0.2" fill="#FF00FF" width="4" height="4"/>
			<rect x="26" y="26" opacity="0.2" fill="#FF00FF" width="4" height="4"/>
			<rect x="34" opacity="0.2" fill="#FF00FF" width="4" height="4"/>
			<rect x="34" y="16" opacity="0.2" fill="#FF00FF" width="2" height="4"/>
			<rect x="34" y="26" opacity="0.2" fill="#FF00FF" width="2" height="4"/>
			<rect y="34" opacity="0.2" fill="#FF00FF" width="4" height="4"/>
			<rect x="16" y="34" opacity="0.2" fill="#FF00FF" width="4" height="2"/>
			<rect x="26" y="34" opacity="0.2" fill="#FF00FF" width="4" height="2"/>
			<rect x="30" y="30" opacity="0.2" fill="#FF00FF" width="4" height="4"/>
			<rect x="38" y="4" opacity="0.2" fill="#FF00FF" width="4" height="4"/>
			<rect x="42" opacity="0.2" fill="#FF00FF" width="4" height="4"/>
			<rect x="46" y="4" opacity="0.2" fill="#FF00FF" width="4" height="4"/>
			<rect x="42" y="8" opacity="0.2" fill="#FF00FF" width="4" height="4"/>
			<rect x="46" y="12" opacity="0.2" fill="#FF00FF" width="4" height="4"/>
			<rect x="42" y="16" opacity="0.2" fill="#FF00FF" width="4" height="4"/>
			<rect x="46" y="20" opacity="0.2" fill="#FF00FF" width="4" height="4"/>
			<rect x="42" y="26" opacity="0.2" fill="#FF00FF" width="4" height="4"/>
			<rect x="42" y="34" opacity="0.2" fill="#FF00FF" width="4" height="4"/>
			<rect x="46" y="30" opacity="0.2" fill="#FF00FF" width="4" height="4"/>
			<rect x="4" y="38" opacity="0.2" fill="#FF00FF" width="4" height="4"/>
			<rect y="42" opacity="0.2" fill="#FF00FF" width="4" height="4"/>
			<rect x="4" y="46" opacity="0.2" fill="#FF00FF" width="4" height="4"/>
			<rect x="8" y="42" opacity="0.2" fill="#FF00FF" width="4" height="4"/>
			<rect x="12" y="46" opacity="0.2" fill="#FF00FF" width="4" height="4"/>
			<rect x="16" y="42" opacity="0.2" fill="#FF00FF" width="4" height="4"/>
			<rect x="20" y="46" opacity="0.2" fill="#FF00FF" width="4" height="4"/>
			<rect x="26" y="42" opacity="0.2" fill="#FF00FF" width="4" height="4"/>
			<rect x="34" y="42" opacity="0.2" fill="#FF00FF" width="4" height="4"/>
			<rect x="30" y="46" opacity="0.2" fill="#FF00FF" width="4" height="4"/>
			<rect x="46" y="38" opacity="0.2" fill="#FF00FF" width="4" height="4"/>
			<rect x="38" y="46" opacity="0.2" fill="#FF00FF" width="4" height="4"/>
			<rect x="42" y="42" opacity="0.2" fill="#FF00FF" width="4" height="4"/>
			<rect x="26" y="6" opacity="0.2" fill="#FF00FF" width="2" height="2"/>
			<rect x="22" y="42" opacity="0.2" fill="#FF00FF" width="2" height="2"/>
			<rect x="6" y="26" opacity="0.2" fill="#FF00FF" width="2" height="2"/>
			<rect x="42" y="22" opacity="0.2" fill="#FF00FF" width="2" height="2"/>
			<rect x="26" y="22" opacity="0.2" fill="#FF00FF" width="2" height="2"/>
			<rect x="14" y="14" opacity="0.2" fill="#FF00FF" width="2" height="2"/>
			<rect x="34" y="34" opacity="0.2" fill="#FF00FF" width="2" height="2"/>
			<rect x="22" y="26" opacity="0.2" fill="#FF00FF" width="2" height="2"/>
			<rect x="46" y="46" opacity="0.2" fill="#FF00FF" width="4" height="4"/>
			<path opacity="0.2" fill="#FF00FF" d="M40,40H10V10h30V40z M12,38h26V12H12V38z"/>
		</g>
		<g id="Grid_4x4_86_">
			<rect x="50" opacity="0.2" fill="#FF00FF" width="4" height="4"/>
			<rect x="50" y="8" opacity="0.2" fill="#FF00FF" width="4" height="4"/>
			<rect x="50" y="16" opacity="0.2" fill="#FF00FF" width="4" height="4"/>
			<rect x="50" y="26" opacity="0.2" fill="#FF00FF" width="4" height="4"/>
			<rect x="50" y="34" opacity="0.2" fill="#FF00FF" width="4" height="4"/>
			<rect x="50" y="42" opacity="0.2" fill="#FF00FF" width="4" height="4"/>
		</g>
	</g>
	<g display="inline">
		<g id="Grid_4x4_80_">
		</g>
		<g id="Grid_4x4_79_">
			<rect y="50" opacity="0.2" fill="#FF00FF" width="4" height="4"/>
			<rect x="8" y="50" opacity="0.2" fill="#FF00FF" width="4" height="4"/>
			<rect x="16" y="50" opacity="0.2" fill="#FF00FF" width="4" height="4"/>
			<rect x="26" y="50" opacity="0.2" fill="#FF00FF" width="4" height="4"/>
			<rect x="34" y="50" opacity="0.2" fill="#FF00FF" width="4" height="4"/>
			<rect x="42" y="50" opacity="0.2" fill="#FF00FF" width="4" height="4"/>
		</g>
		<g id="Grid_4x4_78_">
			<rect x="50" y="50" opacity="0.2" fill="#FF00FF" width="4" height="4"/>
		</g>
	</g>
</g>
<g id="Icons">
	<g>
		<path d="M22,40.1c-0.9,0-1.7-0.3-2.3-0.9l-8.9-8.9c-1.2-1.2-1.2-3.3,0-4.5l11.9-11.9c1-1,3-1.8,4.5-1.8h7.6c1.8,0,3.2,1.4,3.2,3.2
			v7.6c0,1.5-0.8,3.4-1.8,4.5L24.3,39.2C23.7,39.8,22.9,40.1,22,40.1z M27.2,14c-1,0-2.4,0.6-3,1.3L12.3,27.2
			c-0.5,0.5-0.5,1.2,0,1.7l8.9,8.9c0.5,0.4,1.2,0.4,1.7,0l11.9-11.9c0.7-0.7,1.3-2.1,1.3-3v-7.6c0-0.7-0.5-1.2-1.2-1.2H27.2z"/>
		<path d="M30,24c-2.2,0-4-1.8-4-4s1.8-4,4-4s4,1.8,4,4S32.2,24,30,24z M30,18c-1.1,0-2,0.9-2,2s0.9,2,2,2s2-0.9,2-2S31.1,18,30,18z
			"/>
	</g>
</g>
<g id="Guides">
</g>
</svg>
