<?xml version="1.0" encoding="utf-8"?>
<!-- Generator: Adobe Illustrator 17.1.0, SVG Export Plug-In . SVG Version: 6.00 Build 0)  -->
<!DOCTYPE svg PUBLIC "-//W3C//DTD SVG 1.1//EN" "http://www.w3.org/Graphics/SVG/1.1/DTD/svg11.dtd">
<svg version="1.1" xmlns="http://www.w3.org/2000/svg" xmlns:xlink="http://www.w3.org/1999/xlink" x="0px" y="0px"
	 viewBox="0 0 50 50" enable-background="new 0 0 50 50" xml:space="preserve">
<g id="Layer_1">
	<path d="M39.2,16.8c-1.1,0.5-2.2,0.8-3.5,1c1.2-0.8,2.2-1.9,2.7-3.3c-1.2,0.7-2.5,1.2-3.8,1.5c-1.1-1.2-2.7-1.9-4.4-1.9
		c-3.3,0-6.1,2.7-6.1,6.1c0,0.5,0.1,0.9,0.2,1.4c-5-0.2-9.5-2.7-12.5-6.3C11.3,16,11,17,11,18.1c0,2.1,1.1,4,2.7,5
		c-1,0-1.9-0.3-2.7-0.8c0,0,0,0,0,0.1c0,2.9,2.1,5.4,4.9,5.9c-0.5,0.1-1,0.2-1.6,0.2c-0.4,0-0.8,0-1.1-0.1c0.8,2.4,3,4.2,5.7,4.2
		c-2.1,1.6-4.7,2.6-7.5,2.6c-0.5,0-1,0-1.4-0.1C12.4,37,15.6,38,19,38c11.1,0,17.2-9.2,17.2-17.2c0-0.3,0-0.5,0-0.8
		C37.4,19.1,38.4,18.1,39.2,16.8z"/>
</g>
<g id="Guides">
</g>
</svg>
