<?xml version="1.0" encoding="utf-8"?>
<!-- Generator: Adobe Illustrator 17.1.0, SVG Export Plug-In . SVG Version: 6.00 Build 0)  -->
<!DOCTYPE svg PUBLIC "-//W3C//DTD SVG 1.1//EN" "http://www.w3.org/Graphics/SVG/1.1/DTD/svg11.dtd">
<svg version="1.1" xmlns="http://www.w3.org/2000/svg" xmlns:xlink="http://www.w3.org/1999/xlink" x="0px" y="0px"
	 viewBox="0 0 50 50" enable-background="new 0 0 50 50" xml:space="preserve">
<g id="Layer_1">
	<path d="M31.5,23.7v-0.1c2.5-1.1,3.6-3.1,3.6-5.8c0-3.5-2.6-5.9-7.4-5.9H16v26h11.5c6.7,0,9.3-4.2,9.3-8.1
		C36.8,26.6,34.6,24.2,31.5,23.7z M22.5,16.8h3c1.9,0,2.9,1,2.9,2.5s-1,2.9-3,2.9h-2.9V16.8z M25.9,33.2h-3.5v-6.5h3.6
		c2.4,0,4,1.1,4,3.1S28.6,33.2,25.9,33.2z"/>
</g>
<g id="Guides">
</g>
</svg>
