<?xml version="1.0" encoding="utf-8"?>
<!-- Generator: Adobe Illustrator 17.1.0, SVG Export Plug-In . SVG Version: 6.00 Build 0)  -->
<!DOCTYPE svg PUBLIC "-//W3C//DTD SVG 1.1//EN" "http://www.w3.org/Graphics/SVG/1.1/DTD/svg11.dtd">
<svg version="1.1" xmlns="http://www.w3.org/2000/svg" xmlns:xlink="http://www.w3.org/1999/xlink" x="0px" y="0px"
	 viewBox="0 0 50 50" enable-background="new 0 0 50 50" xml:space="preserve">
<g id="Layer_1">
	<g id="Grid_4x4_2_" display="none">
		<rect x="-4" y="-4" display="inline" opacity="0.2" fill="#FF00FF" width="4" height="4"/>
	</g>
	<g id="Grid_4x4_4_" display="none">
		<rect display="inline" opacity="0.2" fill="#FF00FF" width="4" height="4"/>
		<rect x="4" y="4" display="inline" opacity="0.2" fill="#FF00FF" width="4" height="4"/>
		<rect x="8" display="inline" opacity="0.2" fill="#FF00FF" width="4" height="4"/>
		<rect x="12" y="4" display="inline" opacity="0.2" fill="#FF00FF" width="4" height="4"/>
		<rect x="16" display="inline" opacity="0.2" fill="#FF00FF" width="4" height="4"/>
		<rect x="20" y="4" display="inline" opacity="0.2" fill="#FF00FF" width="4" height="4"/>
		<rect x="26" display="inline" opacity="0.2" fill="#FF00FF" width="4" height="4"/>
		<rect x="30" y="4" display="inline" opacity="0.2" fill="#FF00FF" width="4" height="4"/>
		<rect y="8" display="inline" opacity="0.2" fill="#FF00FF" width="4" height="4"/>
		<rect x="4" y="12" display="inline" opacity="0.2" fill="#FF00FF" width="4" height="4"/>
		<rect x="8" y="8" display="inline" opacity="0.2" fill="#FF00FF" width="4" height="4"/>
		<rect x="12" y="12" display="inline" opacity="0.2" fill="#FF00FF" width="4" height="4"/>
		<rect x="16" y="8" display="inline" opacity="0.2" fill="#FF00FF" width="4" height="4"/>
		<rect x="20" y="12" display="inline" opacity="0.2" fill="#FF00FF" width="4" height="4"/>
		<rect x="26" y="8" display="inline" opacity="0.2" fill="#FF00FF" width="4" height="4"/>
		<rect x="30" y="12" display="inline" opacity="0.2" fill="#FF00FF" width="4" height="4"/>
		<rect y="16" display="inline" opacity="0.2" fill="#FF00FF" width="4" height="4"/>
		<rect x="4" y="20" display="inline" opacity="0.2" fill="#FF00FF" width="4" height="4"/>
		<rect x="8" y="16" display="inline" opacity="0.2" fill="#FF00FF" width="4" height="4"/>
		<rect x="12" y="20" display="inline" opacity="0.2" fill="#FF00FF" width="4" height="4"/>
		<rect x="16" y="16" display="inline" opacity="0.2" fill="#FF00FF" width="4" height="4"/>
		<rect x="20" y="20" display="inline" opacity="0.2" fill="#FF00FF" width="4" height="4"/>
		<rect x="26" y="16" display="inline" opacity="0.2" fill="#FF00FF" width="4" height="4"/>
		<rect x="30" y="20" display="inline" opacity="0.2" fill="#FF00FF" width="4" height="4"/>
		<rect y="26" display="inline" opacity="0.2" fill="#FF00FF" width="4" height="4"/>
		<rect x="4" y="30" display="inline" opacity="0.2" fill="#FF00FF" width="4" height="4"/>
		<rect x="8" y="26" display="inline" opacity="0.2" fill="#FF00FF" width="4" height="4"/>
		<rect x="12" y="30" display="inline" opacity="0.2" fill="#FF00FF" width="4" height="4"/>
		<rect x="16" y="26" display="inline" opacity="0.2" fill="#FF00FF" width="4" height="4"/>
		<rect x="20" y="30" display="inline" opacity="0.2" fill="#FF00FF" width="4" height="4"/>
		<rect x="26" y="26" display="inline" opacity="0.2" fill="#FF00FF" width="4" height="4"/>
		<rect x="34" display="inline" opacity="0.2" fill="#FF00FF" width="4" height="4"/>
		<rect x="34" y="8" display="inline" opacity="0.2" fill="#FF00FF" width="4" height="4"/>
		<rect x="34" y="16" display="inline" opacity="0.2" fill="#FF00FF" width="4" height="4"/>
		<rect x="34" y="26" display="inline" opacity="0.2" fill="#FF00FF" width="4" height="4"/>
		<rect y="34" display="inline" opacity="0.2" fill="#FF00FF" width="4" height="4"/>
		<rect x="8" y="34" display="inline" opacity="0.2" fill="#FF00FF" width="4" height="4"/>
		<rect x="16" y="34" display="inline" opacity="0.2" fill="#FF00FF" width="4" height="4"/>
		<rect x="26" y="34" display="inline" opacity="0.2" fill="#FF00FF" width="4" height="4"/>
		<rect x="34" y="34" display="inline" opacity="0.2" fill="#FF00FF" width="4" height="4"/>
		<rect x="30" y="30" display="inline" opacity="0.2" fill="#FF00FF" width="4" height="4"/>
		<rect x="38" y="4" display="inline" opacity="0.2" fill="#FF00FF" width="4" height="4"/>
		<rect x="42" display="inline" opacity="0.2" fill="#FF00FF" width="4" height="4"/>
		<rect x="46" y="4" display="inline" opacity="0.2" fill="#FF00FF" width="4" height="4"/>
		<rect x="38" y="12" display="inline" opacity="0.2" fill="#FF00FF" width="4" height="4"/>
		<rect x="42" y="8" display="inline" opacity="0.2" fill="#FF00FF" width="4" height="4"/>
		<rect x="46" y="12" display="inline" opacity="0.2" fill="#FF00FF" width="4" height="4"/>
		<rect x="38" y="20" display="inline" opacity="0.2" fill="#FF00FF" width="4" height="4"/>
		<rect x="42" y="16" display="inline" opacity="0.2" fill="#FF00FF" width="4" height="4"/>
		<rect x="46" y="20" display="inline" opacity="0.2" fill="#FF00FF" width="4" height="4"/>
		<rect x="38" y="30" display="inline" opacity="0.2" fill="#FF00FF" width="4" height="4"/>
		<rect x="42" y="26" display="inline" opacity="0.2" fill="#FF00FF" width="4" height="4"/>
		<rect x="42" y="34" display="inline" opacity="0.2" fill="#FF00FF" width="4" height="4"/>
		<rect x="46" y="30" display="inline" opacity="0.2" fill="#FF00FF" width="4" height="4"/>
		<rect x="4" y="38" display="inline" opacity="0.2" fill="#FF00FF" width="4" height="4"/>
		<rect x="12" y="38" display="inline" opacity="0.2" fill="#FF00FF" width="4" height="4"/>
		<rect x="20" y="38" display="inline" opacity="0.2" fill="#FF00FF" width="4" height="4"/>
		<rect x="30" y="38" display="inline" opacity="0.2" fill="#FF00FF" width="4" height="4"/>
		<rect y="42" display="inline" opacity="0.2" fill="#FF00FF" width="4" height="4"/>
		<rect x="4" y="46" display="inline" opacity="0.2" fill="#FF00FF" width="4" height="4"/>
		<rect x="8" y="42" display="inline" opacity="0.2" fill="#FF00FF" width="4" height="4"/>
		<rect x="12" y="46" display="inline" opacity="0.2" fill="#FF00FF" width="4" height="4"/>
		<rect x="16" y="42" display="inline" opacity="0.2" fill="#FF00FF" width="4" height="4"/>
		<rect x="20" y="46" display="inline" opacity="0.2" fill="#FF00FF" width="4" height="4"/>
		<rect x="26" y="42" display="inline" opacity="0.2" fill="#FF00FF" width="4" height="4"/>
		<rect x="34" y="42" display="inline" opacity="0.2" fill="#FF00FF" width="4" height="4"/>
		<rect x="30" y="46" display="inline" opacity="0.2" fill="#FF00FF" width="4" height="4"/>
		<rect x="38" y="38" display="inline" opacity="0.2" fill="#FF00FF" width="4" height="4"/>
		<rect x="46" y="38" display="inline" opacity="0.2" fill="#FF00FF" width="4" height="4"/>
		<rect x="38" y="46" display="inline" opacity="0.2" fill="#FF00FF" width="4" height="4"/>
		<rect x="42" y="42" display="inline" opacity="0.2" fill="#FF00FF" width="4" height="4"/>
		<rect x="24" y="24" display="inline" opacity="0.2" fill="#FF00FF" width="2" height="2"/>
		<rect x="46" y="46" display="inline" opacity="0.2" fill="#FF00FF" width="4" height="4"/>
	</g>
	<g>
		<path d="M25,42c-9.4,0-17-7.6-17-17S15.6,8,25,8s17,7.6,17,17S34.4,42,25,42z M25,9.9C16.6,9.9,9.9,16.6,9.9,25S16.6,40.2,25,40.2
			S40.2,33.4,40.2,25S33.4,9.9,25,9.9z"/>
		<polygon points="24.7,34.7 23.3,33.3 31.6,25 23.3,16.7 24.7,15.3 34.4,25 		"/>
		<rect x="16" y="24" width="16" height="2"/>
	</g>
</g>
<g id="Guides">
</g>
</svg>
