<?xml version="1.0" encoding="utf-8"?>
<!-- Generator: Adobe Illustrator 17.1.0, SVG Export Plug-In . SVG Version: 6.00 Build 0)  -->
<!DOCTYPE svg PUBLIC "-//W3C//DTD SVG 1.1//EN" "http://www.w3.org/Graphics/SVG/1.1/DTD/svg11.dtd">
<svg version="1.1" xmlns="http://www.w3.org/2000/svg" xmlns:xlink="http://www.w3.org/1999/xlink" x="0px" y="0px"
	 viewBox="0 0 50 50" enable-background="new 0 0 50 50" xml:space="preserve">
<g id="Layer_1">
	<g id="Grid_4x4_2_" display="none">
		<rect x="-4" y="4" display="inline" opacity="0.2" fill="#FF00FF" width="4" height="4"/>
		<rect x="-4" y="12" display="inline" opacity="0.2" fill="#FF00FF" width="4" height="4"/>
		<rect x="-4" y="20" display="inline" opacity="0.2" fill="#FF00FF" width="4" height="4"/>
		<rect x="-4" y="30" display="inline" opacity="0.2" fill="#FF00FF" width="4" height="4"/>
		<rect x="-4" y="38" display="inline" opacity="0.2" fill="#FF00FF" width="4" height="4"/>
		<rect x="-4" y="46" display="inline" opacity="0.2" fill="#FF00FF" width="4" height="4"/>
	</g>
	<g id="Grid_4x4_4_" display="none">
		<rect y="50" display="inline" opacity="0.2" fill="#FF00FF" width="4" height="4"/>
		<rect x="8" y="50" display="inline" opacity="0.2" fill="#FF00FF" width="4" height="4"/>
		<rect x="16" y="50" display="inline" opacity="0.2" fill="#FF00FF" width="4" height="4"/>
		<rect x="26" y="50" display="inline" opacity="0.2" fill="#FF00FF" width="4" height="4"/>
		<rect x="34" y="50" display="inline" opacity="0.2" fill="#FF00FF" width="4" height="4"/>
		<rect x="42" y="50" display="inline" opacity="0.2" fill="#FF00FF" width="4" height="4"/>
	</g>
	<path d="M40,17.4v-2.7L27.8,27c-1.6,1.6-4.1,1.6-5.7,0L10,14.7v2.7l7.6,7.6L10,32.6v2.7l8.9-8.9l1.8,1.9c1.2,1.2,2.7,1.7,4.2,1.7
		c1.5,0,3.1-0.5,4.2-1.7l1.8-1.9l8.9,8.9v-2.7L32.4,25L40,17.4z"/>
	<path d="M42,38H8V12h34V38z M10,36h30V14H10V36z"/>
</g>
<g id="Guides">
</g>
</svg>
